<svg xmlns="http://www.w3.org/2000/svg" xmlns:xlink="http://www.w3.org/1999/xlink" width="336" zoomAndPan="magnify" viewBox="0 0 252 143.999998" height="192" preserveAspectRatio="xMidYMid meet" version="1.0"><defs><g/><clipPath id="c4e7250b52"><path d="M 46 52.929688 L 65 52.929688 L 65 53 L 46 53 Z M 46 52.929688 " clip-rule="nonzero"/></clipPath><clipPath id="de6dcc0fd6"><path d="M 0 53 L 110.28125 53 L 110.28125 135.707031 L 0 135.707031 Z M 0 53 " clip-rule="nonzero"/></clipPath><clipPath id="6a8c527754"><path d="M 44.019531 8.328125 L 66.339844 8.328125 L 66.339844 56.210938 L 44.019531 56.210938 Z M 44.019531 8.328125 " clip-rule="nonzero"/></clipPath></defs><g fill="#000000" fill-opacity="1"><g transform="translate(120.732545, 106.497786)"><g><path d="M 9.3125 -11.484375 L 9.3125 -9.296875 L 3.75 -9.296875 L 3.75 -6.84375 L 8.671875 -6.84375 L 8.671875 -4.65625 L 3.75 -4.65625 L 3.75 -2.1875 L 9.53125 -2.1875 L 9.53125 0 L 1.484375 0 L 1.484375 -11.484375 Z M 9.3125 -11.484375 "/></g></g></g><g fill="#000000" fill-opacity="1"><g transform="translate(143.597895, 106.497786)"><g><path d="M 11.8125 -11.484375 L 11.8125 0.46875 L 11.75 0.46875 L 3.734375 -6.78125 L 3.78125 0 L 1.484375 0 L 1.484375 -11.921875 L 1.578125 -11.921875 L 9.59375 -4.5625 L 9.546875 -11.484375 Z M 11.8125 -11.484375 "/></g></g></g><g fill="#000000" fill-opacity="1"><g transform="translate(169.379271, 106.497786)"><g><path d="M 0.78125 -5.71875 C 0.78125 -6.757812 1.039062 -7.734375 1.5625 -8.640625 C 2.09375 -9.546875 2.804688 -10.265625 3.703125 -10.796875 C 4.597656 -11.335938 5.570312 -11.609375 6.625 -11.609375 C 7.675781 -11.609375 8.648438 -11.335938 9.546875 -10.796875 C 10.453125 -10.265625 11.171875 -9.546875 11.703125 -8.640625 C 12.234375 -7.734375 12.5 -6.757812 12.5 -5.71875 C 12.5 -4.65625 12.234375 -3.675781 11.703125 -2.78125 C 11.171875 -1.894531 10.453125 -1.1875 9.546875 -0.65625 C 8.648438 -0.132812 7.675781 0.125 6.625 0.125 C 5.5625 0.125 4.582031 -0.132812 3.6875 -0.65625 C 2.800781 -1.1875 2.09375 -1.894531 1.5625 -2.78125 C 1.039062 -3.675781 0.78125 -4.65625 0.78125 -5.71875 Z M 3.125 -5.71875 C 3.125 -5.050781 3.28125 -4.4375 3.59375 -3.875 C 3.90625 -3.320312 4.332031 -2.878906 4.875 -2.546875 C 5.425781 -2.222656 6.035156 -2.0625 6.703125 -2.0625 C 7.347656 -2.0625 7.9375 -2.222656 8.46875 -2.546875 C 9 -2.878906 9.414062 -3.320312 9.71875 -3.875 C 10.019531 -4.425781 10.171875 -5.039062 10.171875 -5.71875 C 10.171875 -6.40625 10.015625 -7.03125 9.703125 -7.59375 C 9.390625 -8.15625 8.960938 -8.597656 8.421875 -8.921875 C 7.890625 -9.253906 7.296875 -9.421875 6.640625 -9.421875 C 5.984375 -9.421875 5.382812 -9.253906 4.84375 -8.921875 C 4.3125 -8.597656 3.890625 -8.15625 3.578125 -7.59375 C 3.273438 -7.03125 3.125 -6.40625 3.125 -5.71875 Z M 3.125 -5.71875 "/></g></g></g><g fill="#000000" fill-opacity="1"><g transform="translate(195.145057, 106.497786)"><g><path d="M 7.390625 -6.046875 C 7.992188 -5.765625 8.460938 -5.394531 8.796875 -4.9375 C 9.140625 -4.488281 9.3125 -3.972656 9.3125 -3.390625 C 9.3125 -2.222656 8.925781 -1.363281 8.15625 -0.8125 C 7.394531 -0.269531 6.441406 0 5.296875 0 L 1.484375 0 L 1.484375 -11.484375 L 4.84375 -11.484375 C 6.0625 -11.484375 7.019531 -11.234375 7.71875 -10.734375 C 8.414062 -10.242188 8.765625 -9.53125 8.765625 -8.59375 C 8.765625 -8.019531 8.644531 -7.515625 8.40625 -7.078125 C 8.164062 -6.648438 7.828125 -6.304688 7.390625 -6.046875 Z M 3.75 -6.78125 L 5.109375 -6.78125 C 5.523438 -6.78125 5.847656 -6.90625 6.078125 -7.15625 C 6.304688 -7.414062 6.421875 -7.734375 6.421875 -8.109375 C 6.421875 -8.492188 6.289062 -8.785156 6.03125 -8.984375 C 5.769531 -9.191406 5.410156 -9.296875 4.953125 -9.296875 L 3.75 -9.296875 Z M 5.1875 -2.109375 C 5.71875 -2.109375 6.144531 -2.210938 6.46875 -2.421875 C 6.800781 -2.640625 6.96875 -2.960938 6.96875 -3.390625 C 6.96875 -4.191406 6.320312 -4.59375 5.03125 -4.59375 L 3.75 -4.59375 L 3.75 -2.109375 Z M 5.1875 -2.109375 "/></g></g></g><g fill="#000000" fill-opacity="1"><g transform="translate(217.714121, 106.497786)"><g><path d="M 0.78125 -5.71875 C 0.78125 -6.757812 1.039062 -7.734375 1.5625 -8.640625 C 2.09375 -9.546875 2.804688 -10.265625 3.703125 -10.796875 C 4.597656 -11.335938 5.570312 -11.609375 6.625 -11.609375 C 7.675781 -11.609375 8.648438 -11.335938 9.546875 -10.796875 C 10.453125 -10.265625 11.171875 -9.546875 11.703125 -8.640625 C 12.234375 -7.734375 12.5 -6.757812 12.5 -5.71875 C 12.5 -4.65625 12.234375 -3.675781 11.703125 -2.78125 C 11.171875 -1.894531 10.453125 -1.1875 9.546875 -0.65625 C 8.648438 -0.132812 7.675781 0.125 6.625 0.125 C 5.5625 0.125 4.582031 -0.132812 3.6875 -0.65625 C 2.800781 -1.1875 2.09375 -1.894531 1.5625 -2.78125 C 1.039062 -3.675781 0.78125 -4.65625 0.78125 -5.71875 Z M 3.125 -5.71875 C 3.125 -5.050781 3.28125 -4.4375 3.59375 -3.875 C 3.90625 -3.320312 4.332031 -2.878906 4.875 -2.546875 C 5.425781 -2.222656 6.035156 -2.0625 6.703125 -2.0625 C 7.347656 -2.0625 7.9375 -2.222656 8.46875 -2.546875 C 9 -2.878906 9.414062 -3.320312 9.71875 -3.875 C 10.019531 -4.425781 10.171875 -5.039062 10.171875 -5.71875 C 10.171875 -6.40625 10.015625 -7.03125 9.703125 -7.59375 C 9.390625 -8.15625 8.960938 -8.597656 8.421875 -8.921875 C 7.890625 -9.253906 7.296875 -9.421875 6.640625 -9.421875 C 5.984375 -9.421875 5.382812 -9.253906 4.84375 -8.921875 C 4.3125 -8.597656 3.890625 -8.15625 3.578125 -7.59375 C 3.273438 -7.03125 3.125 -6.40625 3.125 -5.71875 Z M 3.125 -5.71875 "/></g></g></g><g fill="#000000" fill-opacity="1"><g transform="translate(243.479902, 106.497786)"><g><path d="M 8.4375 -11.484375 L 8.4375 -9.296875 L 5.640625 -9.296875 L 5.640625 0 L 3.390625 0 L 3.390625 -9.296875 L 0.703125 -9.296875 L 0.703125 -11.484375 Z M 8.4375 -11.484375 "/></g></g></g><g clip-path="url(#c4e7250b52)"><path fill="#be0157" d="M 49.910156 40.316406 L 50.738281 40.316406 C 52.417969 40.59375 53.425781 41.476562 54.671875 42.523438 C 55.1875 42.957031 55.847656 43.011719 56.363281 42.582031 C 57.65625 41.496094 59.109375 40.425781 60.773438 40.527344 C 63.195312 40.683594 65.277344 42.933594 64.660156 45.4375 C 64.328125 46.785156 63.414062 47.636719 62.203125 48.378906 C 60.566406 49.386719 58.949219 50.425781 57.351562 51.496094 C 56.730469 51.914062 56.191406 52.421875 55.652344 52.925781 C 55.574219 52.996094 55.5 52.996094 55.429688 52.921875 C 54.691406 52.199219 53.878906 51.542969 52.992188 50.960938 C 51.402344 49.917969 49.816406 48.859375 48.242188 47.789062 C 44.886719 45.503906 46.007812 41.039062 49.910156 40.316406 Z M 49.910156 40.316406 " fill-opacity="1" fill-rule="nonzero"/></g><g clip-path="url(#de6dcc0fd6)"><path fill="#be0157" d="M 111.132812 90.242188 L 111.132812 112.058594 C 111.011719 112.566406 110.71875 112.949219 110.25 113.199219 C 105.65625 115.675781 101.058594 118.148438 96.460938 120.617188 C 96.195312 120.761719 96 120.867188 95.804688 121.117188 C 95.21875 121.863281 94.625 122.601562 94.03125 123.335938 C 88.660156 129.988281 81.855469 134.519531 73.625 136.921875 C 73.542969 136.945312 73.5 137.003906 73.5 137.089844 C 73.5 143.609375 73.5 150.140625 73.5 156.691406 C 73.5 157.503906 73.425781 158.121094 73.273438 158.550781 C 72.890625 159.640625 72.148438 160.410156 71.046875 160.855469 C 70.71875 160.984375 70.316406 161.050781 69.839844 161.050781 C 60.269531 161.046875 50.695312 161.046875 41.121094 161.050781 C 39.460938 161.050781 38.160156 160.261719 37.582031 158.679688 C 37.433594 158.273438 37.359375 157.707031 37.359375 156.972656 C 37.359375 150.328125 37.359375 143.699219 37.359375 137.09375 C 37.359375 137 37.316406 136.941406 37.230469 136.917969 C 28.175781 134.167969 20.886719 129.003906 15.355469 121.433594 C 14.980469 120.917969 14.621094 120.570312 14.277344 120.390625 C 7.828125 117.019531 3.222656 114.558594 0.464844 113.015625 C 0.160156 112.847656 -0.0273438 112.492188 -0.105469 111.949219 L -0.105469 90.296875 C 0.03125 89.734375 0.257812 89.402344 0.796875 89.113281 C 5.203125 86.738281 9.585938 84.355469 13.9375 81.96875 C 14.070312 81.898438 14.167969 81.792969 14.226562 81.652344 C 18.46875 71.558594 25.621094 63.429688 35.488281 58.59375 C 40.34375 56.210938 45.492188 54.753906 50.933594 54.21875 C 59.992188 53.328125 68.496094 54.941406 76.445312 59.058594 C 85.273438 63.632812 92.15625 71.257812 96.136719 80.328125 C 96.425781 80.980469 96.628906 81.449219 96.746094 81.730469 C 96.769531 81.785156 96.804688 81.824219 96.855469 81.851562 C 101.074219 84.164062 105.292969 86.46875 109.519531 88.765625 C 110.414062 89.25 110.894531 89.402344 111.132812 90.242188 Z M 59.144531 91.6875 C 59.042969 91.8125 58.910156 91.878906 58.746094 91.878906 L 52.210938 91.871094 C 52.039062 91.871094 51.894531 91.804688 51.785156 91.667969 C 50.109375 89.5625 48.4375 87.488281 46.769531 85.445312 C 46.589844 85.222656 46.394531 85.109375 46.1875 85.109375 C 42.054688 85.113281 37.917969 85.117188 33.78125 85.125 C 27.890625 85.136719 22.894531 90.257812 21.773438 95.820312 C 21.625 96.566406 21.546875 97.59375 21.546875 98.898438 C 21.539062 102.964844 21.539062 107.027344 21.542969 111.089844 C 21.542969 112.5 21.621094 113.605469 21.769531 114.402344 C 22.167969 116.554688 22.984375 118.527344 24.214844 120.328125 C 26.660156 123.902344 30.960938 126.585938 35.40625 126.582031 C 48.734375 126.578125 62.0625 126.578125 75.390625 126.578125 C 76.441406 126.578125 77.398438 126.523438 78.289062 126.285156 C 84.074219 124.753906 88.3125 120.128906 89.292969 114.246094 C 89.417969 113.480469 89.484375 112.375 89.484375 110.925781 C 89.484375 106.695312 89.484375 102.464844 89.484375 98.234375 C 89.484375 91.613281 84 85.121094 77.203125 85.117188 C 73.023438 85.113281 68.882812 85.113281 64.78125 85.109375 C 64.59375 85.109375 64.441406 85.179688 64.324219 85.324219 Z M 55.484375 143.023438 C 54.378906 141.625 53.402344 140.273438 51.605469 139.761719 C 50.308594 139.390625 48.917969 139.683594 47.84375 140.464844 C 45.183594 142.40625 45.207031 145.625 47.152344 148.0625 C 48.476562 149.722656 49.992188 151.539062 51.695312 153.515625 C 52.453125 154.394531 53.0625 154.964844 53.523438 155.226562 C 54.5625 155.824219 55.6875 155.902344 56.902344 155.464844 C 57.882812 155.113281 58.410156 154.480469 59.097656 153.683594 C 60.285156 152.316406 61.460938 150.9375 62.628906 149.550781 C 63.820312 148.132812 65.003906 146.574219 65.164062 144.808594 C 65.375 142.484375 63.917969 140.378906 61.648438 139.757812 C 61.164062 139.625 60.726562 139.574219 60.339844 139.609375 C 58.230469 139.800781 56.765625 141.28125 55.628906 143.015625 C 55.582031 143.085938 55.535156 143.089844 55.484375 143.023438 Z M 55.484375 143.023438 " fill-opacity="1" fill-rule="nonzero"/></g><path fill="#be0157" d="M 34.90625 112.296875 C 34.445312 112.253906 33.992188 112.164062 33.546875 112.03125 C 33.101562 111.894531 32.671875 111.71875 32.261719 111.5 C 31.851562 111.277344 31.464844 111.019531 31.105469 110.722656 C 30.746094 110.425781 30.417969 110.09375 30.121094 109.730469 C 29.824219 109.367188 29.566406 108.980469 29.347656 108.5625 C 29.125 108.148438 28.949219 107.714844 28.8125 107.265625 C 28.675781 106.8125 28.585938 106.355469 28.539062 105.886719 C 28.492188 105.414062 28.492188 104.945312 28.535156 104.476562 C 28.578125 104.007812 28.667969 103.546875 28.800781 103.09375 C 28.9375 102.640625 29.113281 102.207031 29.332031 101.789062 C 29.546875 101.371094 29.804688 100.980469 30.097656 100.613281 C 30.394531 100.246094 30.71875 99.914062 31.078125 99.613281 C 31.4375 99.308594 31.820312 99.046875 32.230469 98.824219 C 32.640625 98.597656 33.066406 98.417969 33.511719 98.277344 C 33.957031 98.136719 34.410156 98.042969 34.871094 97.996094 C 35.335938 97.945312 35.796875 97.945312 36.261719 97.988281 C 36.722656 98.03125 37.175781 98.121094 37.621094 98.253906 C 38.066406 98.390625 38.496094 98.566406 38.90625 98.785156 C 39.316406 99.007812 39.703125 99.265625 40.0625 99.5625 C 40.421875 99.859375 40.75 100.191406 41.046875 100.554688 C 41.34375 100.917969 41.601562 101.304688 41.820312 101.722656 C 42.042969 102.136719 42.21875 102.570312 42.355469 103.019531 C 42.492188 103.472656 42.582031 103.929688 42.628906 104.398438 C 42.675781 104.871094 42.675781 105.339844 42.632812 105.808594 C 42.589844 106.277344 42.5 106.738281 42.367188 107.191406 C 42.230469 107.644531 42.054688 108.078125 41.835938 108.496094 C 41.621094 108.914062 41.363281 109.304688 41.070312 109.671875 C 40.777344 110.039062 40.449219 110.371094 40.089844 110.671875 C 39.730469 110.976562 39.347656 111.238281 38.9375 111.460938 C 38.527344 111.6875 38.101562 111.867188 37.65625 112.007812 C 37.210938 112.148438 36.757812 112.242188 36.296875 112.289062 C 35.832031 112.339844 35.371094 112.339844 34.90625 112.296875 Z M 34.90625 112.296875 " fill-opacity="1" fill-rule="nonzero"/><path fill="#be0157" d="M 80.261719 99.867188 C 82.398438 101.785156 83.246094 105.101562 82.117188 107.8125 C 80.742188 111.121094 77.296875 113 73.773438 112.132812 C 70.058594 111.222656 67.707031 107.488281 68.5 103.679688 C 68.828125 102.101562 69.589844 100.792969 70.789062 99.75 C 73.652344 97.257812 77.453125 97.34375 80.261719 99.867188 Z M 80.261719 99.867188 " fill-opacity="1" fill-rule="nonzero"/><path fill="#be0157" d="M 48.3125 114.753906 C 50.628906 116.226562 53.082031 117 55.886719 116.902344 C 58.414062 116.816406 60.777344 116 62.972656 114.460938 C 63.109375 114.367188 63.304688 114.34375 63.554688 114.398438 C 64.503906 114.597656 64.488281 115.535156 63.785156 116.035156 C 61.929688 117.347656 59.945312 118.175781 57.832031 118.523438 C 53.816406 119.179688 50.136719 118.304688 46.792969 115.894531 C 46.617188 115.765625 46.5625 115.542969 46.628906 115.222656 C 46.851562 114.175781 47.574219 114.285156 48.3125 114.753906 Z M 48.3125 114.753906 " fill-opacity="1" fill-rule="nonzero"/><g clip-path="url(#6a8c527754)"><path fill="#be0157" d="M 46.816406 56.253906 C 46.46875 56.253906 46.1875 55.992188 46.292969 55.625 C 46.398438 55.265625 46.714844 54.820312 47.613281 54.75 C 50.402344 54.535156 54.21875 54.238281 54.21875 50.730469 L 54.21875 36.980469 C 54.21875 33.660156 52.261719 32.542969 50.6875 31.648438 C 47.40625 29.777344 44.804688 27.480469 44.132812 23.3125 C 43.390625 18.699219 46.566406 8.75 46.703125 8.328125 L 63.65625 8.328125 C 63.792969 8.75 66.96875 18.699219 66.226562 23.3125 C 65.554688 27.480469 62.953125 29.777344 59.671875 31.648438 C 58.097656 32.542969 56.140625 33.660156 56.140625 36.980469 L 56.140625 50.730469 C 56.140625 54.238281 59.957031 54.535156 62.746094 54.75 C 63.644531 54.820312 63.960938 55.265625 64.066406 55.625 C 64.171875 55.992188 63.890625 56.253906 63.542969 56.253906 L 46.816406 56.253906 " fill-opacity="1" fill-rule="nonzero"/></g></svg>