<svg xmlns="http://www.w3.org/2000/svg" xmlns:xlink="http://www.w3.org/1999/xlink" width="500" zoomAndPan="magnify" viewBox="0 0 375 374.999991" height="500" preserveAspectRatio="xMidYMid meet" version="1.0"><defs><clipPath id="e3731addc0"><path d="M 346 109 L 357.328125 109 L 357.328125 115 L 346 115 Z M 346 109 " clip-rule="nonzero"/></clipPath></defs><path fill="#be0157" d="M 332.75 336.847656 C 332.535156 336.867188 332.324219 336.90625 332.109375 336.925781 C 331.894531 336.945312 331.679688 336.984375 331.445312 337.003906 C 331.210938 337.023438 330.957031 337.042969 330.722656 337.082031 C 330.507812 337.082031 330.292969 337.101562 330.078125 337.121094 C 329.824219 337.140625 329.574219 337.160156 329.300781 337.179688 C 329.085938 337.199219 328.871094 337.199219 328.65625 337.199219 C 328.382812 337.21875 328.128906 337.238281 327.855469 337.238281 C 327.640625 337.238281 327.40625 337.238281 327.191406 337.238281 C 326.917969 337.257812 326.648438 337.257812 326.375 337.238281 C 326.140625 337.238281 325.90625 337.238281 325.691406 337.21875 C 325.398438 337.21875 325.125 337.199219 324.851562 337.199219 C 324.617188 337.179688 324.363281 337.160156 324.128906 337.160156 C 323.855469 337.140625 323.585938 337.121094 323.292969 337.082031 C 323.058594 337.0625 322.804688 337.042969 322.550781 337.003906 C 322.277344 336.984375 322.003906 336.945312 321.710938 336.90625 C 321.457031 336.867188 321.203125 336.828125 320.949219 336.789062 C 320.660156 336.75 320.386719 336.710938 320.113281 336.671875 C 319.839844 336.613281 319.566406 336.554688 319.273438 336.496094 C 319.019531 336.457031 318.746094 336.398438 318.492188 336.339844 C 318.179688 336.28125 317.886719 336.183594 317.578125 336.125 C 317.324219 336.046875 317.089844 336.007812 316.835938 335.929688 C 316.484375 335.832031 316.132812 335.714844 315.761719 335.617188 C 315.566406 335.558594 315.371094 335.5 315.195312 335.441406 C 314.632812 335.269531 314.066406 335.054688 313.519531 334.859375 C 313.480469 334.839844 313.460938 334.820312 313.441406 334.820312 C 312.894531 334.605469 312.367188 334.390625 311.824219 334.15625 C 311.667969 334.078125 311.511719 334 311.355469 333.921875 C 310.945312 333.746094 310.554688 333.550781 310.144531 333.355469 C 309.949219 333.257812 309.773438 333.140625 309.578125 333.042969 C 309.207031 332.847656 308.839844 332.652344 308.46875 332.441406 C 308.253906 332.324219 308.058594 332.1875 307.84375 332.070312 C 307.492188 331.855469 307.140625 331.640625 306.789062 331.425781 C 306.574219 331.269531 306.359375 331.132812 306.144531 330.976562 C 305.816406 330.742188 305.464844 330.507812 305.132812 330.253906 C 304.917969 330.097656 304.683594 329.941406 304.46875 329.765625 C 304.136719 329.515625 303.804688 329.261719 303.472656 328.988281 C 303.257812 328.8125 303.027344 328.617188 302.8125 328.421875 C 302.480469 328.148438 302.167969 327.875 301.835938 327.582031 C 301.621094 327.367188 301.386719 327.152344 301.171875 326.957031 C 300.859375 326.648438 300.546875 326.355469 300.238281 326.042969 C 300.003906 325.808594 299.789062 325.574219 299.554688 325.339844 C 299.320312 325.085938 299.085938 324.832031 298.851562 324.578125 C 301.347656 320.015625 303.183594 315.898438 304.175781 313.5 L 328.34375 251.316406 C 328.871094 250.011719 328.207031 248.546875 326.898438 248.039062 C 325.945312 247.648438 324.871094 247.921875 324.1875 248.625 C 323.953125 248.859375 323.757812 249.152344 323.625 249.484375 L 299.496094 311.589844 C 298.304688 314.4375 296.921875 317.382812 295.398438 320.289062 C 294.949219 321.105469 294.519531 321.925781 294.074219 322.746094 C 293.625 323.546875 293.175781 324.324219 292.726562 325.105469 C 292.707031 325.105469 292.707031 325.105469 292.707031 325.105469 C 287.207031 334.371094 280.398438 342.289062 273.769531 343.246094 L 240.277344 343.578125 L 237.742188 343.617188 L 235.207031 343.636719 L 178.367188 344.203125 C 180.179688 341.429688 181.390625 338.214844 181.839844 334.703125 C 182.679688 328.109375 180.785156 321.886719 176.496094 317.167969 C 175.851562 316.464844 175.128906 315.800781 174.386719 315.175781 L 233.15625 308.722656 L 235.675781 308.449219 L 238.210938 308.175781 L 258.808594 305.914062 C 259.800781 305.816406 260.640625 305.132812 260.953125 304.175781 L 267.742188 283.089844 L 268.636719 280.359375 L 269.496094 277.6875 L 278.683594 249.230469 C 278.722656 249.074219 278.761719 248.898438 278.78125 248.742188 C 278.996094 246.890625 279.425781 245.09375 280.027344 243.417969 C 280.574219 241.875 281.238281 240.414062 282.078125 239.046875 C 284.964844 234.269531 289.507812 230.640625 294.871094 228.90625 C 296.023438 228.535156 297.195312 228.242188 298.402344 228.066406 C 299.066406 227.949219 299.769531 227.871094 300.46875 227.832031 C 301.113281 227.792969 301.679688 227.480469 302.109375 227.050781 C 302.578125 226.546875 302.890625 225.882812 302.832031 225.121094 C 302.753906 223.738281 301.542969 222.722656 300.140625 222.761719 C 296.023438 223.035156 292.140625 224.203125 288.6875 226.039062 C 282.992188 229.082031 278.449219 234.015625 275.894531 240.0625 C 275.347656 241.3125 274.917969 242.617188 274.566406 243.945312 C 274.253906 245.09375 274.019531 246.246094 273.847656 247.4375 C 273.828125 247.589844 273.789062 247.746094 273.769531 247.902344 L 265.398438 273.867188 C 264.875 273.378906 264.347656 272.890625 263.78125 272.421875 C 263.214844 271.914062 262.628906 271.445312 262.066406 270.941406 C 261.382812 270.375 260.699219 269.789062 260.015625 269.222656 C 259.410156 268.734375 258.808594 268.246094 258.203125 267.761719 C 257.519531 267.214844 256.855469 266.667969 256.15625 266.140625 C 255.53125 265.652344 254.90625 265.183594 254.28125 264.699219 C 253.617188 264.191406 252.957031 263.683594 252.292969 263.195312 C 251.902344 262.882812 251.492188 262.589844 251.082031 262.296875 C 250.847656 262.125 250.613281 261.949219 250.363281 261.773438 C 249.992188 261.519531 249.621094 261.226562 249.269531 260.972656 C 249.464844 260.738281 249.621094 260.484375 249.71875 260.171875 C 249.777344 260.015625 249.855469 259.878906 249.875 259.703125 C 249.894531 259.644531 250.050781 258.535156 250.441406 256.679688 C 250.671875 255.589844 250.964844 254.242188 251.355469 252.683594 C 253.519531 244.121094 258.398438 229.179688 268.207031 216.578125 C 271.5625 212.269531 275.484375 208.230469 280.085938 204.816406 C 280.75 204.308594 281.433594 203.820312 282.117188 203.355469 C 287.03125 200.816406 291.382812 197.113281 295.007812 192.566406 C 311.609375 192.117188 326.121094 214.335938 328.96875 230.523438 L 332.984375 336.808594 C 332.90625 336.828125 332.828125 336.828125 332.75 336.847656 Z M 176.808594 334.058594 C 176.242188 338.503906 174.273438 342.191406 171.113281 344.84375 C 170.605469 345.273438 170.078125 345.683594 169.492188 346.054688 C 168.304688 346.835938 166.976562 347.476562 165.53125 348.003906 C 162.179688 349.214844 158.160156 349.703125 153.675781 349.46875 C 152.777344 349.410156 151.878906 349.332031 150.960938 349.234375 C 150.769531 349.195312 150.574219 349.195312 150.359375 349.175781 C 150.28125 349.15625 150.203125 349.136719 150.125 349.136719 C 149.480469 349.039062 148.835938 348.941406 148.191406 348.824219 C 140.839844 347.554688 134.226562 344.726562 129.429688 340.730469 C 124.476562 336.59375 122.054688 331.777344 122.660156 327.132812 C 123.246094 322.492188 126.796875 318.414062 132.628906 315.664062 C 134.265625 314.90625 136.0625 314.320312 137.894531 313.8125 C 138.714844 313.597656 139.511719 313.34375 140.351562 313.1875 C 141.171875 313.011719 142.03125 312.914062 142.886719 312.796875 C 144.820312 312.542969 146.769531 312.367188 148.796875 312.367188 C 150.828125 312.367188 152.914062 312.503906 155.019531 312.757812 C 155.859375 312.875 156.679688 313.011719 157.476562 313.167969 C 159.058594 313.441406 160.539062 313.8125 161.964844 314.261719 C 163.582031 314.75 165.085938 315.351562 166.46875 316.035156 C 168.984375 317.285156 171.09375 318.785156 172.75 320.601562 C 176.066406 324.226562 177.46875 328.890625 176.808594 334.058594 Z M 82.207031 370.183594 L 53.867188 273.808594 L 126.132812 273.808594 L 136.449219 308.917969 C 134.34375 309.480469 132.335938 310.203125 130.460938 311.082031 C 123.011719 314.59375 118.449219 320.054688 117.628906 326.492188 C 116.808594 332.90625 119.851562 339.34375 126.171875 344.628906 C 132.199219 349.625 140.546875 353.015625 149.714844 354.1875 C 149.734375 354.207031 149.753906 354.207031 149.792969 354.207031 L 154.472656 370.183594 Z M 247.804688 266.21875 C 248.878906 267 249.953125 267.800781 251.042969 268.617188 C 251.0625 268.636719 251.082031 268.65625 251.082031 268.65625 C 252.214844 269.515625 253.347656 270.394531 254.476562 271.289062 C 254.496094 271.308594 254.496094 271.308594 254.515625 271.328125 C 255.589844 272.1875 256.660156 273.066406 257.734375 273.960938 C 257.851562 274.039062 257.949219 274.117188 258.066406 274.214844 C 259.082031 275.074219 260.09375 275.953125 261.089844 276.832031 C 261.246094 276.945312 261.382812 277.082031 261.519531 277.199219 C 262.238281 277.84375 262.960938 278.507812 263.683594 279.171875 L 256.621094 301.054688 L 237.898438 303.105469 L 236.082031 272.109375 L 235.90625 269.183594 L 235.734375 266.277344 L 235.226562 257.519531 C 235.265625 257.558594 235.304688 257.578125 235.34375 257.597656 C 236.160156 258.144531 237.039062 258.710938 237.917969 259.292969 C 237.976562 259.332031 238.035156 259.371094 238.09375 259.410156 C 238.988281 260.015625 239.925781 260.640625 240.882812 261.304688 C 241 261.382812 241.097656 261.441406 241.214844 261.519531 C 241.488281 261.714844 241.796875 261.929688 242.089844 262.144531 C 242.753906 262.589844 243.4375 263.058594 244.121094 263.546875 C 244.199219 263.605469 244.257812 263.644531 244.335938 263.703125 C 244.375 263.722656 244.414062 263.761719 244.472656 263.800781 C 245.132812 264.269531 245.835938 264.777344 246.539062 265.28125 C 246.871094 265.515625 247.183594 265.75 247.515625 265.984375 C 247.609375 266.0625 247.707031 266.140625 247.804688 266.21875 Z M 234.503906 219.445312 C 234.894531 218.003906 235.382812 216.597656 235.964844 215.214844 C 236.726562 213.398438 237.683594 211.664062 238.757812 210.003906 C 239.144531 209.441406 239.496094 208.835938 239.90625 208.269531 C 241.972656 205.5 244.394531 203.140625 247.085938 201.207031 C 252.800781 205.050781 259.390625 207.253906 266.414062 207.253906 C 267.546875 207.253906 268.65625 207.175781 269.769531 207.058594 C 267.449219 209.382812 265.339844 211.839844 263.429688 214.375 C 250.070312 231.96875 245.855469 253.074219 245.015625 257.96875 C 244.917969 257.910156 244.800781 257.832031 244.703125 257.773438 C 244.042969 257.285156 243.378906 256.855469 242.714844 256.40625 C 242.167969 256.039062 241.625 255.667969 241.078125 255.316406 C 240.394531 254.847656 239.730469 254.417969 239.085938 253.988281 C 238.601562 253.675781 238.113281 253.367188 237.644531 253.054688 C 236.960938 252.605469 236.296875 252.195312 235.65625 251.785156 C 235.382812 251.609375 235.109375 251.433594 234.855469 251.277344 L 233.9375 235.8125 C 233.9375 235.695312 233.917969 235.578125 233.898438 235.441406 C 232.808594 230.074219 233.078125 224.59375 234.503906 219.445312 Z M 232.066406 160.441406 C 232.066406 159.625 232.105469 158.804688 232.144531 157.925781 C 232.203125 157.125 232.28125 156.269531 232.359375 155.390625 C 232.398438 155.15625 232.398438 154.980469 232.417969 154.765625 C 234.738281 134.1875 249.347656 118.679688 266.414062 118.679688 C 269.242188 118.679688 272.011719 119.128906 274.664062 119.929688 C 275.523438 120.183594 276.363281 120.496094 277.199219 120.828125 C 278.058594 121.179688 278.898438 121.570312 279.738281 121.996094 C 289.234375 126.894531 296.726562 136.878906 299.535156 149.539062 C 300.351562 153.207031 300.761719 156.871094 300.761719 160.441406 C 300.761719 170.820312 297.621094 180.296875 292.453125 187.613281 C 291.769531 188.550781 291.070312 189.464844 290.328125 190.34375 C 289.507812 191.320312 288.628906 192.234375 287.734375 193.113281 C 286.132812 194.675781 284.417969 196.058594 282.605469 197.25 C 282.351562 197.308594 282.097656 197.367188 281.863281 197.503906 C 281.042969 198.007812 280.242188 198.515625 279.445312 199.042969 C 275.425781 201.070312 271.035156 202.183594 266.414062 202.183594 C 261.285156 202.183594 256.425781 200.777344 252.039062 198.300781 C 251.199219 197.832031 250.34375 197.328125 249.542969 196.761719 C 248.78125 196.234375 248.019531 195.6875 247.300781 195.101562 C 238.113281 187.59375 232.066406 174.875 232.066406 160.441406 Z M 213.808594 280.59375 C 204.230469 286.777344 185.820312 281.257812 175.988281 276.148438 L 117.082031 238.230469 C 118.214844 238.054688 119.304688 237.820312 120.398438 237.527344 C 128.121094 235.402344 133.699219 230.71875 136.121094 224.339844 C 137.503906 220.636719 137.660156 216.617188 136.703125 212.578125 L 197.09375 245.191406 C 197.949219 245.640625 199.003906 245.582031 199.804688 244.996094 L 228.417969 223.914062 C 227.929688 227.988281 228.085938 232.164062 228.886719 236.277344 L 229.863281 252.878906 L 230.855469 269.476562 Z M 109.691406 233.605469 C 107.953125 233.527344 106.199219 233.332031 104.441406 232.980469 C 102.707031 232.652344 100.972656 232.183594 99.253906 231.597656 C 98.824219 231.460938 98.394531 231.324219 97.988281 231.167969 C 83.980469 225.882812 84.976562 218.566406 88.292969 207.136719 C 90.457031 199.6875 93.265625 194.421875 96.660156 191.339844 C 97.402344 190.675781 98.160156 190.128906 98.941406 189.660156 C 100.035156 189.035156 101.164062 188.609375 102.355469 188.375 C 103.078125 188.21875 103.820312 188.140625 104.578125 188.140625 C 104.597656 188.140625 104.636719 188.140625 104.675781 188.140625 C 106.335938 188.160156 107.972656 188.511719 109.613281 189.074219 C 110.820312 189.484375 112.03125 190.03125 113.199219 190.675781 C 114.136719 191.164062 115.035156 191.730469 115.910156 192.332031 C 119.441406 194.753906 122.503906 197.773438 124.589844 200.292969 C 126.210938 202.222656 127.265625 203.839844 127.457031 204.601562 C 127.476562 204.640625 127.515625 204.679688 127.535156 204.738281 C 127.613281 205.03125 127.710938 205.324219 127.90625 205.578125 C 128.726562 206.6875 129.390625 207.800781 129.976562 208.933594 C 132.394531 213.59375 132.941406 218.390625 131.378906 222.546875 C 129.546875 227.363281 125.175781 230.953125 119.050781 232.632812 C 116.105469 233.449219 112.945312 233.761719 109.691406 233.605469 Z M 88.976562 167.054688 C 88.976562 164.578125 89.074219 161.867188 89.289062 158.960938 L 125.175781 158.960938 C 125.390625 161.867188 125.507812 164.578125 125.507812 167.054688 C 125.507812 177.332031 120.90625 183.339844 115.96875 186.480469 C 112.597656 184.570312 108.949219 183.222656 105.261719 183.089844 C 102.667969 182.953125 99.683594 183.4375 96.660156 185.15625 C 92.484375 181.761719 88.976562 176.046875 88.976562 167.054688 Z M 93.65625 130.617188 L 120.808594 130.617188 C 121.683594 134.519531 123.617188 143.84375 124.707031 153.886719 L 89.753906 153.886719 C 90.847656 143.84375 92.777344 134.519531 93.65625 130.617188 Z M 334.019531 230.152344 C 334.019531 230.035156 334 229.941406 333.980469 229.824219 C 331.015625 212.519531 316.445312 189.914062 298.441406 187.632812 C 303.085938 179.96875 305.835938 170.585938 305.835938 160.441406 C 305.835938 156.503906 305.386719 152.445312 304.488281 148.425781 C 301.113281 133.273438 291.652344 121.511719 279.738281 116.398438 L 279.738281 20.6875 C 279.738281 9.414062 270.570312 0.246094 259.292969 0.246094 L 56.441406 0.246094 C 45.167969 0.246094 36 9.414062 36 20.6875 L 36 140.019531 C 36 151.273438 45.167969 160.441406 56.441406 160.441406 C 57.84375 160.441406 58.976562 159.3125 58.976562 157.925781 C 58.976562 157.925781 58.976562 157.925781 58.976562 157.90625 C 58.976562 156.523438 57.84375 155.390625 56.441406 155.390625 C 47.957031 155.390625 41.070312 148.484375 41.070312 140.019531 L 41.070312 20.6875 C 41.070312 12.203125 47.957031 5.316406 56.441406 5.316406 L 259.292969 5.316406 C 267.78125 5.316406 274.664062 12.203125 274.664062 20.6875 L 274.664062 114.703125 C 271.992188 114.019531 269.242188 113.609375 266.414062 113.609375 C 246.773438 113.609375 229.976562 131.066406 227.382812 154.179688 C 227.34375 154.609375 227.324219 154.980469 227.285156 155.390625 L 193.660156 155.390625 C 192.273438 155.390625 191.125 156.523438 191.125 157.90625 L 191.125 176.515625 L 165.417969 155.9375 C 164.96875 155.585938 164.421875 155.390625 163.835938 155.390625 L 151.898438 155.390625 C 150.496094 155.390625 149.363281 156.523438 149.363281 157.90625 C 149.363281 157.925781 149.363281 157.925781 149.363281 157.925781 C 149.363281 159.3125 150.496094 160.441406 151.898438 160.441406 L 162.9375 160.441406 L 192.078125 183.769531 C 192.546875 184.121094 193.113281 184.316406 193.660156 184.316406 C 194.050781 184.316406 194.421875 184.238281 194.773438 184.0625 C 195.648438 183.632812 196.195312 182.757812 196.195312 181.78125 L 196.195312 160.441406 L 226.996094 160.441406 C 226.996094 175.851562 233.3125 189.484375 243.007812 198.007812 C 240.335938 200.097656 237.917969 202.496094 235.847656 205.246094 C 233.3125 208.660156 231.402344 212.421875 230.09375 216.382812 L 198.085938 239.964844 L 133.699219 205.1875 C 133.253906 204.425781 132.765625 203.644531 132.21875 202.90625 C 131.144531 200.078125 126.601562 194.167969 120.535156 189.503906 C 126.132812 185.15625 130.558594 177.800781 130.558594 167.054688 C 130.558594 164.265625 130.402344 161.164062 130.152344 157.925781 C 130.113281 157.339844 130.09375 156.792969 130.035156 156.191406 C 128.707031 141.582031 125.429688 128.042969 125.292969 127.476562 C 125.019531 126.347656 124.007812 125.546875 122.835938 125.546875 L 91.628906 125.546875 C 90.476562 125.546875 89.441406 126.347656 89.171875 127.476562 C 89.035156 128.042969 85.757812 141.582031 84.429688 156.191406 C 84.371094 156.792969 84.351562 157.339844 84.3125 157.925781 C 84.058594 161.183594 83.902344 164.285156 83.902344 167.054688 C 83.902344 176.886719 87.628906 183.867188 92.542969 188.335938 C 89.132812 191.769531 85.894531 197.230469 83.417969 205.734375 C 79.925781 217.769531 78.285156 229.140625 96.191406 235.90625 C 100.152344 237.410156 104.207031 238.289062 108.167969 238.582031 C 108.480469 238.757812 108.773438 238.949219 109.085938 239.105469 L 173.453125 280.535156 C 179.949219 283.910156 191.867188 288.378906 202.710938 288.378906 C 207.800781 288.378906 212.636719 287.382812 216.558594 284.847656 L 231.1875 275.308594 L 232.867188 303.667969 L 167.347656 310.847656 C 163.933594 309.34375 160.011719 308.292969 155.664062 307.746094 C 150.769531 307.121094 145.949219 307.179688 141.445312 307.863281 L 130.460938 270.570312 C 130.152344 269.496094 129.15625 268.734375 128.023438 268.734375 L 50.472656 268.734375 C 49.671875 268.734375 48.910156 269.125 48.441406 269.769531 C 47.957031 270.394531 47.820312 271.230469 48.035156 271.992188 L 77.875 373.421875 C 78.1875 374.511719 79.183594 375.253906 80.296875 375.253906 L 157.867188 375.253906 C 158.667969 375.253906 159.429688 374.863281 159.894531 374.21875 C 160.382812 373.59375 160.519531 372.757812 160.304688 371.996094 L 155.175781 354.578125 C 155.390625 354.578125 155.625 354.597656 155.820312 354.597656 C 162.296875 354.597656 167.894531 353.132812 172.261719 350.304688 C 172.554688 350.109375 172.808594 349.898438 173.082031 349.703125 C 173.589844 349.625 174.117188 349.566406 174.601562 349.507812 L 176.164062 349.292969 L 235.519531 348.6875 L 236.921875 372.855469 C 237.019531 374.199219 238.132812 375.253906 239.457031 375.253906 C 239.515625 375.253906 239.554688 375.234375 239.613281 375.234375 C 240.960938 375.15625 241.972656 374.042969 241.972656 372.71875 C 241.972656 372.660156 241.992188 372.621094 241.992188 372.5625 L 240.589844 348.648438 L 273.980469 348.316406 C 274.078125 348.316406 274.195312 348.316406 274.292969 348.296875 C 283.109375 347.128906 290.738281 338.019531 296.199219 329.105469 C 296.277344 329.183594 296.355469 329.261719 296.433594 329.339844 C 296.726562 329.609375 297 329.882812 297.273438 330.15625 C 297.542969 330.429688 297.816406 330.683594 298.089844 330.957031 C 298.382812 331.210938 298.65625 331.445312 298.929688 331.699219 C 299.203125 331.933594 299.496094 332.1875 299.769531 332.421875 C 300.0625 332.671875 300.332031 332.886719 300.605469 333.101562 C 301.171875 333.550781 301.71875 333.960938 302.285156 334.371094 C 302.539062 334.546875 302.792969 334.742188 303.046875 334.917969 C 303.355469 335.132812 303.667969 335.328125 304 335.539062 C 304.253906 335.714844 304.488281 335.871094 304.742188 336.027344 C 305.054688 336.222656 305.386719 336.417969 305.71875 336.59375 C 305.953125 336.75 306.203125 336.886719 306.4375 337.023438 C 306.769531 337.199219 307.101562 337.375 307.414062 337.550781 C 307.667969 337.667969 307.902344 337.785156 308.136719 337.921875 C 308.46875 338.078125 308.800781 338.253906 309.128906 338.386719 C 309.363281 338.503906 309.597656 338.601562 309.8125 338.699219 C 310.164062 338.855469 310.496094 338.992188 310.828125 339.148438 C 311.023438 339.207031 311.199219 339.285156 311.394531 339.34375 C 312.230469 339.675781 313.070312 339.988281 313.910156 340.261719 C 313.949219 340.261719 314.007812 340.28125 314.046875 340.300781 C 314.398438 340.417969 314.769531 340.515625 315.117188 340.613281 C 315.3125 340.671875 315.527344 340.730469 315.722656 340.789062 C 316.054688 340.886719 316.386719 340.964844 316.738281 341.042969 C 316.933594 341.101562 317.148438 341.140625 317.363281 341.199219 C 317.695312 341.277344 318.023438 341.332031 318.335938 341.410156 C 318.550781 341.449219 318.765625 341.488281 318.980469 341.527344 C 319.292969 341.585938 319.625 341.644531 319.9375 341.703125 C 320.152344 341.722656 320.347656 341.761719 320.5625 341.78125 C 320.871094 341.839844 321.203125 341.878906 321.515625 341.917969 C 321.710938 341.957031 321.886719 341.976562 322.082031 341.996094 C 323.214844 342.113281 324.304688 342.191406 325.359375 342.230469 C 325.554688 342.25 325.730469 342.25 325.90625 342.269531 C 326.199219 342.269531 326.472656 342.269531 326.742188 342.269531 C 326.917969 342.269531 327.09375 342.269531 327.289062 342.269531 C 328.070312 342.269531 328.832031 342.25 329.554688 342.210938 C 329.667969 342.210938 329.765625 342.191406 329.882812 342.191406 C 330.605469 342.152344 331.308594 342.09375 331.992188 342.035156 C 332.050781 342.015625 332.128906 342.015625 332.1875 342.015625 C 332.515625 341.976562 332.847656 341.9375 333.160156 341.898438 L 334.332031 372.71875 L 334.332031 372.816406 C 334.390625 374.179688 335.5 375.253906 336.867188 375.253906 C 336.886719 375.253906 336.925781 375.253906 336.964844 375.234375 C 338.351562 375.195312 339.441406 374.003906 339.402344 372.621094 L 338.117188 338.855469 L 334.019531 230.152344 " fill-opacity="1" fill-rule="nonzero"/><path fill="#be0157" d="M 161.300781 62.449219 C 161.300781 63.851562 162.433594 64.984375 163.835938 64.984375 L 247.359375 64.984375 C 248.761719 64.984375 249.894531 63.851562 249.894531 62.449219 C 249.894531 61.042969 248.761719 59.914062 247.359375 59.914062 L 163.835938 59.914062 C 162.433594 59.914062 161.300781 61.042969 161.300781 62.449219 " fill-opacity="1" fill-rule="nonzero"/><path fill="#be0157" d="M 194.148438 41.128906 C 195.550781 41.128906 196.683594 39.976562 196.683594 38.59375 C 196.683594 37.1875 195.550781 36.058594 194.148438 36.058594 L 186.539062 36.058594 C 185.136719 36.058594 184.003906 37.1875 184.003906 38.59375 C 184.003906 39.976562 185.136719 41.128906 186.539062 41.128906 L 194.148438 41.128906 " fill-opacity="1" fill-rule="nonzero"/><path fill="#be0157" d="M 247.359375 41.128906 C 248.761719 41.128906 249.894531 39.976562 249.894531 38.59375 C 249.894531 37.1875 248.761719 36.058594 247.359375 36.058594 L 239.769531 36.058594 C 238.367188 36.058594 237.234375 37.1875 237.234375 38.59375 C 237.234375 39.976562 238.367188 41.128906 239.769531 41.128906 L 247.359375 41.128906 " fill-opacity="1" fill-rule="nonzero"/><path fill="#be0157" d="M 176.417969 41.128906 C 177.800781 41.128906 178.933594 39.976562 178.933594 38.59375 C 178.933594 37.1875 177.800781 36.058594 176.417969 36.058594 L 168.808594 36.058594 C 167.40625 36.058594 166.273438 37.1875 166.273438 38.59375 C 166.273438 39.976562 167.40625 41.128906 168.808594 41.128906 L 176.417969 41.128906 " fill-opacity="1" fill-rule="nonzero"/><path fill="#be0157" d="M 229.628906 41.128906 C 231.03125 41.128906 232.164062 39.976562 232.164062 38.59375 C 232.164062 37.1875 231.03125 36.058594 229.628906 36.058594 L 222.019531 36.058594 C 220.636719 36.058594 219.484375 37.1875 219.484375 38.59375 C 219.484375 39.976562 220.636719 41.128906 222.019531 41.128906 L 229.628906 41.128906 " fill-opacity="1" fill-rule="nonzero"/><path fill="#be0157" d="M 211.898438 41.128906 C 213.28125 41.128906 214.433594 39.976562 214.433594 38.59375 C 214.433594 37.1875 213.28125 36.058594 211.898438 36.058594 L 204.289062 36.058594 C 202.886719 36.058594 201.753906 37.1875 201.753906 38.59375 C 201.753906 39.976562 202.886719 41.128906 204.289062 41.128906 L 211.898438 41.128906 " fill-opacity="1" fill-rule="nonzero"/><path fill="#be0157" d="M 163.835938 88.859375 L 176.496094 88.859375 C 177.898438 88.859375 179.050781 87.726562 179.050781 86.324219 C 179.050781 84.917969 177.898438 83.785156 176.496094 83.785156 L 163.835938 83.785156 C 162.433594 83.785156 161.300781 84.917969 161.300781 86.324219 C 161.300781 87.726562 162.433594 88.859375 163.835938 88.859375 " fill-opacity="1" fill-rule="nonzero"/><path fill="#be0157" d="M 209.441406 83.785156 C 208.054688 83.785156 206.921875 84.917969 206.921875 86.324219 C 206.921875 87.726562 208.054688 88.859375 209.441406 88.859375 L 222.117188 88.859375 C 223.523438 88.859375 224.652344 87.726562 224.652344 86.324219 C 224.652344 84.917969 223.523438 83.785156 222.117188 83.785156 L 209.441406 83.785156 " fill-opacity="1" fill-rule="nonzero"/><path fill="#be0157" d="M 232.261719 83.785156 C 230.855469 83.785156 229.726562 84.917969 229.726562 86.324219 C 229.726562 87.726562 230.855469 88.859375 232.261719 88.859375 L 235.441406 88.859375 C 236.84375 88.859375 237.976562 87.726562 237.976562 86.324219 C 237.976562 84.917969 236.84375 83.785156 235.441406 83.785156 L 232.261719 83.785156 " fill-opacity="1" fill-rule="nonzero"/><path fill="#be0157" d="M 186.636719 83.785156 C 185.234375 83.785156 184.101562 84.917969 184.101562 86.324219 C 184.101562 87.726562 185.234375 88.859375 186.636719 88.859375 L 199.316406 88.859375 C 200.71875 88.859375 201.851562 87.726562 201.851562 86.324219 C 201.851562 84.917969 200.71875 83.785156 199.316406 83.785156 L 186.636719 83.785156 " fill-opacity="1" fill-rule="nonzero"/><path fill="#be0157" d="M 163.835938 112.714844 L 214.121094 112.714844 C 215.523438 112.714844 216.65625 111.582031 216.65625 110.175781 C 216.65625 108.773438 215.523438 107.660156 214.121094 107.660156 L 163.835938 107.660156 C 162.433594 107.660156 161.300781 108.773438 161.300781 110.175781 C 161.300781 111.582031 162.433594 112.714844 163.835938 112.714844 " fill-opacity="1" fill-rule="nonzero"/><path fill="#be0157" d="M 26.65625 217.28125 L 20.6875 217.28125 C 19.28125 217.28125 18.152344 218.410156 18.152344 219.816406 C 18.152344 221.21875 19.28125 222.351562 20.6875 222.351562 L 26.65625 222.351562 C 28.058594 222.351562 29.191406 221.21875 29.191406 219.816406 C 29.191406 218.410156 28.058594 217.28125 26.65625 217.28125 " fill-opacity="1" fill-rule="nonzero"/><path fill="#be0157" d="M 50.511719 222.351562 L 56.480469 222.351562 C 57.882812 222.351562 59.015625 221.21875 59.015625 219.816406 C 59.015625 218.410156 57.882812 217.28125 56.480469 217.28125 L 50.511719 217.28125 C 49.105469 217.28125 47.996094 218.410156 47.996094 219.816406 C 47.996094 221.21875 49.105469 222.351562 50.511719 222.351562 " fill-opacity="1" fill-rule="nonzero"/><path fill="#be0157" d="M 38.59375 199.394531 C 37.1875 199.394531 36.058594 200.527344 36.058594 201.929688 L 36.058594 207.878906 C 36.058594 209.285156 37.1875 210.414062 38.59375 210.414062 C 39.976562 210.414062 41.128906 209.285156 41.128906 207.878906 L 41.128906 201.929688 C 41.128906 200.527344 39.976562 199.394531 38.59375 199.394531 " fill-opacity="1" fill-rule="nonzero"/><path fill="#be0157" d="M 38.59375 229.21875 C 37.1875 229.21875 36.058594 230.347656 36.058594 231.753906 L 36.058594 237.722656 C 36.058594 239.125 37.1875 240.257812 38.59375 240.257812 C 39.976562 240.257812 41.128906 239.125 41.128906 237.722656 L 41.128906 231.753906 C 41.128906 230.347656 39.976562 229.21875 38.59375 229.21875 " fill-opacity="1" fill-rule="nonzero"/><path fill="#be0157" d="M 319.019531 114.957031 L 324.96875 114.957031 C 326.375 114.957031 327.503906 113.824219 327.503906 112.421875 C 327.503906 111.015625 326.375 109.882812 324.96875 109.882812 L 319.019531 109.882812 C 317.617188 109.882812 316.484375 111.015625 316.484375 112.421875 C 316.484375 113.824219 317.617188 114.957031 319.019531 114.957031 " fill-opacity="1" fill-rule="nonzero"/><g clip-path="url(#e3731addc0)"><path fill="#be0157" d="M 354.8125 109.882812 L 348.84375 109.882812 C 347.4375 109.882812 346.308594 111.015625 346.308594 112.421875 C 346.308594 113.824219 347.4375 114.957031 348.84375 114.957031 L 354.8125 114.957031 C 356.214844 114.957031 357.347656 113.824219 357.347656 112.421875 C 357.347656 111.015625 356.214844 109.882812 354.8125 109.882812 " fill-opacity="1" fill-rule="nonzero"/></g><path fill="#be0157" d="M 336.90625 92 C 335.5 92 334.371094 93.109375 334.371094 94.515625 L 334.371094 100.484375 C 334.371094 101.886719 335.5 103.019531 336.90625 103.019531 C 338.3125 103.019531 339.441406 101.886719 339.441406 100.484375 L 339.441406 94.515625 C 339.441406 93.109375 338.3125 92 336.90625 92 " fill-opacity="1" fill-rule="nonzero"/><path fill="#be0157" d="M 336.90625 121.820312 C 335.5 121.820312 334.371094 122.953125 334.371094 124.359375 L 334.371094 130.328125 C 334.371094 131.730469 335.5 132.863281 336.90625 132.863281 C 338.3125 132.863281 339.441406 131.730469 339.441406 130.328125 L 339.441406 124.359375 C 339.441406 122.953125 338.3125 121.820312 336.90625 121.820312 " fill-opacity="1" fill-rule="nonzero"/><path fill="#be0157" d="M 113.570312 50.511719 C 113.570312 55.699219 109.359375 59.914062 104.167969 59.914062 C 98.980469 59.914062 94.769531 55.699219 94.769531 50.511719 C 94.769531 45.34375 98.980469 41.128906 104.167969 41.128906 C 109.359375 41.128906 113.570312 45.34375 113.570312 50.511719 Z M 116.105469 64.984375 C 121.296875 64.984375 125.507812 69.195312 125.507812 74.386719 C 125.507812 79.574219 121.296875 83.785156 116.105469 83.785156 C 116.007812 83.785156 115.929688 83.746094 115.832031 83.746094 C 112.148438 83.648438 108.988281 81.40625 107.542969 78.226562 C 107.015625 77.058594 106.707031 75.75 106.707031 74.386719 C 106.707031 69.195312 110.917969 64.984375 116.105469 64.984375 Z M 116.105469 58.683594 C 116.417969 59.132812 116.75 59.5625 117.101562 59.972656 C 116.769531 59.953125 116.4375 59.914062 116.105469 59.914062 C 115.753906 59.914062 115.445312 59.953125 115.09375 59.972656 C 115.464844 59.5625 115.792969 59.132812 116.105469 58.683594 Z M 128.023438 41.128906 C 133.214844 41.128906 137.425781 45.34375 137.425781 50.511719 C 137.425781 55.699219 133.214844 59.914062 128.023438 59.914062 C 122.855469 59.914062 118.644531 55.699219 118.644531 50.511719 C 118.644531 45.34375 122.855469 41.128906 128.023438 41.128906 Z M 103.175781 64.945312 C 103.507812 64.964844 103.839844 64.984375 104.167969 64.984375 C 104.5 64.984375 104.851562 64.964844 105.183594 64.945312 C 104.8125 65.355469 104.480469 65.765625 104.167969 66.210938 C 103.859375 65.765625 103.527344 65.355469 103.175781 64.945312 Z M 104.167969 101.691406 C 98.980469 101.691406 94.769531 97.460938 94.769531 92.289062 C 94.769531 90.90625 95.082031 89.617188 95.605469 88.429688 C 98.980469 87.628906 101.90625 85.640625 103.898438 82.910156 C 103.996094 82.910156 104.070312 82.890625 104.167969 82.890625 C 104.265625 82.890625 104.34375 82.910156 104.441406 82.910156 C 106.433594 85.640625 109.359375 87.628906 112.734375 88.429688 C 113.257812 89.617188 113.570312 90.90625 113.570312 92.289062 C 113.570312 97.460938 109.359375 101.691406 104.167969 101.691406 Z M 92.503906 83.746094 C 92.40625 83.746094 92.328125 83.785156 92.234375 83.785156 C 87.0625 83.785156 82.832031 79.574219 82.832031 74.386719 C 82.832031 69.195312 87.0625 64.984375 92.234375 64.984375 C 97.421875 64.984375 101.632812 69.195312 101.632812 74.386719 C 101.632812 75.75 101.320312 77.058594 100.796875 78.226562 C 99.351562 81.40625 96.191406 83.648438 92.503906 83.746094 Z M 80.296875 59.914062 C 75.125 59.914062 70.914062 55.699219 70.914062 50.511719 C 70.914062 45.34375 75.125 41.128906 80.296875 41.128906 C 85.484375 41.128906 89.695312 45.34375 89.695312 50.511719 C 89.695312 55.699219 85.484375 59.914062 80.296875 59.914062 Z M 92.234375 58.683594 C 92.542969 59.132812 92.875 59.5625 93.246094 59.972656 C 92.914062 59.953125 92.582031 59.914062 92.234375 59.914062 C 91.902344 59.914062 91.570312 59.953125 91.238281 59.972656 C 91.589844 59.5625 91.921875 59.132812 92.234375 58.683594 Z M 104.167969 24.121094 C 102.765625 24.121094 101.632812 25.25 101.632812 26.65625 L 101.632812 36.292969 C 97.753906 36.972656 94.398438 39.21875 92.234375 42.359375 C 89.617188 38.554688 85.25 36.058594 80.296875 36.058594 C 72.335938 36.058594 65.84375 42.53125 65.84375 50.511719 C 65.84375 58.488281 72.335938 64.984375 80.296875 64.984375 C 80.644531 64.984375 80.976562 64.964844 81.308594 64.945312 C 79.105469 67.480469 77.757812 70.777344 77.757812 74.386719 C 77.757812 81.660156 83.164062 87.6875 90.183594 88.683594 C 89.871094 89.832031 89.695312 91.042969 89.695312 92.289062 C 89.695312 100.269531 96.191406 106.746094 104.167969 106.746094 C 112.148438 106.746094 118.644531 100.269531 118.644531 92.289062 C 118.644531 91.042969 118.46875 89.832031 118.175781 88.683594 C 125.175781 87.6875 130.558594 81.660156 130.558594 74.386719 C 130.558594 70.777344 129.234375 67.480469 127.03125 64.945312 C 127.363281 64.964844 127.691406 64.984375 128.023438 64.984375 C 136.003906 64.984375 142.496094 58.488281 142.496094 50.511719 C 142.496094 42.53125 136.003906 36.058594 128.023438 36.058594 C 123.089844 36.058594 118.71875 38.554688 116.105469 42.359375 C 113.941406 39.21875 110.585938 36.972656 106.707031 36.292969 L 106.707031 26.65625 C 106.707031 25.25 105.574219 24.121094 104.167969 24.121094 " fill-opacity="1" fill-rule="nonzero"/></svg>