<svg xmlns="http://www.w3.org/2000/svg" xmlns:xlink="http://www.w3.org/1999/xlink" width="500" zoomAndPan="magnify" viewBox="0 0 375 374.999991" height="500" preserveAspectRatio="xMidYMid meet" version="1.0"><defs><clipPath id="8011269868"><path d="M 143 2 L 366.679688 2 L 366.679688 197 L 143 197 Z M 143 2 " clip-rule="nonzero"/></clipPath></defs><g clip-path="url(#8011269868)"><path fill="#be0157" d="M 283.769531 62.183594 C 267.164062 61.148438 252.628906 65.300781 242.25 69.96875 C 247.441406 37.792969 237.578125 8.730469 237.578125 8.210938 C 236.023438 3.539062 230.832031 1.460938 226.679688 3.019531 C 222.007812 4.578125 219.933594 9.765625 221.492188 13.917969 C 221.492188 13.917969 228.757812 35.714844 226.679688 61.148438 C 224.085938 88.136719 211.628906 107.859375 189.832031 121.351562 C 188.792969 121.351562 188.273438 120.832031 187.238281 120.832031 L 186.71875 120.832031 C 183.085938 120.832031 179.453125 120.832031 176.335938 121.351562 C 174.261719 121.871094 172.183594 122.390625 169.589844 123.425781 C 169.070312 123.425781 168.550781 123.945312 168.035156 123.945312 C 165.957031 124.984375 163.882812 126.023438 162.324219 127.058594 C 161.804688 127.058594 161.804688 127.578125 161.285156 127.578125 L 160.765625 128.097656 C 159.210938 129.136719 158.171875 130.175781 156.617188 131.210938 L 156.097656 131.730469 C 155.578125 132.25 155.578125 132.25 155.058594 132.769531 C 153.5 134.328125 152.464844 135.882812 150.90625 137.960938 C 150.386719 138.476562 149.867188 138.996094 149.867188 140.035156 C 148.832031 141.59375 148.3125 142.628906 147.792969 144.1875 L 147.273438 144.707031 C 147.273438 145.226562 146.753906 145.746094 146.753906 146.261719 C 144.160156 153.011719 143.121094 160.796875 144.679688 168.0625 L 144.679688 168.582031 L 145.199219 169.097656 C 152.464844 175.328125 157.652344 183.632812 160.25 192.972656 L 160.25 193.492188 L 160.765625 194.011719 C 161.804688 194.53125 162.84375 195.570312 163.882812 196.085938 L 164.917969 196.605469 L 165.957031 196.085938 C 171.667969 192.453125 177.375 189.339844 184.121094 188.300781 L 184.121094 186.746094 L 185.160156 188.300781 C 186.71875 187.785156 188.273438 187.785156 190.351562 187.785156 L 190.871094 187.785156 C 192.425781 187.785156 193.984375 187.785156 195.539062 187.785156 C 199.171875 187.785156 202.804688 188.300781 206.441406 188.820312 L 207.996094 188.820312 L 208.515625 187.785156 C 211.628906 178.960938 217.339844 171.695312 224.605469 166.503906 L 225.125 165.984375 L 225.125 165.464844 C 225.640625 161.832031 225.125 157.679688 224.605469 154.566406 C 222.527344 144.707031 216.820312 136.921875 209.554688 131.210938 C 222.527344 120.832031 230.832031 108.894531 236.542969 96.441406 C 240.175781 93.324219 258.859375 79.832031 284.289062 81.386719 C 302.972656 82.945312 321.65625 92.289062 338.785156 109.933594 C 318.542969 118.238281 274.429688 131.730469 260.933594 107.339844 C 258.859375 103.1875 253.148438 101.628906 248.996094 103.707031 C 244.84375 106.300781 243.289062 111.492188 245.363281 115.640625 C 254.707031 132.769531 271.832031 138.476562 290 138.476562 C 321.136719 138.476562 354.875 121.871094 356.949219 120.832031 L 366.808594 115.640625 L 359.542969 107.339844 C 335.671875 78.273438 310.238281 63.742188 283.769531 62.183594 Z M 283.769531 62.183594 " fill-opacity="1" fill-rule="nonzero"/></g><path fill="#be0157" d="M 150.386719 197.125 C 148.3125 188.300781 143.640625 181.035156 136.375 174.808594 L 135.855469 174.289062 C 134.816406 173.25 133.261719 172.734375 132.222656 171.695312 C 125.476562 167.542969 118.210938 165.464844 110.425781 165.464844 L 109.90625 165.464844 C 107.308594 165.464844 104.714844 165.984375 102.640625 166.503906 C 101.082031 167.023438 99.007812 167.542969 96.929688 168.0625 L 95.890625 168.582031 C 82.398438 173.769531 73.054688 186.226562 70.460938 200.757812 L 70.460938 201.277344 C 70.460938 203.351562 69.941406 204.910156 69.941406 206.988281 C 69.941406 209.582031 70.460938 212.175781 70.980469 214.253906 C 71.5 215.808594 71.5 216.847656 72.019531 218.40625 C 75.132812 228.265625 82.398438 236.050781 91.222656 241.242188 C 91.222656 241.242188 91.742188 241.242188 91.742188 241.757812 L 92.257812 242.277344 C 95.890625 243.835938 99.527344 245.390625 103.675781 245.910156 L 104.195312 245.910156 C 106.273438 246.429688 108.867188 246.429688 110.945312 246.429688 C 113.539062 246.429688 116.132812 245.910156 118.726562 245.390625 C 124.4375 244.355469 129.628906 241.757812 134.296875 238.125 L 134.816406 237.605469 C 138.449219 235.011719 141.5625 231.898438 143.640625 227.746094 C 147.273438 222.554688 149.347656 216.328125 149.867188 210.101562 C 149.867188 209.582031 149.867188 209.582031 150.386719 209.0625 C 150.90625 204.910156 150.386719 201.277344 149.867188 197.644531 Z M 109.90625 167.542969 Z M 109.90625 167.542969 " fill-opacity="1" fill-rule="nonzero"/><path fill="#be0157" d="M 12.332031 252.660156 C 14.410156 262 20.117188 270.304688 28.421875 276.011719 C 31.015625 277.570312 33.613281 278.609375 37.246094 280.164062 C 39.839844 281.203125 42.433594 281.722656 45.550781 281.722656 L 46.070312 281.722656 C 46.585938 281.722656 47.105469 281.722656 47.625 281.722656 C 48.144531 281.722656 48.144531 281.722656 48.664062 281.722656 C 49.183594 281.722656 49.703125 281.722656 50.21875 281.722656 C 51.777344 281.722656 53.851562 281.722656 56.449219 281.203125 C 58.003906 280.683594 59.042969 280.683594 61.121094 279.644531 C 61.636719 279.128906 62.675781 279.128906 63.195312 278.609375 C 63.714844 278.609375 64.234375 278.089844 64.753906 278.089844 C 66.828125 277.050781 68.90625 275.496094 70.980469 273.9375 L 71.5 273.417969 C 78.765625 267.710938 83.4375 258.886719 84.992188 249.542969 L 84.992188 248.507812 L 83.957031 247.988281 C 75.652344 242.796875 69.421875 235.011719 65.269531 226.191406 L 63.714844 226.707031 L 65.269531 225.671875 C 64.753906 224.632812 64.234375 223.074219 63.714844 222.039062 L 63.195312 221.519531 C 62.675781 219.960938 62.15625 218.40625 62.15625 216.847656 C 61.636719 215.289062 61.636719 213.214844 61.121094 211.65625 L 61.121094 210.621094 L 60.082031 210.101562 C 53.851562 208.023438 47.105469 207.503906 40.878906 208.542969 C 21.15625 213.214844 8.179688 232.9375 12.332031 252.660156 Z M 63.714844 226.707031 Z M 63.714844 226.707031 " fill-opacity="1" fill-rule="nonzero"/><path fill="#be0157" d="M 207.476562 198.683594 C 202.289062 196.605469 196.578125 196.085938 190.871094 196.085938 L 190.351562 196.085938 C 188.273438 196.085938 186.71875 196.605469 184.640625 196.605469 C 182.566406 197.125 180.488281 197.644531 178.933594 198.164062 C 177.894531 198.683594 176.855469 198.683594 176.335938 199.203125 C 175.820312 199.203125 175.820312 199.71875 175.300781 199.71875 L 174.78125 200.238281 C 172.183594 201.796875 169.589844 203.351562 167.515625 204.910156 L 166.996094 205.429688 C 164.402344 207.503906 162.324219 210.101562 160.765625 212.175781 L 160.25 212.695312 C 159.210938 219.441406 157.132812 226.1875 152.984375 231.898438 L 152.984375 232.417969 C 152.464844 236.570312 152.984375 240.203125 153.5 243.835938 C 154.019531 245.910156 154.539062 247.988281 155.578125 250.582031 L 155.578125 251.101562 C 155.578125 251.621094 156.097656 252.140625 156.097656 252.140625 C 157.132812 253.695312 157.652344 255.773438 159.210938 257.328125 C 159.730469 258.367188 160.25 258.886719 160.765625 259.925781 C 161.285156 260.960938 162.324219 262 162.84375 262.519531 C 163.882812 263.558594 164.917969 265.113281 166.476562 266.152344 C 167.515625 266.671875 168.035156 267.710938 169.070312 268.226562 C 171.667969 269.785156 173.742188 271.34375 176.335938 272.378906 L 176.855469 272.378906 C 182.046875 274.457031 187.238281 275.496094 192.945312 275.496094 C 195.539062 275.496094 198.65625 274.976562 201.25 274.457031 C 217.855469 270.824219 230.832031 256.808594 232.910156 239.683594 L 232.910156 239.164062 C 233.425781 234.492188 233.425781 230.339844 232.390625 226.707031 C 231.871094 224.632812 231.351562 222.554688 230.3125 219.960938 C 230.3125 219.441406 229.792969 218.921875 229.792969 218.40625 C 228.757812 216.328125 227.71875 214.253906 226.679688 212.695312 C 226.679688 212.175781 226.160156 212.175781 225.640625 211.65625 L 225.125 211.136719 C 224.085938 210.101562 223.046875 208.542969 222.007812 207.503906 L 221.492188 206.988281 C 220.972656 206.46875 220.453125 205.949219 219.933594 205.429688 C 218.375 203.871094 216.820312 202.835938 215.261719 201.796875 C 213.707031 201.277344 211.109375 200.238281 207.476562 198.683594 Z M 190.871094 197.644531 Z M 190.871094 197.644531 " fill-opacity="1" fill-rule="nonzero"/><path fill="#be0157" d="M 146.753906 253.695312 C 146.234375 252.660156 146.234375 251.621094 145.714844 250.582031 L 145.199219 249.027344 L 144.160156 248.507812 C 142.601562 247.988281 141.5625 247.46875 140.007812 247.46875 L 139.488281 247.46875 L 138.96875 247.988281 C 134.816406 250.582031 130.664062 252.660156 125.996094 254.214844 L 124.957031 254.734375 C 123.917969 255.253906 122.878906 255.253906 121.84375 255.773438 C 119.765625 256.292969 117.171875 256.292969 114.578125 256.808594 L 113.019531 256.808594 C 110.945312 256.808594 108.867188 256.808594 106.273438 256.808594 L 105.753906 256.808594 L 105.234375 257.328125 C 96.929688 264.59375 92.257812 274.457031 91.222656 285.355469 L 91.222656 285.875 C 91.222656 289.507812 91.222656 293.140625 91.742188 296.253906 C 92.257812 297.8125 92.777344 299.886719 93.296875 301.445312 L 93.816406 302.480469 C 95.890625 308.191406 99.527344 313.382812 104.195312 317.535156 L 104.714844 318.050781 C 111.980469 324.800781 121.84375 328.433594 131.703125 328.433594 C 134.296875 328.433594 137.414062 327.914062 140.007812 327.394531 C 160.25 323.242188 174.261719 303.519531 171.667969 282.761719 L 171.148438 281.722656 L 169.070312 280.683594 C 168.550781 280.164062 167.515625 279.648438 166.996094 279.648438 C 157.652344 272.898438 150.90625 264.59375 147.273438 255.253906 Z M 146.753906 253.695312 " fill-opacity="1" fill-rule="nonzero"/><path fill="#be0157" d="M 41.398438 346.078125 C 47.105469 349.710938 53.851562 351.789062 60.601562 351.789062 C 63.195312 351.789062 65.789062 351.789062 67.867188 350.75 C 81.878906 347.636719 92.257812 336.738281 95.375 323.242188 L 95.375 322.203125 L 94.855469 321.683594 C 90.183594 316.496094 86.550781 310.785156 83.957031 304.558594 L 83.4375 303.519531 C 82.917969 301.445312 81.878906 299.367188 81.878906 297.292969 C 81.359375 295.734375 81.359375 293.660156 80.839844 291.582031 C 80.839844 290.546875 80.839844 290.027344 80.839844 288.988281 L 80.839844 287.429688 L 80.324219 286.914062 C 78.765625 285.875 77.207031 284.835938 75.132812 283.796875 L 74.613281 283.28125 L 74.09375 283.796875 C 73.054688 284.316406 72.019531 284.835938 71.5 285.355469 C 69.941406 286.394531 68.386719 286.914062 66.828125 287.949219 C 66.828125 287.949219 66.308594 287.949219 66.308594 287.949219 L 65.789062 287.949219 C 63.195312 288.988281 61.121094 289.507812 59.042969 290.027344 C 52.816406 291.582031 46.070312 291.582031 38.800781 289.507812 L 37.765625 289.507812 L 37.246094 290.027344 C 28.421875 298.847656 24.269531 310.785156 26.867188 323.242188 C 27.902344 332.585938 33.613281 340.886719 41.398438 346.078125 Z M 41.398438 346.078125 " fill-opacity="1" fill-rule="nonzero"/><path fill="#be0157" d="M 229.792969 202.316406 C 230.832031 203.351562 231.871094 204.910156 232.910156 205.949219 L 233.425781 206.46875 C 234.464844 207.503906 234.984375 209.0625 236.023438 210.101562 L 236.542969 210.621094 C 237.058594 211.65625 238.097656 213.214844 238.617188 214.253906 L 239.136719 215.289062 C 239.65625 216.328125 240.175781 217.886719 240.695312 218.921875 L 241.210938 219.960938 C 241.730469 221.519531 242.25 223.59375 242.769531 225.152344 C 243.289062 228.265625 243.808594 231.378906 243.808594 235.011719 L 243.808594 236.570312 L 245.363281 236.570312 C 246.921875 236.570312 248.476562 237.089844 250.554688 237.089844 C 253.148438 237.089844 255.226562 237.089844 257.300781 236.570312 C 266.644531 234.492188 274.429688 229.304688 280.136719 221 C 285.328125 213.214844 286.882812 203.351562 285.328125 194.011719 C 283.25 184.667969 278.0625 176.882812 269.757812 171.175781 C 261.972656 165.984375 252.113281 163.910156 242.769531 165.984375 C 239.136719 167.023438 234.984375 168.0625 231.351562 170.65625 L 230.832031 170.65625 C 224.605469 174.289062 219.933594 180 217.339844 186.226562 L 216.820312 187.265625 C 216.820312 187.785156 216.820312 187.785156 216.300781 188.300781 C 216.300781 188.300781 216.300781 188.820312 216.300781 188.820312 L 215.78125 190.378906 L 216.820312 190.898438 C 218.375 191.417969 219.414062 192.453125 220.972656 193.492188 C 224.085938 196.605469 226.679688 199.203125 229.792969 202.316406 L 230.832031 200.757812 Z M 229.792969 202.316406 " fill-opacity="1" fill-rule="nonzero"/><path fill="#be0157" d="M 63.195312 191.417969 L 64.234375 188.820312 C 68.386719 176.882812 77.207031 167.023438 88.625 161.316406 L 89.144531 160.796875 C 90.703125 160.277344 92.257812 159.238281 93.816406 158.71875 L 94.855469 158.199219 C 96.929688 157.679688 98.488281 157.164062 100.5625 156.644531 L 102.121094 156.644531 L 102.121094 156.125 C 103.675781 155.605469 105.234375 155.605469 107.308594 155.605469 L 108.867188 155.605469 C 110.945312 155.605469 112.5 155.605469 114.578125 155.605469 L 114.578125 154.046875 L 115.09375 155.605469 C 119.765625 156.125 123.917969 156.644531 128.589844 158.199219 L 131.183594 159.238281 L 131.183594 156.644531 C 131.183594 155.085938 130.664062 153.53125 130.664062 151.972656 C 129.628906 147.820312 128.070312 143.667969 125.996094 139.515625 C 125.476562 138.996094 125.476562 138.476562 124.957031 137.960938 L 124.4375 137.441406 C 123.917969 136.402344 123.398438 135.882812 122.363281 134.84375 C 117.171875 128.617188 109.90625 123.945312 102.121094 121.351562 L 100.5625 122.390625 C 93.296875 120.3125 87.589844 120.3125 81.359375 121.871094 C 70.980469 123.945312 61.636719 130.175781 55.929688 139.515625 C 50.21875 148.859375 48.144531 159.238281 50.21875 170.136719 C 51.777344 177.921875 55.410156 184.667969 61.121094 190.378906 Z M 63.195312 191.417969 " fill-opacity="1" fill-rule="nonzero"/><path fill="#be0157" d="M 148.832031 124.984375 L 149.347656 124.464844 C 150.386719 123.425781 151.425781 122.390625 152.984375 121.351562 L 153.5 120.832031 C 154.539062 119.792969 156.097656 119.277344 157.132812 118.238281 L 158.171875 117.71875 C 159.210938 117.199219 160.765625 116.160156 161.804688 115.640625 L 162.84375 115.125 C 163.882812 114.605469 165.4375 114.085938 166.996094 113.566406 L 168.035156 113.046875 C 170.109375 112.527344 171.667969 112.007812 173.222656 111.492188 C 175.820312 110.972656 177.894531 110.453125 181.007812 110.453125 L 182.046875 110.453125 L 182.566406 109.414062 C 184.121094 103.1875 184.640625 96.957031 183.085938 90.730469 C 178.414062 68.933594 157.132812 54.917969 135.335938 59.589844 C 113.539062 64.261719 99.527344 85.539062 104.195312 107.339844 C 104.714844 108.894531 105.234375 110.972656 105.753906 112.527344 L 106.273438 113.046875 L 106.792969 113.046875 C 117.171875 116.679688 125.996094 123.945312 132.222656 132.769531 C 132.742188 133.808594 133.78125 135.363281 134.296875 136.402344 L 134.296875 137.441406 L 135.335938 137.960938 C 135.855469 137.960938 136.375 137.960938 137.414062 138.476562 L 138.449219 138.476562 L 138.96875 137.441406 C 140.007812 135.882812 140.527344 134.328125 141.5625 132.769531 C 142.601562 131.210938 143.640625 129.65625 145.199219 127.578125 C 146.234375 127.578125 147.792969 126.023438 148.832031 124.984375 Z M 148.832031 124.984375 " fill-opacity="1" fill-rule="nonzero"/></svg>