<svg xmlns="http://www.w3.org/2000/svg" xmlns:xlink="http://www.w3.org/1999/xlink" width="500" zoomAndPan="magnify" viewBox="0 0 375 374.999991" height="500" preserveAspectRatio="xMidYMid meet" version="1.0"><defs><clipPath id="719700b0aa"><path d="M 0 10.078125 L 375 10.078125 L 375 364.828125 L 0 364.828125 Z M 0 10.078125 " clip-rule="nonzero"/></clipPath></defs><path fill="#be0157" d="M 103.066406 232.46875 C 102.515625 232.117188 102.1875 231.523438 102.1875 230.867188 L 102.1875 216.417969 L 102.195312 216.417969 L 102.195312 186.851562 C 102.195312 183.621094 99.585938 181 96.375 181 L 84.390625 181 C 81.179688 181 78.566406 183.621094 78.566406 186.847656 L 78.566406 230.867188 C 78.566406 231.523438 78.238281 232.117188 77.695312 232.46875 C 70.824219 236.871094 66.71875 244.375 66.71875 252.542969 L 66.71875 342.1875 C 66.71875 347.242188 70.8125 351.355469 75.847656 351.355469 L 104.910156 351.355469 C 109.941406 351.355469 114.042969 347.242188 114.042969 342.1875 L 114.042969 252.542969 C 114.042969 244.375 109.9375 236.871094 103.066406 232.46875 Z M 85.269531 187.695312 L 95.492188 187.695312 L 95.492188 209.722656 L 85.269531 209.722656 Z M 73.414062 276.472656 L 85.726562 276.472656 L 85.726562 308.652344 L 73.414062 308.652344 Z M 107.347656 342.1875 C 107.347656 343.546875 106.253906 344.660156 104.910156 344.660156 L 75.847656 344.660156 C 74.507812 344.660156 73.414062 343.546875 73.414062 342.1875 L 73.414062 315.347656 L 89.074219 315.347656 C 90.921875 315.347656 92.421875 313.851562 92.421875 312 L 92.421875 273.125 C 92.421875 271.273438 90.921875 269.777344 89.074219 269.777344 L 73.414062 269.777344 L 73.414062 252.542969 C 73.414062 246.664062 76.363281 241.269531 81.304688 238.105469 C 83.785156 236.523438 85.261719 233.816406 85.261719 230.867188 L 85.261719 216.417969 L 95.492188 216.417969 L 95.492188 230.867188 C 95.492188 233.816406 96.976562 236.523438 99.457031 238.105469 C 104.398438 241.269531 107.347656 246.664062 107.347656 252.542969 Z M 107.347656 342.1875 " fill-opacity="1" fill-rule="nonzero"/><g clip-path="url(#719700b0aa)"><path fill="#be0157" d="M 374.8125 131.429688 L 337.992188 12.4375 C 337.558594 11.03125 336.257812 10.078125 334.792969 10.078125 L 40.207031 10.078125 C 38.742188 10.078125 37.441406 11.03125 37.007812 12.4375 L 0.1875 131.429688 C 0.0859375 131.75 0.0351562 132.082031 0.0351562 132.414062 C 0.0351562 145.613281 5.144531 157.597656 13.417969 166.546875 L 13.417969 361.554688 C 13.417969 363.40625 14.917969 364.902344 16.765625 364.902344 L 243.597656 364.902344 C 243.632812 364.902344 243.660156 364.921875 243.695312 364.921875 L 323.757812 364.921875 C 323.792969 364.921875 323.820312 364.902344 323.855469 364.902344 L 358.207031 364.902344 C 360.058594 364.902344 361.554688 363.40625 361.554688 361.554688 L 361.554688 166.574219 C 369.84375 157.625 374.964844 145.625 374.964844 132.414062 C 374.964844 132.082031 374.914062 131.75 374.8125 131.429688 Z M 332.320312 16.773438 L 367.078125 129.066406 L 282.417969 129.066406 L 264.460938 16.773438 Z M 190.847656 16.773438 L 257.675781 16.773438 L 275.628906 129.066406 L 190.847656 129.066406 Z M 276.042969 135.761719 C 274.351562 158.089844 255.953125 175.738281 233.527344 175.738281 C 211.105469 175.738281 192.707031 158.089844 191.015625 135.761719 Z M 184.152344 16.773438 L 184.152344 129.066406 L 99.332031 129.066406 L 117.285156 16.773438 Z M 183.984375 135.761719 C 182.292969 158.089844 163.894531 175.738281 141.472656 175.738281 C 119.046875 175.738281 100.648438 158.089844 98.957031 135.761719 Z M 42.679688 16.773438 L 110.5 16.773438 L 92.542969 129.066406 L 7.921875 129.066406 Z M 6.902344 135.761719 L 91.925781 135.761719 C 90.234375 158.089844 71.835938 175.738281 49.414062 175.738281 C 26.988281 175.738281 8.601562 158.089844 6.902344 135.761719 Z M 320.410156 358.207031 L 247.042969 358.207031 L 247.042969 228.859375 L 320.410156 228.859375 Z M 354.859375 358.207031 L 327.105469 358.207031 L 327.105469 225.511719 C 327.105469 223.664062 325.605469 222.164062 323.757812 222.164062 L 243.695312 222.164062 C 241.847656 222.164062 240.347656 223.664062 240.347656 225.511719 L 240.347656 358.207031 L 20.113281 358.207031 L 20.113281 172.582031 C 28.320312 178.742188 38.4375 182.433594 49.414062 182.433594 C 70.335938 182.433594 88.261719 169.179688 95.441406 150.527344 C 102.621094 169.179688 120.546875 182.433594 141.472656 182.433594 C 162.394531 182.433594 180.320312 169.179688 187.5 150.527344 C 194.679688 169.179688 212.605469 182.433594 233.527344 182.433594 C 254.453125 182.433594 272.378906 169.179688 279.558594 150.527344 C 286.738281 169.179688 304.664062 182.433594 325.585938 182.433594 C 336.550781 182.433594 346.65625 178.75 354.859375 172.601562 Z M 325.585938 175.738281 C 303.164062 175.738281 284.765625 158.089844 283.074219 135.761719 L 368.097656 135.761719 C 366.398438 158.089844 348.011719 175.738281 325.585938 175.738281 Z M 325.585938 175.738281 " fill-opacity="1" fill-rule="nonzero"/></g><path fill="#be0157" d="M 171.15625 220.773438 C 170.925781 219.117188 169.507812 217.890625 167.839844 217.890625 L 133.171875 217.890625 C 131.507812 217.890625 130.085938 219.117188 129.859375 220.773438 L 123.613281 265.480469 C 122.476562 273.609375 124.890625 281.789062 130.226562 287.921875 C 134.617188 292.972656 140.675781 296.035156 147.160156 296.867188 L 147.160156 342.671875 L 140.269531 342.671875 C 138.417969 342.671875 136.921875 344.167969 136.921875 346.019531 C 136.921875 347.871094 138.417969 349.367188 140.269531 349.367188 L 160.765625 349.367188 C 162.617188 349.367188 164.113281 347.871094 164.113281 346.019531 C 164.113281 344.167969 162.617188 342.671875 160.765625 342.671875 L 153.855469 342.671875 L 153.855469 296.867188 C 160.339844 296.035156 166.398438 292.972656 170.789062 287.921875 C 176.125 281.789062 178.535156 273.609375 177.398438 265.480469 Z M 136.082031 224.585938 L 164.929688 224.585938 L 167.933594 246.109375 L 133.078125 246.109375 Z M 165.742188 283.527344 C 161.863281 287.980469 156.3125 290.535156 150.507812 290.535156 C 144.699219 290.535156 139.148438 287.980469 135.273438 283.527344 C 131.210938 278.859375 129.375 272.613281 130.246094 266.410156 L 132.144531 252.804688 L 168.871094 252.804688 L 170.769531 266.410156 C 171.636719 272.613281 169.800781 278.851562 165.742188 283.527344 Z M 165.742188 283.527344 " fill-opacity="1" fill-rule="nonzero"/><path fill="#be0157" d="M 259.054688 306.582031 C 260.90625 306.582031 262.402344 305.082031 262.402344 303.234375 L 262.402344 293.054688 C 262.402344 291.203125 260.90625 289.707031 259.054688 289.707031 C 257.203125 289.707031 255.707031 291.203125 255.707031 293.054688 L 255.707031 303.234375 C 255.707031 305.082031 257.203125 306.582031 259.054688 306.582031 Z M 259.054688 306.582031 " fill-opacity="1" fill-rule="nonzero"/></svg>