<svg xmlns="http://www.w3.org/2000/svg" xmlns:xlink="http://www.w3.org/1999/xlink" width="500" zoomAndPan="magnify" viewBox="0 0 375 374.999991" height="500" preserveAspectRatio="xMidYMid meet" version="1.0"><defs><clipPath id="e441a94daf"><path d="M 161 131.34375 L 216 131.34375 L 216 132 L 161 132 Z M 161 131.34375 " clip-rule="nonzero"/></clipPath><clipPath id="e09c4e61d6"><path d="M 25.007812 134 L 349.757812 134 L 349.757812 375 L 25.007812 375 Z M 25.007812 134 " clip-rule="nonzero"/></clipPath><clipPath id="2c25f1ece4"><path d="M 154.636719 0 L 220.554688 0 L 220.554688 141 L 154.636719 141 Z M 154.636719 0 " clip-rule="nonzero"/></clipPath></defs><g clip-path="url(#e441a94daf)"><path fill="#000000" d="M 171.976562 94.183594 L 174.417969 94.183594 C 179.359375 95.003906 182.332031 97.601562 186.003906 100.679688 C 187.515625 101.949219 189.464844 102.117188 190.976562 100.855469 C 194.792969 97.652344 199.074219 94.496094 203.96875 94.804688 C 211.097656 95.257812 217.234375 101.878906 215.417969 109.253906 C 214.4375 113.226562 211.75 115.730469 208.183594 117.914062 C 203.355469 120.871094 198.59375 123.929688 193.894531 127.089844 C 192.066406 128.320312 190.472656 129.8125 188.882812 131.296875 C 188.789062 131.382812 188.679688 131.425781 188.554688 131.421875 C 188.429688 131.421875 188.320312 131.375 188.230469 131.285156 C 186.0625 129.152344 183.671875 127.226562 181.054688 125.511719 C 176.367188 122.4375 171.707031 119.324219 167.070312 116.171875 C 157.183594 109.453125 160.492188 96.3125 171.976562 94.183594 Z M 171.976562 94.183594 " fill-opacity="1" fill-rule="nonzero"/></g><g clip-path="url(#e09c4e61d6)"><path fill="#000000" d="M 352.265625 241.125 L 352.265625 305.332031 C 351.910156 306.828125 351.039062 307.949219 349.660156 308.691406 C 336.132812 315.984375 322.597656 323.257812 309.058594 330.523438 C 308.277344 330.945312 307.699219 331.257812 307.121094 331.992188 C 305.394531 334.183594 303.65625 336.363281 301.910156 338.527344 C 286.085938 358.105469 266.054688 371.433594 241.8125 378.511719 C 241.570312 378.582031 241.445312 378.746094 241.445312 379.003906 C 241.441406 398.1875 241.441406 417.417969 241.445312 436.691406 C 241.445312 439.078125 241.222656 440.90625 240.777344 442.164062 C 239.652344 445.375 237.464844 447.632812 234.21875 448.945312 C 233.261719 449.328125 232.074219 449.523438 230.664062 449.523438 C 202.484375 449.511719 174.296875 449.515625 146.101562 449.527344 C 141.214844 449.527344 137.375 447.199219 135.675781 442.546875 C 135.242188 441.355469 135.023438 439.679688 135.023438 437.523438 C 135.023438 417.964844 135.023438 398.460938 135.023438 379.007812 C 135.023438 378.742188 134.898438 378.570312 134.644531 378.496094 C 107.980469 370.398438 86.507812 355.207031 70.226562 332.917969 C 69.121094 331.410156 68.0625 330.386719 67.046875 329.855469 C 48.054688 319.929688 34.496094 312.695312 26.375 308.148438 C 25.480469 307.652344 24.921875 306.605469 24.695312 305.007812 L 24.695312 241.289062 C 25.097656 239.625 25.765625 238.652344 27.347656 237.796875 C 40.335938 230.808594 53.234375 223.800781 66.050781 216.777344 C 66.441406 216.566406 66.722656 216.25 66.898438 215.835938 C 79.390625 186.128906 100.453125 162.207031 129.511719 147.96875 C 143.8125 140.960938 158.972656 136.671875 174.992188 135.097656 C 201.671875 132.476562 226.714844 137.226562 250.117188 149.347656 C 276.109375 162.804688 296.378906 185.246094 308.105469 211.9375 C 308.953125 213.867188 309.550781 215.246094 309.898438 216.070312 C 309.960938 216.226562 310.070312 216.34375 310.222656 216.421875 C 322.640625 223.234375 335.070312 230.015625 347.511719 236.773438 C 350.148438 238.203125 351.558594 238.652344 352.265625 241.125 Z M 199.175781 245.378906 C 198.871094 245.75 198.480469 245.933594 198.003906 245.933594 L 178.757812 245.917969 C 178.242188 245.917969 177.828125 245.71875 177.507812 245.316406 C 172.570312 239.121094 167.648438 233.015625 162.734375 227.003906 C 162.199219 226.34375 161.628906 226.015625 161.019531 226.015625 C 148.84375 226.023438 136.664062 226.035156 124.488281 226.058594 C 107.136719 226.09375 92.421875 241.164062 89.125 257.542969 C 88.683594 259.738281 88.460938 262.757812 88.453125 266.601562 C 88.4375 278.5625 88.433594 290.523438 88.445312 302.484375 C 88.453125 306.636719 88.671875 309.886719 89.113281 312.230469 C 90.292969 318.5625 92.691406 324.375 96.316406 329.664062 C 103.519531 340.191406 116.179688 348.082031 129.269531 348.078125 C 168.519531 348.070312 207.765625 348.0625 247.011719 348.0625 C 250.101562 348.0625 252.921875 347.902344 255.550781 347.207031 C 272.585938 342.695312 285.066406 329.082031 287.949219 311.765625 C 288.324219 309.519531 288.511719 306.265625 288.511719 301.996094 C 288.515625 289.546875 288.515625 277.09375 288.515625 264.640625 C 288.515625 245.15625 272.367188 226.050781 252.351562 226.039062 C 240.035156 226.03125 227.84375 226.023438 215.769531 226.019531 C 215.21875 226.015625 214.773438 226.226562 214.425781 226.652344 Z M 188.394531 396.46875 C 185.136719 392.347656 182.269531 388.371094 176.972656 386.863281 C 173.152344 385.773438 169.058594 386.636719 165.894531 388.941406 C 158.058594 394.652344 158.125 404.128906 163.855469 411.296875 C 167.757812 416.183594 172.21875 421.53125 177.230469 427.34375 C 179.464844 429.929688 181.261719 431.609375 182.621094 432.386719 C 185.679688 434.140625 188.996094 434.371094 192.570312 433.085938 C 195.457031 432.046875 197.011719 430.1875 199.039062 427.84375 C 202.53125 423.8125 205.992188 419.757812 209.429688 415.679688 C 212.945312 411.507812 216.425781 406.921875 216.894531 401.722656 C 217.515625 394.875 213.230469 388.683594 206.550781 386.855469 C 205.117188 386.460938 203.828125 386.316406 202.691406 386.421875 C 196.484375 386.984375 192.167969 391.339844 188.820312 396.449219 C 188.683594 396.652344 188.542969 396.660156 188.394531 396.46875 Z M 188.394531 396.46875 " fill-opacity="1" fill-rule="nonzero"/></g><path fill="#000000" d="M 127.800781 306.035156 C 127.121094 305.972656 126.445312 305.875 125.777344 305.742188 C 125.105469 305.609375 124.445312 305.445312 123.789062 305.25 C 123.136719 305.050781 122.492188 304.820312 121.859375 304.558594 C 121.230469 304.296875 120.613281 304.003906 120.007812 303.683594 C 119.40625 303.359375 118.820312 303.007812 118.25 302.625 C 117.683594 302.242188 117.132812 301.832031 116.605469 301.398438 C 116.074219 300.960938 115.570312 300.5 115.085938 300.011719 C 114.601562 299.523438 114.140625 299.015625 113.707031 298.480469 C 113.273438 297.949219 112.863281 297.394531 112.484375 296.820312 C 112.101562 296.246094 111.75 295.65625 111.425781 295.046875 C 111.101562 294.4375 110.808594 293.8125 110.546875 293.175781 C 110.285156 292.535156 110.050781 291.886719 109.851562 291.222656 C 109.652344 290.5625 109.484375 289.890625 109.351562 289.210938 C 109.214844 288.535156 109.113281 287.851562 109.046875 287.160156 C 108.976562 286.472656 108.941406 285.78125 108.941406 285.089844 C 108.9375 284.394531 108.96875 283.703125 109.035156 283.015625 C 109.101562 282.324219 109.199219 281.640625 109.328125 280.960938 C 109.460938 280.28125 109.625 279.609375 109.820312 278.945312 C 110.019531 278.28125 110.246094 277.628906 110.507812 276.984375 C 110.765625 276.34375 111.058594 275.71875 111.378906 275.105469 C 111.699219 274.492188 112.046875 273.898438 112.425781 273.320312 C 112.804688 272.742188 113.207031 272.183594 113.640625 271.644531 C 114.070312 271.109375 114.527344 270.59375 115.011719 270.101562 C 115.492188 269.609375 115.996094 269.140625 116.523438 268.699219 C 117.050781 268.257812 117.597656 267.839844 118.164062 267.453125 C 118.730469 267.066406 119.316406 266.707031 119.917969 266.375 C 120.519531 266.046875 121.132812 265.746094 121.765625 265.480469 C 122.394531 265.210938 123.035156 264.972656 123.6875 264.769531 C 124.34375 264.566406 125.003906 264.394531 125.671875 264.253906 C 126.34375 264.117188 127.015625 264.011719 127.695312 263.9375 C 128.375 263.867188 129.058594 263.828125 129.742188 263.824219 C 130.421875 263.824219 131.105469 263.851562 131.785156 263.917969 C 132.464844 263.980469 133.140625 264.078125 133.808594 264.210938 C 134.480469 264.34375 135.140625 264.507812 135.796875 264.703125 C 136.449219 264.902344 137.09375 265.132812 137.726562 265.394531 C 138.355469 265.65625 138.972656 265.945312 139.578125 266.269531 C 140.179688 266.59375 140.765625 266.945312 141.335938 267.328125 C 141.902344 267.710938 142.453125 268.117188 142.980469 268.554688 C 143.511719 268.992188 144.015625 269.453125 144.5 269.941406 C 144.984375 270.429688 145.445312 270.9375 145.878906 271.472656 C 146.3125 272.003906 146.722656 272.558594 147.101562 273.132812 C 147.484375 273.707031 147.835938 274.296875 148.160156 274.90625 C 148.484375 275.515625 148.777344 276.140625 149.039062 276.777344 C 149.300781 277.417969 149.53125 278.066406 149.734375 278.730469 C 149.933594 279.390625 150.101562 280.0625 150.234375 280.738281 C 150.371094 281.417969 150.472656 282.101562 150.539062 282.792969 C 150.609375 283.480469 150.644531 284.171875 150.644531 284.863281 C 150.648438 285.554688 150.617188 286.246094 150.550781 286.9375 C 150.484375 287.628906 150.386719 288.3125 150.253906 288.992188 C 150.125 289.671875 149.960938 290.34375 149.761719 291.007812 C 149.566406 291.671875 149.339844 292.324219 149.078125 292.964844 C 148.820312 293.609375 148.527344 294.234375 148.207031 294.847656 C 147.886719 295.460938 147.539062 296.054688 147.160156 296.632812 C 146.78125 297.210938 146.378906 297.769531 145.945312 298.308594 C 145.515625 298.84375 145.058594 299.359375 144.574219 299.851562 C 144.09375 300.34375 143.589844 300.8125 143.0625 301.253906 C 142.535156 301.695312 141.988281 302.113281 141.421875 302.5 C 140.855469 302.886719 140.269531 303.246094 139.667969 303.578125 C 139.066406 303.90625 138.453125 304.207031 137.820312 304.472656 C 137.191406 304.742188 136.550781 304.980469 135.898438 305.183594 C 135.242188 305.386719 134.582031 305.558594 133.914062 305.699219 C 133.242188 305.835938 132.570312 305.941406 131.890625 306.015625 C 131.210938 306.085938 130.527344 306.121094 129.84375 306.125 C 129.164062 306.128906 128.480469 306.101562 127.800781 306.035156 Z M 127.800781 306.035156 " fill-opacity="1" fill-rule="nonzero"/><path fill="#000000" d="M 261.355469 269.445312 C 267.648438 275.089844 270.144531 284.855469 266.824219 292.832031 C 262.765625 302.566406 252.621094 308.101562 242.246094 305.550781 C 231.308594 302.871094 224.386719 291.882812 226.71875 280.671875 C 227.683594 276.03125 229.933594 272.171875 233.460938 269.101562 C 241.890625 261.765625 253.082031 262.023438 261.355469 269.445312 Z M 261.355469 269.445312 " fill-opacity="1" fill-rule="nonzero"/><path fill="#000000" d="M 167.277344 313.265625 C 174.097656 317.597656 181.320312 319.871094 189.578125 319.589844 C 197.027344 319.328125 203.984375 316.933594 210.449219 312.402344 C 210.847656 312.121094 211.417969 312.058594 212.15625 312.21875 C 214.957031 312.804688 214.90625 315.5625 212.835938 317.03125 C 207.375 320.898438 201.53125 323.339844 195.3125 324.355469 C 183.476562 326.292969 172.640625 323.714844 162.804688 316.621094 C 162.277344 316.242188 162.117188 315.582031 162.320312 314.644531 C 162.976562 311.566406 165.105469 311.882812 167.277344 313.265625 Z M 167.277344 313.265625 " fill-opacity="1" fill-rule="nonzero"/><g clip-path="url(#2c25f1ece4)"><path fill="#000000" d="M 162.898438 141.003906 C 161.863281 141.003906 161.035156 140.234375 161.351562 139.15625 C 161.660156 138.09375 162.589844 136.785156 165.253906 136.582031 C 173.484375 135.945312 184.753906 135.070312 184.753906 124.757812 L 184.753906 84.296875 C 184.753906 74.527344 178.976562 71.246094 174.332031 68.609375 C 164.636719 63.105469 156.957031 56.355469 154.96875 44.089844 C 152.773438 30.519531 162.15625 1.238281 162.554688 0 L 212.636719 0 C 213.039062 1.238281 222.421875 30.519531 220.222656 44.089844 C 218.238281 56.355469 210.554688 63.105469 200.859375 68.609375 C 196.21875 71.246094 190.4375 74.527344 190.4375 84.296875 L 190.4375 124.757812 C 190.4375 135.070312 201.710938 135.945312 209.941406 136.582031 C 212.601562 136.785156 213.53125 138.09375 213.84375 139.15625 C 214.160156 140.234375 213.332031 141.003906 212.296875 141.003906 L 162.898438 141.003906 " fill-opacity="1" fill-rule="nonzero"/></g></svg>