<svg xmlns="http://www.w3.org/2000/svg" xmlns:xlink="http://www.w3.org/1999/xlink" width="500" zoomAndPan="magnify" viewBox="0 0 375 374.999991" height="500" preserveAspectRatio="xMidYMid meet" version="1.0"><path fill="#613535" d="M 258.164062 359.207031 C 258.164062 367.664062 231.25 374.578125 197.703125 374.808594 C 197.703125 374.808594 195.90625 374.820312 195.90625 374.820312 C 162.34375 374.5625 135.445312 367.664062 135.445312 359.207031 C 135.445312 352.074219 154.441406 346.066406 180.425781 344.183594 C 184.320312 343.902344 187.582031 341.140625 188.570312 337.363281 L 188.855469 336.269531 C 190.558594 329.679688 191.425781 322.914062 191.425781 316.105469 L 191.425781 223.414062 C 191.425781 221.964844 190.558594 220.652344 189.21875 220.125 C 187.472656 219.433594 185.605469 217.988281 184.253906 216.78125 C 182.617188 215.320312 180.871094 213.980469 179.015625 212.804688 C 125.078125 178.636719 135.269531 151.398438 147.851562 107.554688 C 158.785156 69.503906 147.191406 26.039062 143.507812 14.429688 C 143.507812 14.414062 143.507812 14.414062 143.507812 14.402344 C 143.507812 14.402344 143.507812 14.386719 143.507812 14.375 C 142.886719 12.316406 143.605469 10.097656 145.335938 8.824219 C 152.140625 3.792969 172.617188 0.152344 196.8125 0.152344 C 221.007812 0.152344 241.464844 3.792969 248.300781 8.824219 C 250.03125 10.097656 250.75 12.316406 250.125 14.375 C 250.125 14.375 250.125 14.386719 250.125 14.402344 C 250.125 14.414062 250.113281 14.414062 250.113281 14.429688 C 246.433594 26.039062 234.835938 69.503906 245.769531 107.554688 C 258.355469 151.398438 268.542969 178.636719 214.605469 212.804688 C 212.75 213.980469 211.007812 215.320312 209.367188 216.78125 C 208 217.988281 206.148438 219.433594 204.414062 220.125 C 203.0625 220.652344 202.195312 221.964844 202.195312 223.414062 L 202.195312 316.105469 C 202.195312 322.914062 203.0625 329.679688 204.769531 336.269531 L 205.050781 337.363281 C 206.039062 341.140625 209.300781 343.902344 213.199219 344.183594 C 239.179688 346.066406 258.179688 352.074219 258.179688 359.207031 Z M 258.164062 359.207031 " fill-opacity="1" fill-rule="nonzero"/></svg>