<svg xmlns="http://www.w3.org/2000/svg" xmlns:xlink="http://www.w3.org/1999/xlink" width="500" zoomAndPan="magnify" viewBox="0 0 375 374.999991" height="500" preserveAspectRatio="xMidYMid meet" version="1.0"><defs><clipPath id="008b75002a"><path d="M 161 131.34375 L 216 131.34375 L 216 132 L 161 132 Z M 161 131.34375 " clip-rule="nonzero"/></clipPath><clipPath id="9d309e4252"><path d="M 25.007812 134 L 349.757812 134 L 349.757812 375 L 25.007812 375 Z M 25.007812 134 " clip-rule="nonzero"/></clipPath><clipPath id="6c19f178ca"><path d="M 154.636719 0 L 220.355469 0 L 220.355469 141 L 154.636719 141 Z M 154.636719 0 " clip-rule="nonzero"/></clipPath></defs><g clip-path="url(#008b75002a)"><path fill="#be0157" d="M 171.976562 94.203125 L 174.417969 94.203125 C 179.359375 95.023438 182.332031 97.621094 186.003906 100.699219 C 187.515625 101.972656 189.464844 102.140625 190.976562 100.878906 C 194.792969 97.675781 199.074219 94.515625 203.96875 94.828125 C 211.097656 95.277344 217.234375 101.902344 215.417969 109.28125 C 214.4375 113.253906 211.75 115.761719 208.183594 117.949219 C 203.355469 120.90625 198.59375 123.964844 193.894531 127.128906 C 192.066406 128.359375 190.472656 129.847656 188.882812 131.335938 C 188.789062 131.421875 188.679688 131.460938 188.554688 131.460938 C 188.429688 131.457031 188.320312 131.414062 188.230469 131.324219 C 186.0625 129.191406 183.671875 127.265625 181.054688 125.546875 C 176.367188 122.472656 171.707031 119.355469 167.070312 116.203125 C 157.183594 109.480469 160.492188 96.332031 171.976562 94.203125 Z M 171.976562 94.203125 " fill-opacity="1" fill-rule="nonzero"/></g><g clip-path="url(#9d309e4252)"><path fill="#be0157" d="M 352.265625 241.222656 L 352.265625 305.460938 C 351.910156 306.957031 351.039062 308.078125 349.660156 308.824219 C 336.132812 316.117188 322.597656 323.398438 309.058594 330.667969 C 308.277344 331.085938 307.699219 331.402344 307.121094 332.136719 C 305.394531 334.332031 303.65625 336.507812 301.910156 338.675781 C 286.085938 358.261719 266.054688 371.597656 241.8125 378.679688 C 241.570312 378.75 241.445312 378.914062 241.445312 379.171875 C 241.441406 398.367188 241.441406 417.605469 241.445312 436.890625 C 241.445312 439.28125 241.222656 441.105469 240.777344 442.367188 C 239.652344 445.578125 237.464844 447.839844 234.21875 449.148438 C 233.261719 449.535156 232.074219 449.730469 230.664062 449.730469 C 202.484375 449.71875 174.296875 449.71875 146.101562 449.734375 C 141.214844 449.734375 137.375 447.402344 135.675781 442.75 C 135.242188 441.558594 135.023438 439.882812 135.023438 437.722656 C 135.023438 418.15625 135.023438 398.640625 135.023438 379.179688 C 135.023438 378.910156 134.898438 378.738281 134.644531 378.664062 C 107.980469 370.5625 86.507812 355.363281 70.226562 333.0625 C 69.121094 331.554688 68.0625 330.53125 67.046875 330 C 48.054688 320.066406 34.496094 312.828125 26.375 308.28125 C 25.480469 307.785156 24.921875 306.734375 24.695312 305.136719 L 24.695312 241.382812 C 25.097656 239.722656 25.765625 238.746094 27.347656 237.890625 C 40.335938 230.898438 53.234375 223.890625 66.050781 216.859375 C 66.441406 216.648438 66.722656 216.335938 66.898438 215.917969 C 79.390625 186.199219 100.453125 162.261719 129.511719 148.015625 C 143.8125 141.003906 158.972656 136.710938 174.992188 135.140625 C 201.671875 132.519531 226.714844 137.269531 250.117188 149.394531 C 276.109375 162.859375 296.378906 185.316406 308.105469 212.019531 C 308.953125 213.949219 309.550781 215.328125 309.898438 216.152344 C 309.960938 216.3125 310.070312 216.429688 310.222656 216.507812 C 322.640625 223.320312 335.070312 230.105469 347.511719 236.867188 C 350.148438 238.300781 351.558594 238.746094 352.265625 241.222656 Z M 199.175781 245.476562 C 198.871094 245.847656 198.480469 246.03125 198.003906 246.03125 L 178.757812 246.019531 C 178.242188 246.019531 177.828125 245.816406 177.507812 245.414062 C 172.570312 239.214844 167.648438 233.109375 162.734375 227.09375 C 162.199219 226.433594 161.628906 226.105469 161.019531 226.105469 C 148.84375 226.109375 136.664062 226.125 124.488281 226.148438 C 107.136719 226.183594 92.421875 241.261719 89.125 257.648438 C 88.683594 259.84375 88.460938 262.863281 88.453125 266.710938 C 88.4375 278.679688 88.433594 290.648438 88.445312 302.613281 C 88.453125 306.765625 88.671875 310.019531 89.113281 312.367188 C 90.292969 318.699219 92.691406 324.515625 96.316406 329.808594 C 103.519531 340.339844 116.179688 348.234375 129.269531 348.230469 C 168.519531 348.222656 207.765625 348.214844 247.011719 348.214844 C 250.101562 348.214844 252.921875 348.054688 255.550781 347.359375 C 272.585938 342.847656 285.066406 329.222656 287.949219 311.898438 C 288.324219 309.652344 288.511719 306.394531 288.511719 302.125 C 288.515625 289.667969 288.515625 277.207031 288.515625 264.75 C 288.515625 245.253906 272.367188 226.136719 252.351562 226.128906 C 240.035156 226.117188 227.84375 226.113281 215.769531 226.109375 C 215.21875 226.105469 214.773438 226.316406 214.425781 226.742188 Z M 188.394531 396.644531 C 185.136719 392.523438 182.269531 388.542969 176.972656 387.035156 C 173.152344 385.945312 169.058594 386.808594 165.894531 389.113281 C 158.058594 394.832031 158.125 404.308594 163.855469 411.484375 C 167.757812 416.371094 172.21875 421.722656 177.230469 427.539062 C 179.464844 430.125 181.261719 431.808594 182.621094 432.585938 C 185.679688 434.335938 188.996094 434.570312 192.570312 433.28125 C 195.457031 432.242188 197.011719 430.382812 199.039062 428.039062 C 202.53125 424.003906 205.992188 419.949219 209.429688 415.867188 C 212.945312 411.695312 216.425781 407.105469 216.894531 401.902344 C 217.515625 395.050781 213.230469 388.859375 206.550781 387.03125 C 205.117188 386.632812 203.828125 386.488281 202.691406 386.59375 C 196.484375 387.15625 192.167969 391.515625 188.820312 396.625 C 188.683594 396.832031 188.542969 396.839844 188.394531 396.644531 Z M 188.394531 396.644531 " fill-opacity="1" fill-rule="nonzero"/></g><path fill="#be0157" d="M 127.800781 306.167969 C 127.121094 306.101562 126.445312 306.003906 125.777344 305.871094 C 125.105469 305.742188 124.445312 305.578125 123.789062 305.378906 C 123.136719 305.179688 122.492188 304.953125 121.859375 304.6875 C 121.230469 304.425781 120.613281 304.136719 120.007812 303.8125 C 119.40625 303.488281 118.820312 303.136719 118.25 302.753906 C 117.683594 302.371094 117.132812 301.960938 116.605469 301.523438 C 116.074219 301.089844 115.570312 300.625 115.085938 300.140625 C 114.601562 299.652344 114.140625 299.140625 113.707031 298.605469 C 113.273438 298.074219 112.863281 297.519531 112.484375 296.945312 C 112.101562 296.371094 111.75 295.78125 111.425781 295.171875 C 111.101562 294.5625 110.808594 293.9375 110.546875 293.296875 C 110.285156 292.660156 110.050781 292.007812 109.851562 291.347656 C 109.652344 290.683594 109.484375 290.011719 109.351562 289.335938 C 109.214844 288.65625 109.113281 287.972656 109.046875 287.28125 C 108.976562 286.59375 108.941406 285.902344 108.941406 285.207031 C 108.9375 284.515625 108.96875 283.824219 109.035156 283.132812 C 109.101562 282.445312 109.199219 281.757812 109.328125 281.078125 C 109.460938 280.398438 109.625 279.726562 109.820312 279.0625 C 110.019531 278.394531 110.246094 277.742188 110.507812 277.101562 C 110.765625 276.460938 111.058594 275.832031 111.378906 275.21875 C 111.699219 274.605469 112.046875 274.011719 112.425781 273.433594 C 112.804688 272.855469 113.207031 272.296875 113.640625 271.757812 C 114.070312 271.21875 114.527344 270.703125 115.011719 270.210938 C 115.492188 269.71875 115.996094 269.25 116.523438 268.808594 C 117.050781 268.367188 117.597656 267.953125 118.164062 267.5625 C 118.730469 267.175781 119.316406 266.816406 119.917969 266.484375 C 120.519531 266.15625 121.132812 265.855469 121.765625 265.589844 C 122.394531 265.320312 123.035156 265.082031 123.6875 264.878906 C 124.34375 264.671875 125.003906 264.5 125.671875 264.363281 C 126.34375 264.222656 127.015625 264.117188 127.695312 264.046875 C 128.375 263.976562 129.058594 263.9375 129.742188 263.933594 C 130.421875 263.929688 131.105469 263.960938 131.785156 264.023438 C 132.464844 264.089844 133.140625 264.1875 133.808594 264.320312 C 134.480469 264.449219 135.140625 264.617188 135.796875 264.8125 C 136.449219 265.011719 137.09375 265.242188 137.726562 265.503906 C 138.355469 265.765625 138.972656 266.054688 139.578125 266.378906 C 140.179688 266.703125 140.765625 267.054688 141.335938 267.4375 C 141.902344 267.820312 142.453125 268.230469 142.980469 268.667969 C 143.511719 269.101562 144.015625 269.566406 144.5 270.054688 C 144.984375 270.539062 145.445312 271.050781 145.878906 271.585938 C 146.3125 272.117188 146.722656 272.671875 147.101562 273.246094 C 147.484375 273.820312 147.835938 274.410156 148.160156 275.019531 C 148.484375 275.628906 148.777344 276.253906 149.039062 276.894531 C 149.300781 277.53125 149.53125 278.183594 149.734375 278.84375 C 149.933594 279.507812 150.101562 280.179688 150.234375 280.855469 C 150.371094 281.535156 150.472656 282.21875 150.539062 282.910156 C 150.609375 283.597656 150.644531 284.289062 150.644531 284.984375 C 150.648438 285.675781 150.617188 286.367188 150.550781 287.058594 C 150.484375 287.75 150.386719 288.433594 150.253906 289.113281 C 150.125 289.792969 149.960938 290.464844 149.761719 291.132812 C 149.566406 291.796875 149.339844 292.449219 149.078125 293.089844 C 148.820312 293.730469 148.527344 294.359375 148.207031 294.972656 C 147.886719 295.585938 147.539062 296.179688 147.160156 296.757812 C 146.78125 297.335938 146.378906 297.894531 145.945312 298.433594 C 145.515625 298.972656 145.058594 299.488281 144.574219 299.980469 C 144.09375 300.472656 143.589844 300.941406 143.0625 301.382812 C 142.535156 301.824219 141.988281 302.242188 141.421875 302.628906 C 140.855469 303.015625 140.269531 303.375 139.667969 303.707031 C 139.066406 304.035156 138.453125 304.335938 137.820312 304.601562 C 137.191406 304.871094 136.550781 305.109375 135.898438 305.3125 C 135.242188 305.519531 134.582031 305.691406 133.914062 305.828125 C 133.242188 305.96875 132.570312 306.074219 131.890625 306.144531 C 131.210938 306.214844 130.527344 306.253906 129.84375 306.257812 C 129.164062 306.261719 128.480469 306.230469 127.800781 306.167969 Z M 127.800781 306.167969 " fill-opacity="1" fill-rule="nonzero"/><path fill="#be0157" d="M 261.355469 269.554688 C 267.648438 275.203125 270.144531 284.972656 266.824219 292.957031 C 262.765625 302.695312 252.621094 308.230469 242.246094 305.679688 C 231.308594 303 224.386719 292.003906 226.71875 280.789062 C 227.683594 276.144531 229.933594 272.285156 233.460938 269.210938 C 241.890625 261.871094 253.082031 262.132812 261.355469 269.554688 Z M 261.355469 269.554688 " fill-opacity="1" fill-rule="nonzero"/><path fill="#be0157" d="M 167.277344 313.398438 C 174.097656 317.734375 181.320312 320.011719 189.578125 319.726562 C 197.027344 319.46875 203.984375 317.070312 210.449219 312.535156 C 210.847656 312.253906 211.417969 312.195312 212.15625 312.351562 C 214.957031 312.9375 214.90625 315.699219 212.835938 317.167969 C 207.375 321.035156 201.53125 323.480469 195.3125 324.496094 C 183.476562 326.4375 172.640625 323.855469 162.804688 316.757812 C 162.277344 316.378906 162.117188 315.71875 162.320312 314.777344 C 162.976562 311.699219 165.105469 312.015625 167.277344 313.398438 Z M 167.277344 313.398438 " fill-opacity="1" fill-rule="nonzero"/><g clip-path="url(#6c19f178ca)"><path fill="#be0157" d="M 162.871094 141.132812 C 161.839844 141.132812 161.015625 140.363281 161.328125 139.285156 C 161.640625 138.222656 162.566406 136.910156 165.222656 136.707031 C 173.425781 136.066406 184.664062 135.195312 184.664062 124.871094 L 184.664062 84.375 C 184.664062 74.59375 178.902344 71.308594 174.273438 68.671875 C 164.605469 63.164062 156.949219 56.40625 154.96875 44.132812 C 152.777344 30.546875 162.132812 1.242188 162.53125 0 L 212.460938 0 C 212.863281 1.242188 222.214844 30.546875 220.023438 44.132812 C 218.042969 56.40625 210.386719 63.164062 200.722656 68.671875 C 196.089844 71.308594 190.332031 74.59375 190.332031 84.375 L 190.332031 124.871094 C 190.332031 135.195312 201.566406 136.066406 209.773438 136.707031 C 212.425781 136.910156 213.351562 138.222656 213.664062 139.285156 C 213.980469 140.363281 213.152344 141.132812 212.121094 141.132812 L 162.871094 141.132812 " fill-opacity="1" fill-rule="nonzero"/></g></svg>