<svg xmlns="http://www.w3.org/2000/svg" xmlns:xlink="http://www.w3.org/1999/xlink" width="500" zoomAndPan="magnify" viewBox="0 0 375 374.999991" height="500" preserveAspectRatio="xMidYMid meet" version="1.0"><defs><clipPath id="a420b10390"><path d="M 132 44 L 241 44 L 241 374.25 L 132 374.25 Z M 132 44 " clip-rule="nonzero"/></clipPath></defs><g clip-path="url(#a420b10390)"><path fill="#be0157" d="M 239.257812 368.78125 L 197.269531 339.15625 L 197.269531 230.515625 C 205.585938 227.972656 213.429688 222.585938 219.722656 214.890625 C 229.054688 203.476562 234.195312 188.128906 234.195312 171.679688 C 234.195312 139.675781 220.207031 50.570312 219.609375 46.792969 C 219.382812 45.351562 218.140625 44.289062 216.679688 44.289062 L 156.128906 44.289062 C 154.667969 44.289062 153.425781 45.351562 153.199219 46.792969 C 152.601562 50.570312 138.613281 139.675781 138.613281 171.679688 C 138.613281 188.128906 143.753906 203.476562 153.085938 214.890625 C 159.378906 222.585938 167.222656 227.972656 175.539062 230.515625 L 175.539062 339.15625 L 133.550781 368.78125 C 132.492188 369.527344 132.042969 370.871094 132.433594 372.105469 C 132.824219 373.339844 133.96875 374.175781 135.261719 374.175781 L 237.550781 374.175781 C 238.84375 374.175781 239.984375 373.339844 240.378906 372.105469 C 240.765625 370.871094 240.316406 369.527344 239.257812 368.78125 Z M 148.113281 127.140625 C 151.789062 95.363281 157.1875 59.839844 158.671875 50.222656 L 214.136719 50.222656 C 215.621094 59.839844 221.019531 95.363281 224.695312 127.140625 Z M 191.332031 231.832031 L 191.332031 337.726562 L 181.476562 337.726562 L 181.476562 231.832031 C 183.113281 232.058594 184.757812 232.183594 186.40625 232.183594 C 188.050781 232.183594 189.695312 232.058594 191.332031 231.832031 Z M 144.613281 368.238281 L 179.449219 343.660156 L 193.359375 343.660156 L 228.195312 368.238281 Z M 144.613281 368.238281 " fill-opacity="1" fill-rule="nonzero"/></g><path fill="#be0157" d="M 157.386719 284.242188 C 157.074219 281.789062 155.824219 279.609375 153.867188 278.097656 C 151.910156 276.59375 149.484375 275.9375 147.039062 276.261719 C 140.148438 277.167969 129.996094 279.730469 119.378906 286.617188 C 114.164062 275.304688 106.769531 265.855469 97.4375 258.53125 C 94.523438 243.308594 88.179688 233.449219 79.035156 230.015625 C 69.441406 226.410156 57.6875 230 44.105469 240.679688 C 30.984375 240.105469 16.75 241.453125 1.773438 244.746094 C 0.949219 244.925781 0.242188 245.449219 -0.171875 246.183594 C -0.589844 246.917969 -0.671875 247.792969 -0.402344 248.59375 C 7.21875 271.171875 21.734375 287.5 42.734375 297.125 C 57.316406 303.808594 72.773438 306.222656 86.566406 306.222656 C 96.5625 306.222656 105.683594 304.953125 112.957031 303.121094 C 115.363281 315.734375 119.777344 324.394531 123.195312 329.558594 C 124.96875 332.242188 127.890625 333.707031 130.878906 333.707031 C 132.484375 333.707031 134.109375 333.285156 135.585938 332.398438 C 143.390625 327.71875 161.132812 313.65625 157.386719 284.242188 Z M 45.207031 291.730469 C 26.742188 283.269531 13.683594 269.183594 6.351562 249.84375 C 62.304688 238.503906 102.261719 255.15625 116.734375 295.832031 C 101.773438 300.890625 71.578125 303.816406 45.207031 291.730469 Z M 45.207031 291.730469 " fill-opacity="1" fill-rule="nonzero"/><path fill="#be0157" d="M 76.089844 265.078125 C 71.320312 260.859375 62.472656 261.222656 53 266.035156 C 52.003906 266.539062 51.375 267.5625 51.375 268.679688 C 51.375 280.183594 58.054688 287.375 64.652344 288.53125 C 65.292969 288.644531 65.960938 288.703125 66.640625 288.703125 C 70.90625 288.703125 75.707031 286.328125 78.171875 279.527344 C 81.179688 271.21875 78.160156 266.90625 76.089844 265.078125 Z M 76.089844 265.078125 " fill-opacity="1" fill-rule="nonzero"/><path fill="#be0157" d="M 45.179688 259.753906 C 45.179688 260.230469 45.132812 260.703125 45.039062 261.171875 C 44.945312 261.640625 44.808594 262.097656 44.625 262.539062 C 44.441406 262.980469 44.21875 263.398438 43.953125 263.796875 C 43.6875 264.191406 43.386719 264.558594 43.046875 264.898438 C 42.710938 265.234375 42.34375 265.539062 41.945312 265.804688 C 41.546875 266.066406 41.128906 266.292969 40.6875 266.476562 C 40.246094 266.65625 39.789062 266.796875 39.320312 266.890625 C 38.851562 266.984375 38.378906 267.027344 37.902344 267.027344 C 37.425781 267.027344 36.953125 266.984375 36.484375 266.890625 C 36.015625 266.796875 35.558594 266.65625 35.117188 266.476562 C 34.675781 266.292969 34.257812 266.066406 33.859375 265.804688 C 33.464844 265.539062 33.09375 265.234375 32.757812 264.898438 C 32.417969 264.558594 32.117188 264.191406 31.851562 263.796875 C 31.585938 263.398438 31.363281 262.980469 31.179688 262.539062 C 30.996094 262.097656 30.859375 261.640625 30.765625 261.171875 C 30.671875 260.703125 30.625 260.230469 30.625 259.753906 C 30.625 259.277344 30.671875 258.800781 30.765625 258.332031 C 30.859375 257.863281 30.996094 257.410156 31.179688 256.96875 C 31.363281 256.527344 31.585938 256.109375 31.851562 255.710938 C 32.117188 255.3125 32.417969 254.945312 32.757812 254.609375 C 33.09375 254.269531 33.464844 253.96875 33.859375 253.703125 C 34.257812 253.4375 34.675781 253.214844 35.117188 253.03125 C 35.558594 252.847656 36.015625 252.710938 36.484375 252.617188 C 36.953125 252.523438 37.425781 252.476562 37.902344 252.476562 C 38.378906 252.476562 38.851562 252.523438 39.320312 252.617188 C 39.789062 252.710938 40.246094 252.847656 40.6875 253.03125 C 41.128906 253.214844 41.546875 253.4375 41.945312 253.703125 C 42.34375 253.96875 42.710938 254.269531 43.046875 254.609375 C 43.386719 254.945312 43.6875 255.3125 43.953125 255.710938 C 44.21875 256.109375 44.441406 256.527344 44.625 256.96875 C 44.808594 257.410156 44.945312 257.863281 45.039062 258.332031 C 45.132812 258.800781 45.179688 259.277344 45.179688 259.753906 Z M 45.179688 259.753906 " fill-opacity="1" fill-rule="nonzero"/><path fill="#be0157" d="M 6.140625 94.785156 C 6.320312 96.34375 7.695312 97.492188 9.246094 97.40625 C 24.25 96.617188 32.984375 104.0625 33.058594 104.132812 C 33.601562 104.613281 34.304688 104.878906 35.03125 104.878906 L 112.1875 104.878906 C 113.089844 104.878906 113.941406 104.46875 114.503906 103.765625 C 115.066406 103.066406 115.28125 102.144531 115.085938 101.265625 C 113.09375 92.339844 111.863281 77.851562 115.546875 75.097656 C 116.921875 74.070312 119.667969 75.328125 121.183594 76.167969 C 122.101562 76.679688 123.222656 76.667969 124.128906 76.132812 C 125.035156 75.597656 125.589844 74.625 125.589844 73.574219 L 125.589844 36.625 C 125.589844 35.621094 125.085938 34.691406 124.25 34.140625 C 122.132812 32.753906 72.078125 0.148438 45.082031 0.148438 C 17.125 0.148438 0.4375 33.890625 -0.261719 35.328125 C -0.507812 35.835938 -0.601562 36.402344 -0.539062 36.960938 Z M 45.082031 6.085938 C 65.300781 6.085938 101.539062 27.078125 115.398438 35.585938 C 96.375 38.699219 44.15625 36.613281 7.265625 34 C 12.359375 25.496094 26.0625 6.085938 45.082031 6.085938 Z M 73.976562 43.015625 C 75.28125 52.609375 82.882812 57.753906 90.078125 57.753906 C 94.246094 57.753906 98.09375 56.117188 100.90625 53.148438 C 103.460938 50.457031 105.003906 46.808594 105.46875 42.507812 C 111.21875 42.132812 116.09375 41.554688 119.65625 40.71875 L 119.65625 69.144531 C 116.671875 68.367188 114.101562 68.765625 111.992188 70.347656 C 105.304688 75.34375 107.179688 91.1875 108.570312 98.945312 L 36.066406 98.945312 C 33.351562 96.902344 24.878906 91.460938 11.722656 91.410156 L 5.769531 39.84375 C 16.96875 40.636719 46.8125 42.597656 73.976562 43.015625 Z M 73.976562 43.015625 " fill-opacity="1" fill-rule="nonzero"/><path fill="#be0157" d="M 41.347656 78.71875 C 46.585938 78.71875 50.847656 74.457031 50.847656 69.21875 C 50.847656 63.980469 46.585938 59.71875 41.347656 59.71875 C 36.109375 59.71875 31.847656 63.980469 31.847656 69.21875 C 31.847656 74.460938 36.109375 78.71875 41.347656 78.71875 Z M 41.347656 78.71875 " fill-opacity="1" fill-rule="nonzero"/><path fill="#be0157" d="M 306.640625 77.867188 C 319.710938 77.867188 332.945312 73.640625 332.945312 65.5625 C 332.945312 57.488281 319.710938 53.261719 306.640625 53.261719 C 293.570312 53.261719 280.339844 57.488281 280.339844 65.5625 C 280.339844 73.640625 293.570312 77.867188 306.640625 77.867188 Z M 306.640625 77.867188 " fill-opacity="1" fill-rule="nonzero"/><path fill="#be0157" d="M 291.203125 134.011719 L 322.078125 134.011719 C 355.152344 134.011719 373.363281 116.019531 373.363281 83.34375 C 373.363281 59.84375 368.980469 46.527344 345.011719 38.96875 C 340.363281 37.503906 337.570312 36.003906 334.867188 34.550781 C 329.175781 31.492188 324.257812 28.851562 306.640625 28.851562 C 289.023438 28.851562 284.105469 31.496094 278.414062 34.550781 C 275.710938 36.003906 272.917969 37.503906 268.269531 38.96875 C 244.300781 46.527344 239.917969 59.84375 239.917969 83.34375 C 239.917969 116.019531 258.132812 134.011719 291.203125 134.011719 Z M 245.890625 85.664062 C 245.871094 84.898438 245.851562 84.128906 245.851562 83.34375 C 245.851562 66.171875 248.09375 55.898438 259.550781 49.128906 L 270.40625 56.398438 C 270.914062 56.738281 271.488281 56.898438 272.054688 56.898438 C 273.011719 56.898438 273.953125 56.4375 274.523438 55.582031 C 275.4375 54.222656 275.070312 52.378906 273.707031 51.464844 L 265.761719 46.144531 C 267.105469 45.617188 268.527344 45.109375 270.054688 44.628906 C 275.234375 42.996094 278.414062 41.285156 281.222656 39.777344 C 286.617188 36.882812 290.515625 34.785156 306.640625 34.785156 C 313.914062 34.785156 318.695312 35.214844 322.253906 35.949219 L 316.058594 43.816406 C 315.046875 45.101562 315.269531 46.96875 316.554688 47.984375 C 317.097656 48.410156 317.746094 48.617188 318.390625 48.617188 C 319.269531 48.617188 320.136719 48.230469 320.722656 47.484375 L 328.292969 37.871094 C 329.585938 38.449219 330.78125 39.09375 332.058594 39.777344 C 334.867188 41.285156 338.046875 42.996094 343.226562 44.628906 C 352.214844 47.460938 357.957031 51.082031 361.582031 56.027344 L 349.929688 61.699219 C 348.457031 62.414062 347.84375 64.191406 348.558594 65.664062 C 349.070312 66.722656 350.128906 67.335938 351.230469 67.335938 C 351.664062 67.335938 352.109375 67.238281 352.527344 67.035156 L 364.453125 61.230469 C 366.789062 66.984375 367.429688 74.179688 367.429688 83.34375 C 367.429688 84.128906 367.414062 84.898438 367.390625 85.664062 C 360.898438 84.855469 356.734375 88.5 352.988281 91.773438 C 347.867188 96.257812 343.027344 100.492188 331.003906 96.046875 C 321.367188 92.484375 317.023438 96.226562 313.53125 99.234375 C 311.375 101.09375 309.671875 102.5625 306.640625 102.5625 C 303.613281 102.5625 301.90625 101.09375 299.75 99.234375 C 296.261719 96.226562 291.917969 92.480469 282.277344 96.046875 C 270.257812 100.488281 265.414062 96.257812 260.292969 91.773438 C 256.550781 88.5 252.378906 84.855469 245.890625 85.664062 Z M 245.890625 85.664062 " fill-opacity="1" fill-rule="nonzero"/><path fill="#be0157" d="M 305.285156 85.164062 C 304.132812 83.996094 302.253906 83.984375 301.089844 85.132812 C 299.921875 86.285156 299.90625 88.160156 301.054688 89.328125 L 307.375 95.742188 C 307.957031 96.332031 308.722656 96.628906 309.488281 96.628906 C 310.242188 96.628906 310.996094 96.34375 311.570312 95.777344 C 312.738281 94.625 312.753906 92.746094 311.605469 91.578125 Z M 305.285156 85.164062 " fill-opacity="1" fill-rule="nonzero"/><path fill="#be0157" d="M 372.902344 240.355469 C 370.96875 234.078125 363.105469 229.003906 349.738281 230.976562 C 348.296875 225.480469 345.105469 221.425781 340.683594 219.542969 C 340.902344 214.679688 340.441406 204.046875 332.933594 199.160156 C 330.402344 197.507812 327.867188 196.964844 325.390625 197.539062 C 324.714844 197.695312 324.070312 197.929688 323.453125 198.230469 C 321.804688 192.765625 319.1875 189.117188 315.507812 187.160156 C 311.121094 184.824219 305.632812 185.042969 298.382812 187.859375 C 297.890625 187.207031 297.359375 186.597656 296.789062 186.039062 C 294.191406 183.5 290.949219 182.144531 287.878906 182.3125 C 283.792969 182.539062 279.949219 185.679688 277.546875 188.121094 C 277.320312 187.882812 277.09375 187.648438 276.859375 187.417969 C 272.703125 183.359375 267.390625 181.023438 263.316406 181.460938 C 257.957031 182.039062 254.777344 188.59375 250.757812 196.890625 C 248.421875 201.710938 246.003906 206.695312 243.054688 210.703125 C 237.074219 218.820312 237.015625 227.300781 236.960938 235.496094 C 236.933594 238.933594 236.910156 242.488281 236.46875 246.085938 C 235.644531 252.78125 232.652344 257.957031 230.011719 262.519531 C 227.984375 266.03125 226.230469 269.058594 225.929688 272.125 C 225.351562 278.015625 226.675781 294.941406 231.363281 307.6875 C 234.332031 315.75 241.109375 318.261719 246.554688 320.277344 C 249.359375 321.3125 251.855469 322.25 253.457031 323.710938 C 246.128906 333.476562 242.335938 340.597656 247.566406 347.1875 C 249.339844 349.425781 252.113281 350.746094 255.800781 351.113281 C 256.492188 351.183594 257.214844 351.21875 257.972656 351.21875 C 273.019531 351.21875 300.484375 337.742188 322.164062 319.464844 C 340.699219 303.839844 352.324219 283.132812 351.082031 267.9375 C 351.058594 267.625 351.015625 267.320312 350.980469 267.011719 C 370.507812 258.40625 375.0625 247.371094 372.902344 240.355469 Z M 312.71875 192.398438 C 315.382812 193.816406 317.300781 197.234375 318.4375 202.554688 C 316.722656 204.707031 315.160156 207.3125 313.5625 209.992188 C 312.316406 212.082031 311.054688 214.191406 309.746094 216.019531 C 308.578125 215.8125 306.839844 215.277344 305.464844 213.882812 C 303.6875 212.085938 302.851562 209.222656 302.976562 205.378906 C 303.132812 200.785156 302.523438 196.628906 301.226562 193.125 C 306.324219 191.246094 310.105469 191.003906 312.71875 192.398438 Z M 303.070312 227.203125 C 310.335938 226.976562 314.757812 219.570312 318.65625 213.035156 C 321.203125 208.769531 324.089844 203.929688 326.730469 203.320312 C 327.277344 203.191406 328.171875 203.140625 329.695312 204.128906 C 334.050781 206.96875 334.878906 213.96875 334.792969 218.464844 C 331.382812 218.597656 327.984375 219.953125 325.222656 222.421875 C 319.800781 227.269531 317.652344 235.164062 319.117188 244.414062 C 317.839844 244.570312 316.578125 244.816406 315.335938 245.167969 C 310.363281 246.574219 305.679688 249.460938 301.144531 253.96875 C 297.738281 243.246094 291.183594 239.554688 285.765625 236.511719 C 285.332031 236.265625 284.90625 236.027344 284.488281 235.789062 C 287.523438 228.351562 291.960938 227.546875 303.070312 227.203125 Z M 253.183594 301.644531 C 248.734375 290.390625 250.207031 276.675781 259.011719 247.296875 C 259.480469 245.730469 258.589844 244.074219 257.019531 243.605469 C 255.453125 243.136719 253.792969 244.023438 253.324219 245.59375 C 244.078125 276.445312 242.648438 291.140625 247.664062 303.828125 C 249.855469 309.375 250.148438 313.0625 249.992188 315.222656 C 249.53125 315.050781 249.074219 314.878906 248.617188 314.710938 C 243.648438 312.871094 238.957031 311.136719 236.933594 305.636719 C 232.617188 293.910156 231.320312 277.964844 231.835938 272.703125 C 232.011719 270.917969 233.464844 268.40625 235.148438 265.492188 C 237.929688 260.6875 241.386719 254.707031 242.359375 246.808594 C 242.84375 242.875 242.871094 239.144531 242.894531 235.539062 C 242.949219 227.625 243 220.792969 247.835938 214.222656 C 251.109375 209.777344 253.761719 204.304688 256.101562 199.480469 C 258.53125 194.460938 261.863281 187.589844 263.953125 187.363281 C 265.902344 187.164062 269.535156 188.566406 272.714844 191.664062 C 275.953125 194.828125 277.636719 198.722656 277.335938 202.355469 C 277.054688 205.742188 275.625 209.320312 274.25 212.78125 C 271.679688 219.226562 268.769531 226.527344 273.175781 233.648438 C 275.636719 237.628906 279.308594 239.691406 282.863281 241.6875 C 288.625 244.925781 294.082031 247.996094 296.417969 259.335938 C 292.941406 263.765625 289.527344 269.214844 286.105469 275.761719 C 276.496094 294.148438 266.027344 307.546875 258.382812 317.332031 C 257.945312 317.890625 257.515625 318.441406 257.09375 318.984375 C 256.621094 318.585938 256.121094 318.21875 255.601562 317.882812 C 256.273438 314.851562 256.34375 309.644531 253.183594 301.644531 Z M 318.339844 314.929688 C 294.445312 335.070312 267.585938 346.320312 256.390625 345.210938 C 254.996094 345.070312 253.136719 344.660156 252.214844 343.496094 C 248.957031 339.394531 253.4375 333.296875 263.054688 320.984375 C 268.003906 314.652344 274.117188 306.820312 280.445312 297.113281 C 284.15625 297.199219 294.597656 298.148438 300.894531 305.878906 C 301.480469 306.597656 302.332031 306.96875 303.195312 306.96875 C 303.855469 306.96875 304.519531 306.753906 305.070312 306.304688 C 306.339844 305.269531 306.53125 303.398438 305.496094 302.128906 C 299.152344 294.34375 289.902344 292.050781 284.054688 291.40625 C 286.503906 287.402344 288.957031 283.113281 291.363281 278.507812 C 293 275.371094 294.636719 272.515625 296.277344 269.910156 C 300.105469 269.3125 313.453125 268.21875 322.285156 280.007812 C 322.871094 280.785156 323.761719 281.195312 324.664062 281.195312 C 325.285156 281.195312 325.90625 281.003906 326.441406 280.605469 C 327.753906 279.621094 328.019531 277.761719 327.039062 276.449219 C 318.898438 265.582031 307.65625 263.648438 300.597656 263.664062 C 305.957031 256.683594 311.367188 252.460938 316.953125 250.878906 C 322.960938 249.175781 329.371094 250.425781 336.539062 254.695312 C 341.777344 257.816406 344.679688 262.433594 345.167969 268.417969 C 346.257812 281.792969 335.476562 300.484375 318.339844 314.929688 Z M 318.339844 314.929688 " fill-opacity="1" fill-rule="nonzero"/><path fill="#be0157" d="M 264.777344 297.105469 C 265.015625 297.105469 265.253906 297.078125 265.492188 297.019531 C 267.082031 296.628906 268.050781 295.023438 267.667969 293.429688 C 267.636719 293.316406 264.933594 281.863281 269.691406 271.3125 C 270.363281 269.816406 269.699219 268.0625 268.203125 267.386719 C 266.710938 266.714844 264.953125 267.378906 264.28125 268.875 C 258.65625 281.34375 261.769531 294.308594 261.902344 294.855469 C 262.238281 296.203125 263.449219 297.105469 264.777344 297.105469 Z M 264.777344 297.105469 " fill-opacity="1" fill-rule="nonzero"/></svg>