<svg xmlns="http://www.w3.org/2000/svg" xmlns:xlink="http://www.w3.org/1999/xlink" width="500" zoomAndPan="magnify" viewBox="0 0 375 374.999991" height="500" preserveAspectRatio="xMidYMid meet" version="1.0"><defs><clipPath id="be191b891d"><path d="M 132 44 L 242 44 L 242 374.953125 L 132 374.953125 Z M 132 44 " clip-rule="nonzero"/></clipPath><clipPath id="8a17ddbde8"><path d="M 0 0.703125 L 127 0.703125 L 127 106 L 0 106 Z M 0 0.703125 " clip-rule="nonzero"/></clipPath></defs><g clip-path="url(#be191b891d)"><path fill="#ffffff" d="M 239.964844 369.484375 L 197.972656 339.859375 L 197.972656 231.21875 C 206.292969 228.675781 214.132812 223.289062 220.425781 215.59375 C 229.761719 204.179688 234.902344 188.832031 234.902344 172.382812 C 234.902344 140.378906 220.910156 51.273438 220.316406 47.496094 C 220.089844 46.054688 218.84375 44.992188 217.386719 44.992188 L 156.835938 44.992188 C 155.375 44.992188 154.132812 46.054688 153.902344 47.496094 C 153.308594 51.273438 139.316406 140.378906 139.316406 172.382812 C 139.316406 188.832031 144.457031 204.179688 153.792969 215.59375 C 160.085938 223.289062 167.925781 228.675781 176.246094 231.21875 L 176.246094 339.859375 L 134.257812 369.484375 C 133.199219 370.230469 132.746094 371.574219 133.136719 372.808594 C 133.527344 374.042969 134.671875 374.878906 135.96875 374.878906 L 238.253906 374.878906 C 239.546875 374.878906 240.691406 374.042969 241.082031 372.808594 C 241.472656 371.574219 241.019531 370.230469 239.964844 369.484375 Z M 148.820312 127.84375 C 152.496094 96.066406 157.890625 60.542969 159.375 50.925781 L 214.84375 50.925781 C 216.328125 60.542969 221.726562 96.066406 225.398438 127.84375 Z M 192.039062 232.535156 L 192.039062 338.429688 L 182.179688 338.429688 L 182.179688 232.535156 C 183.820312 232.761719 185.464844 232.886719 187.109375 232.886719 C 188.757812 232.886719 190.402344 232.761719 192.039062 232.535156 Z M 145.320312 368.941406 L 180.15625 344.363281 L 194.066406 344.363281 L 228.902344 368.941406 Z M 145.320312 368.941406 " fill-opacity="1" fill-rule="nonzero"/></g><path fill="#ffffff" d="M 158.09375 284.945312 C 157.78125 282.492188 156.53125 280.3125 154.570312 278.800781 C 152.617188 277.296875 150.191406 276.640625 147.742188 276.964844 C 140.851562 277.871094 130.703125 280.433594 120.085938 287.320312 C 114.871094 276.007812 107.472656 266.558594 98.144531 259.234375 C 95.230469 244.011719 88.886719 234.152344 79.742188 230.71875 C 70.144531 227.113281 58.394531 230.703125 44.8125 241.382812 C 31.691406 240.808594 17.453125 242.15625 2.480469 245.449219 C 1.65625 245.628906 0.949219 246.152344 0.53125 246.886719 C 0.117188 247.621094 0.0351562 248.496094 0.304688 249.296875 C 7.925781 271.875 22.4375 288.203125 43.441406 297.828125 C 58.023438 304.511719 73.480469 306.925781 87.269531 306.925781 C 97.269531 306.925781 106.390625 305.65625 113.664062 303.824219 C 116.066406 316.4375 120.484375 325.097656 123.902344 330.261719 C 125.675781 332.945312 128.597656 334.410156 131.585938 334.410156 C 133.191406 334.410156 134.816406 333.988281 136.292969 333.101562 C 144.09375 328.421875 161.839844 314.359375 158.09375 284.945312 Z M 45.914062 292.433594 C 27.445312 283.972656 14.386719 269.886719 7.054688 250.546875 C 63.011719 239.207031 102.96875 255.859375 117.441406 296.535156 C 102.480469 301.59375 72.285156 304.519531 45.914062 292.433594 Z M 45.914062 292.433594 " fill-opacity="1" fill-rule="nonzero"/><path fill="#ffffff" d="M 76.796875 265.78125 C 72.023438 261.5625 63.179688 261.925781 53.707031 266.738281 C 52.710938 267.242188 52.082031 268.265625 52.082031 269.382812 C 52.082031 280.886719 58.761719 288.078125 65.359375 289.234375 C 66 289.347656 66.664062 289.40625 67.347656 289.40625 C 71.613281 289.40625 76.414062 287.03125 78.875 280.230469 C 81.886719 271.921875 78.863281 267.609375 76.796875 265.78125 Z M 76.796875 265.78125 " fill-opacity="1" fill-rule="nonzero"/><path fill="#ffffff" d="M 45.882812 260.457031 C 45.882812 260.933594 45.835938 261.40625 45.746094 261.875 C 45.652344 262.34375 45.511719 262.800781 45.332031 263.242188 C 45.148438 263.683594 44.921875 264.101562 44.65625 264.5 C 44.390625 264.894531 44.089844 265.261719 43.753906 265.601562 C 43.414062 265.9375 43.046875 266.242188 42.652344 266.507812 C 42.253906 266.769531 41.835938 266.996094 41.394531 267.179688 C 40.953125 267.359375 40.496094 267.5 40.027344 267.59375 C 39.558594 267.6875 39.085938 267.730469 38.609375 267.730469 C 38.128906 267.730469 37.65625 267.6875 37.1875 267.59375 C 36.71875 267.5 36.265625 267.359375 35.824219 267.179688 C 35.382812 266.996094 34.964844 266.769531 34.566406 266.507812 C 34.167969 266.242188 33.800781 265.9375 33.464844 265.601562 C 33.125 265.261719 32.824219 264.894531 32.558594 264.5 C 32.292969 264.101562 32.070312 263.683594 31.886719 263.242188 C 31.703125 262.800781 31.566406 262.34375 31.472656 261.875 C 31.378906 261.40625 31.332031 260.933594 31.332031 260.457031 C 31.332031 259.980469 31.378906 259.503906 31.472656 259.035156 C 31.566406 258.566406 31.703125 258.113281 31.886719 257.671875 C 32.070312 257.230469 32.292969 256.8125 32.558594 256.414062 C 32.824219 256.015625 33.125 255.648438 33.464844 255.3125 C 33.800781 254.972656 34.167969 254.671875 34.566406 254.40625 C 34.964844 254.140625 35.382812 253.917969 35.824219 253.734375 C 36.265625 253.550781 36.71875 253.414062 37.1875 253.320312 C 37.65625 253.226562 38.128906 253.179688 38.609375 253.179688 C 39.085938 253.179688 39.558594 253.226562 40.027344 253.320312 C 40.496094 253.414062 40.953125 253.550781 41.394531 253.734375 C 41.835938 253.917969 42.253906 254.140625 42.652344 254.40625 C 43.046875 254.671875 43.414062 254.972656 43.753906 255.3125 C 44.089844 255.648438 44.390625 256.015625 44.65625 256.414062 C 44.921875 256.8125 45.148438 257.230469 45.332031 257.671875 C 45.511719 258.113281 45.652344 258.566406 45.746094 259.035156 C 45.835938 259.503906 45.882812 259.980469 45.882812 260.457031 Z M 45.882812 260.457031 " fill-opacity="1" fill-rule="nonzero"/><g clip-path="url(#8a17ddbde8)"><path fill="#ffffff" d="M 6.84375 95.488281 C 7.023438 97.046875 8.402344 98.195312 9.953125 98.109375 C 24.957031 97.320312 33.6875 104.765625 33.765625 104.835938 C 34.308594 105.316406 35.011719 105.582031 35.734375 105.582031 L 112.894531 105.582031 C 113.796875 105.582031 114.648438 105.171875 115.210938 104.46875 C 115.773438 103.769531 115.988281 102.847656 115.792969 101.96875 C 113.800781 93.042969 112.570312 78.554688 116.25 75.800781 C 117.625 74.773438 120.375 76.03125 121.890625 76.871094 C 122.808594 77.382812 123.929688 77.371094 124.835938 76.835938 C 125.742188 76.300781 126.296875 75.328125 126.296875 74.277344 L 126.296875 37.328125 C 126.296875 36.324219 125.792969 35.394531 124.957031 34.84375 C 122.839844 33.457031 72.785156 0.851562 45.789062 0.851562 C 17.828125 0.851562 1.140625 34.59375 0.445312 36.03125 C 0.199219 36.539062 0.101562 37.105469 0.167969 37.664062 Z M 45.789062 6.789062 C 66.007812 6.789062 102.246094 27.78125 116.105469 36.289062 C 97.082031 39.402344 44.859375 37.316406 7.972656 34.703125 C 13.0625 26.199219 26.769531 6.789062 45.789062 6.789062 Z M 74.679688 43.71875 C 75.984375 53.3125 83.589844 58.457031 90.785156 58.457031 C 94.953125 58.457031 98.800781 56.820312 101.613281 53.851562 C 104.167969 51.160156 105.710938 47.511719 106.171875 43.210938 C 111.921875 42.835938 116.796875 42.257812 120.363281 41.421875 L 120.363281 69.847656 C 117.375 69.070312 114.808594 69.46875 112.695312 71.050781 C 106.011719 76.046875 107.886719 91.890625 109.277344 99.648438 L 36.773438 99.648438 C 34.054688 97.605469 25.585938 92.164062 12.429688 92.113281 L 6.476562 40.546875 C 17.675781 41.339844 47.515625 43.300781 74.679688 43.71875 Z M 74.679688 43.71875 " fill-opacity="1" fill-rule="nonzero"/></g><path fill="#ffffff" d="M 42.054688 79.421875 C 47.292969 79.421875 51.554688 75.160156 51.554688 69.921875 C 51.554688 64.683594 47.292969 60.421875 42.054688 60.421875 C 36.8125 60.421875 32.554688 64.683594 32.554688 69.921875 C 32.554688 75.164062 36.816406 79.421875 42.054688 79.421875 Z M 42.054688 79.421875 " fill-opacity="1" fill-rule="nonzero"/><path fill="#ffffff" d="M 307.347656 78.570312 C 320.417969 78.570312 333.648438 74.34375 333.648438 66.265625 C 333.648438 58.191406 320.417969 53.964844 307.347656 53.964844 C 294.277344 53.964844 281.046875 58.191406 281.046875 66.265625 C 281.046875 74.34375 294.277344 78.570312 307.347656 78.570312 Z M 307.347656 78.570312 " fill-opacity="1" fill-rule="nonzero"/><path fill="#ffffff" d="M 291.910156 134.714844 L 322.785156 134.714844 C 355.855469 134.714844 374.070312 116.722656 374.070312 84.046875 C 374.070312 60.546875 369.6875 47.230469 345.71875 39.671875 C 341.070312 38.207031 338.277344 36.707031 335.574219 35.253906 C 329.882812 32.195312 324.964844 29.554688 307.347656 29.554688 C 289.726562 29.554688 284.8125 32.199219 279.117188 35.253906 C 276.417969 36.707031 273.625 38.207031 268.976562 39.671875 C 245.007812 47.230469 240.621094 60.546875 240.621094 84.046875 C 240.621094 116.722656 258.835938 134.714844 291.910156 134.714844 Z M 246.597656 86.367188 C 246.574219 85.601562 246.558594 84.832031 246.558594 84.046875 C 246.558594 66.875 248.796875 56.601562 260.257812 49.832031 L 271.113281 57.101562 C 271.621094 57.441406 272.191406 57.601562 272.761719 57.601562 C 273.71875 57.601562 274.65625 57.140625 275.230469 56.285156 C 276.140625 54.925781 275.777344 53.082031 274.414062 52.167969 L 266.46875 46.847656 C 267.8125 46.320312 269.234375 45.8125 270.761719 45.332031 C 275.941406 43.699219 279.121094 41.988281 281.925781 40.480469 C 287.324219 37.585938 291.222656 35.488281 307.347656 35.488281 C 314.621094 35.488281 319.398438 35.917969 322.957031 36.652344 L 316.765625 44.519531 C 315.75 45.804688 315.972656 47.671875 317.261719 48.6875 C 317.804688 49.113281 318.453125 49.320312 319.09375 49.320312 C 319.972656 49.320312 320.84375 48.933594 321.429688 48.1875 L 328.996094 38.574219 C 330.289062 39.152344 331.488281 39.796875 332.765625 40.480469 C 335.570312 41.988281 338.753906 43.699219 343.933594 45.332031 C 352.921875 48.164062 358.664062 51.785156 362.289062 56.730469 L 350.632812 62.402344 C 349.160156 63.117188 348.546875 64.894531 349.265625 66.367188 C 349.777344 67.425781 350.835938 68.039062 351.933594 68.039062 C 352.371094 68.039062 352.8125 67.941406 353.230469 67.738281 L 365.160156 61.933594 C 367.492188 67.6875 368.136719 74.882812 368.136719 84.046875 C 368.136719 84.832031 368.117188 85.601562 368.097656 86.367188 C 361.605469 85.558594 357.441406 89.203125 353.695312 92.476562 C 348.574219 96.960938 343.734375 101.195312 331.710938 96.75 C 322.070312 93.1875 317.726562 96.929688 314.238281 99.9375 C 312.082031 101.796875 310.375 103.265625 307.347656 103.265625 C 304.316406 103.265625 302.613281 101.796875 300.453125 99.9375 C 296.964844 96.929688 292.625 93.183594 282.984375 96.75 C 270.960938 101.191406 266.121094 96.960938 260.996094 92.476562 C 257.253906 89.203125 253.085938 85.558594 246.597656 86.367188 Z M 246.597656 86.367188 " fill-opacity="1" fill-rule="nonzero"/><path fill="#ffffff" d="M 305.992188 85.867188 C 304.839844 84.699219 302.960938 84.6875 301.792969 85.835938 C 300.625 86.988281 300.613281 88.863281 301.761719 90.03125 L 308.082031 96.445312 C 308.660156 97.035156 309.429688 97.332031 310.195312 97.332031 C 310.949219 97.332031 311.699219 97.046875 312.277344 96.480469 C 313.445312 95.328125 313.460938 93.449219 312.308594 92.28125 Z M 305.992188 85.867188 " fill-opacity="1" fill-rule="nonzero"/><path fill="#ffffff" d="M 373.609375 241.058594 C 371.675781 234.78125 363.8125 229.707031 350.441406 231.679688 C 349.003906 226.183594 345.808594 222.128906 341.390625 220.246094 C 341.609375 215.382812 341.148438 204.75 333.640625 199.863281 C 331.109375 198.210938 328.570312 197.667969 326.097656 198.242188 C 325.421875 198.398438 324.777344 198.632812 324.160156 198.933594 C 322.511719 193.46875 319.894531 189.820312 316.214844 187.863281 C 311.828125 185.527344 306.335938 185.746094 299.089844 188.5625 C 298.59375 187.910156 298.0625 187.300781 297.492188 186.742188 C 294.898438 184.203125 291.65625 182.847656 288.585938 183.015625 C 284.5 183.242188 280.652344 186.382812 278.25 188.824219 C 278.027344 188.585938 277.800781 188.351562 277.566406 188.121094 C 273.410156 184.0625 268.09375 181.726562 264.019531 182.164062 C 258.660156 182.742188 255.484375 189.296875 251.464844 197.59375 C 249.128906 202.414062 246.710938 207.398438 243.761719 211.40625 C 237.78125 219.523438 237.722656 228.003906 237.664062 236.199219 C 237.640625 239.636719 237.617188 243.191406 237.171875 246.789062 C 236.347656 253.484375 233.355469 258.660156 230.71875 263.222656 C 228.6875 266.734375 226.933594 269.761719 226.636719 272.828125 C 226.058594 278.71875 227.378906 295.644531 232.070312 308.390625 C 235.035156 316.453125 241.816406 318.964844 247.261719 320.980469 C 250.066406 322.015625 252.558594 322.953125 254.164062 324.414062 C 246.835938 334.179688 243.039062 341.300781 248.269531 347.890625 C 250.046875 350.128906 252.816406 351.449219 256.507812 351.816406 C 257.199219 351.886719 257.921875 351.921875 258.679688 351.921875 C 273.726562 351.921875 301.191406 338.445312 322.871094 320.167969 C 341.40625 304.542969 353.027344 283.835938 351.789062 268.640625 C 351.761719 268.328125 351.722656 268.023438 351.6875 267.714844 C 371.214844 259.109375 375.769531 248.074219 373.609375 241.058594 Z M 313.425781 193.101562 C 316.089844 194.519531 318.007812 197.9375 319.144531 203.257812 C 317.425781 205.410156 315.867188 208.015625 314.265625 210.695312 C 313.019531 212.785156 311.757812 214.894531 310.453125 216.722656 C 309.285156 216.515625 307.546875 215.980469 306.167969 214.585938 C 304.390625 212.789062 303.554688 209.925781 303.683594 206.082031 C 303.839844 201.488281 303.230469 197.332031 301.933594 193.828125 C 307.03125 191.949219 310.808594 191.707031 313.425781 193.101562 Z M 303.777344 227.90625 C 311.042969 227.679688 315.460938 220.273438 319.363281 213.738281 C 321.910156 209.472656 324.796875 204.632812 327.4375 204.023438 C 327.980469 203.894531 328.878906 203.84375 330.402344 204.832031 C 334.757812 207.671875 335.585938 214.671875 335.496094 219.167969 C 332.089844 219.300781 328.691406 220.65625 325.929688 223.125 C 320.507812 227.972656 318.359375 235.867188 319.820312 245.117188 C 318.546875 245.273438 317.285156 245.519531 316.039062 245.871094 C 311.066406 247.277344 306.386719 250.164062 301.851562 254.671875 C 298.445312 243.949219 291.890625 240.257812 286.472656 237.214844 C 286.035156 236.96875 285.609375 236.730469 285.191406 236.492188 C 288.230469 229.054688 292.667969 228.25 303.777344 227.90625 Z M 253.890625 302.347656 C 249.441406 291.09375 250.910156 277.378906 259.714844 248 C 260.1875 246.433594 259.296875 244.777344 257.726562 244.308594 C 256.160156 243.839844 254.5 244.726562 254.03125 246.296875 C 244.785156 277.148438 243.355469 291.84375 248.371094 304.53125 C 250.5625 310.078125 250.855469 313.765625 250.695312 315.925781 C 250.238281 315.753906 249.78125 315.582031 249.324219 315.414062 C 244.355469 313.574219 239.664062 311.839844 237.640625 306.339844 C 233.324219 294.613281 232.027344 278.667969 232.542969 273.40625 C 232.71875 271.621094 234.171875 269.109375 235.855469 266.195312 C 238.632812 261.390625 242.09375 255.410156 243.066406 247.511719 C 243.550781 243.578125 243.574219 239.847656 243.601562 236.242188 C 243.65625 228.328125 243.703125 221.496094 248.542969 214.925781 C 251.816406 210.480469 254.464844 205.007812 256.804688 200.183594 C 259.238281 195.164062 262.570312 188.292969 264.660156 188.066406 C 266.609375 187.867188 270.242188 189.269531 273.421875 192.367188 C 276.660156 195.53125 278.34375 199.425781 278.042969 203.058594 C 277.757812 206.445312 276.332031 210.023438 274.953125 213.484375 C 272.386719 219.929688 269.472656 227.230469 273.878906 234.351562 C 276.339844 238.332031 280.015625 240.394531 283.566406 242.390625 C 289.332031 245.628906 294.785156 248.699219 297.121094 260.039062 C 293.648438 264.46875 290.230469 269.917969 286.808594 276.464844 C 277.203125 294.851562 266.730469 308.25 259.085938 318.035156 C 258.648438 318.59375 258.222656 319.144531 257.796875 319.6875 C 257.328125 319.289062 256.828125 318.921875 256.308594 318.585938 C 256.980469 315.554688 257.050781 310.347656 253.890625 302.347656 Z M 319.046875 315.632812 C 295.152344 335.773438 268.292969 347.023438 257.097656 345.914062 C 255.703125 345.773438 253.84375 345.363281 252.921875 344.199219 C 249.664062 340.097656 254.144531 334 263.761719 321.6875 C 268.710938 315.355469 274.824219 307.523438 281.152344 297.816406 C 284.863281 297.902344 295.304688 298.851562 301.597656 306.582031 C 302.1875 307.300781 303.039062 307.671875 303.902344 307.671875 C 304.5625 307.671875 305.222656 307.457031 305.773438 307.007812 C 307.046875 305.972656 307.234375 304.101562 306.199219 302.832031 C 299.859375 295.046875 290.609375 292.753906 284.757812 292.109375 C 287.207031 288.105469 289.664062 283.816406 292.070312 279.210938 C 293.707031 276.074219 295.34375 273.21875 296.984375 270.613281 C 300.8125 270.015625 314.160156 268.921875 322.992188 280.710938 C 323.574219 281.488281 324.46875 281.898438 325.371094 281.898438 C 325.988281 281.898438 326.613281 281.707031 327.148438 281.308594 C 328.460938 280.324219 328.726562 278.464844 327.742188 277.152344 C 319.601562 266.285156 308.363281 264.351562 301.304688 264.367188 C 306.664062 257.386719 312.074219 253.164062 317.660156 251.582031 C 323.667969 249.878906 330.074219 251.128906 337.246094 255.398438 C 342.480469 258.519531 345.382812 263.136719 345.871094 269.121094 C 346.964844 282.496094 336.183594 301.1875 319.046875 315.632812 Z M 319.046875 315.632812 " fill-opacity="1" fill-rule="nonzero"/><path fill="#ffffff" d="M 265.484375 297.808594 C 265.71875 297.808594 265.957031 297.78125 266.195312 297.722656 C 267.785156 297.332031 268.757812 295.726562 268.371094 294.132812 C 268.34375 294.019531 265.636719 282.566406 270.394531 272.015625 C 271.070312 270.519531 270.40625 268.765625 268.910156 268.089844 C 267.417969 267.417969 265.660156 268.082031 264.984375 269.578125 C 259.363281 282.046875 262.472656 295.011719 262.609375 295.558594 C 262.941406 296.90625 264.152344 297.808594 265.484375 297.808594 Z M 265.484375 297.808594 " fill-opacity="1" fill-rule="nonzero"/></svg>