<svg xmlns="http://www.w3.org/2000/svg" xmlns:xlink="http://www.w3.org/1999/xlink" width="336" zoomAndPan="magnify" viewBox="0 0 252 143.999998" height="192" preserveAspectRatio="xMidYMid meet" version="1.0"><defs><g/><clipPath id="7e78828412"><path d="M 46 52.929688 L 65 52.929688 L 65 53 L 46 53 Z M 46 52.929688 " clip-rule="nonzero"/></clipPath><clipPath id="3f6779bbd6"><path d="M 0 53 L 110.25 53 L 110.25 135.429688 L 0 135.429688 Z M 0 53 " clip-rule="nonzero"/></clipPath><clipPath id="5c9d831f62"><path d="M 44.019531 8.328125 L 66.332031 8.328125 L 66.332031 56.246094 L 44.019531 56.246094 Z M 44.019531 8.328125 " clip-rule="nonzero"/></clipPath></defs><g fill="#ffffff" fill-opacity="1"><g transform="translate(115.082759, 107.298243)"><g><path d="M 9.3125 -11.484375 L 9.3125 -9.296875 L 3.75 -9.296875 L 3.75 -6.84375 L 8.671875 -6.84375 L 8.671875 -4.65625 L 3.75 -4.65625 L 3.75 -2.1875 L 9.53125 -2.1875 L 9.53125 0 L 1.484375 0 L 1.484375 -11.484375 Z M 9.3125 -11.484375 "/></g></g></g><g fill="#ffffff" fill-opacity="1"><g transform="translate(137.948109, 107.298243)"><g><path d="M 11.8125 -11.484375 L 11.8125 0.46875 L 11.75 0.46875 L 3.734375 -6.78125 L 3.78125 0 L 1.484375 0 L 1.484375 -11.921875 L 1.578125 -11.921875 L 9.59375 -4.5625 L 9.546875 -11.484375 Z M 11.8125 -11.484375 "/></g></g></g><g fill="#ffffff" fill-opacity="1"><g transform="translate(163.729485, 107.298243)"><g><path d="M 0.78125 -5.71875 C 0.78125 -6.757812 1.039062 -7.734375 1.5625 -8.640625 C 2.09375 -9.546875 2.804688 -10.265625 3.703125 -10.796875 C 4.597656 -11.335938 5.570312 -11.609375 6.625 -11.609375 C 7.675781 -11.609375 8.648438 -11.335938 9.546875 -10.796875 C 10.453125 -10.265625 11.171875 -9.546875 11.703125 -8.640625 C 12.234375 -7.734375 12.5 -6.757812 12.5 -5.71875 C 12.5 -4.65625 12.234375 -3.675781 11.703125 -2.78125 C 11.171875 -1.894531 10.453125 -1.1875 9.546875 -0.65625 C 8.648438 -0.132812 7.675781 0.125 6.625 0.125 C 5.5625 0.125 4.582031 -0.132812 3.6875 -0.65625 C 2.800781 -1.1875 2.09375 -1.894531 1.5625 -2.78125 C 1.039062 -3.675781 0.78125 -4.65625 0.78125 -5.71875 Z M 3.125 -5.71875 C 3.125 -5.050781 3.28125 -4.4375 3.59375 -3.875 C 3.90625 -3.320312 4.332031 -2.878906 4.875 -2.546875 C 5.425781 -2.222656 6.035156 -2.0625 6.703125 -2.0625 C 7.347656 -2.0625 7.9375 -2.222656 8.46875 -2.546875 C 9 -2.878906 9.414062 -3.320312 9.71875 -3.875 C 10.019531 -4.425781 10.171875 -5.039062 10.171875 -5.71875 C 10.171875 -6.40625 10.015625 -7.03125 9.703125 -7.59375 C 9.390625 -8.15625 8.960938 -8.597656 8.421875 -8.921875 C 7.890625 -9.253906 7.296875 -9.421875 6.640625 -9.421875 C 5.984375 -9.421875 5.382812 -9.253906 4.84375 -8.921875 C 4.3125 -8.597656 3.890625 -8.15625 3.578125 -7.59375 C 3.273438 -7.03125 3.125 -6.40625 3.125 -5.71875 Z M 3.125 -5.71875 "/></g></g></g><g fill="#ffffff" fill-opacity="1"><g transform="translate(189.495271, 107.298243)"><g><path d="M 7.390625 -6.046875 C 7.992188 -5.765625 8.460938 -5.394531 8.796875 -4.9375 C 9.140625 -4.488281 9.3125 -3.972656 9.3125 -3.390625 C 9.3125 -2.222656 8.925781 -1.363281 8.15625 -0.8125 C 7.394531 -0.269531 6.441406 0 5.296875 0 L 1.484375 0 L 1.484375 -11.484375 L 4.84375 -11.484375 C 6.0625 -11.484375 7.019531 -11.234375 7.71875 -10.734375 C 8.414062 -10.242188 8.765625 -9.53125 8.765625 -8.59375 C 8.765625 -8.019531 8.644531 -7.515625 8.40625 -7.078125 C 8.164062 -6.648438 7.828125 -6.304688 7.390625 -6.046875 Z M 3.75 -6.78125 L 5.109375 -6.78125 C 5.523438 -6.78125 5.847656 -6.90625 6.078125 -7.15625 C 6.304688 -7.414062 6.421875 -7.734375 6.421875 -8.109375 C 6.421875 -8.492188 6.289062 -8.785156 6.03125 -8.984375 C 5.769531 -9.191406 5.410156 -9.296875 4.953125 -9.296875 L 3.75 -9.296875 Z M 5.1875 -2.109375 C 5.71875 -2.109375 6.144531 -2.210938 6.46875 -2.421875 C 6.800781 -2.640625 6.96875 -2.960938 6.96875 -3.390625 C 6.96875 -4.191406 6.320312 -4.59375 5.03125 -4.59375 L 3.75 -4.59375 L 3.75 -2.109375 Z M 5.1875 -2.109375 "/></g></g></g><g fill="#ffffff" fill-opacity="1"><g transform="translate(212.064335, 107.298243)"><g><path d="M 0.78125 -5.71875 C 0.78125 -6.757812 1.039062 -7.734375 1.5625 -8.640625 C 2.09375 -9.546875 2.804688 -10.265625 3.703125 -10.796875 C 4.597656 -11.335938 5.570312 -11.609375 6.625 -11.609375 C 7.675781 -11.609375 8.648438 -11.335938 9.546875 -10.796875 C 10.453125 -10.265625 11.171875 -9.546875 11.703125 -8.640625 C 12.234375 -7.734375 12.5 -6.757812 12.5 -5.71875 C 12.5 -4.65625 12.234375 -3.675781 11.703125 -2.78125 C 11.171875 -1.894531 10.453125 -1.1875 9.546875 -0.65625 C 8.648438 -0.132812 7.675781 0.125 6.625 0.125 C 5.5625 0.125 4.582031 -0.132812 3.6875 -0.65625 C 2.800781 -1.1875 2.09375 -1.894531 1.5625 -2.78125 C 1.039062 -3.675781 0.78125 -4.65625 0.78125 -5.71875 Z M 3.125 -5.71875 C 3.125 -5.050781 3.28125 -4.4375 3.59375 -3.875 C 3.90625 -3.320312 4.332031 -2.878906 4.875 -2.546875 C 5.425781 -2.222656 6.035156 -2.0625 6.703125 -2.0625 C 7.347656 -2.0625 7.9375 -2.222656 8.46875 -2.546875 C 9 -2.878906 9.414062 -3.320312 9.71875 -3.875 C 10.019531 -4.425781 10.171875 -5.039062 10.171875 -5.71875 C 10.171875 -6.40625 10.015625 -7.03125 9.703125 -7.59375 C 9.390625 -8.15625 8.960938 -8.597656 8.421875 -8.921875 C 7.890625 -9.253906 7.296875 -9.421875 6.640625 -9.421875 C 5.984375 -9.421875 5.382812 -9.253906 4.84375 -8.921875 C 4.3125 -8.597656 3.890625 -8.15625 3.578125 -7.59375 C 3.273438 -7.03125 3.125 -6.40625 3.125 -5.71875 Z M 3.125 -5.71875 "/></g></g></g><g fill="#ffffff" fill-opacity="1"><g transform="translate(237.830116, 107.298243)"><g><path d="M 8.4375 -11.484375 L 8.4375 -9.296875 L 5.640625 -9.296875 L 5.640625 0 L 3.390625 0 L 3.390625 -9.296875 L 0.703125 -9.296875 L 0.703125 -11.484375 Z M 8.4375 -11.484375 "/></g></g></g><g clip-path="url(#7e78828412)"><path fill="#ffffff" d="M 49.90625 40.316406 L 50.734375 40.316406 C 52.414062 40.59375 53.421875 41.476562 54.667969 42.523438 C 55.183594 42.953125 55.84375 43.011719 56.359375 42.582031 C 57.652344 41.496094 59.105469 40.425781 60.769531 40.527344 C 63.191406 40.683594 65.273438 42.933594 64.65625 45.4375 C 64.324219 46.785156 63.410156 47.636719 62.199219 48.378906 C 60.5625 49.382812 58.945312 50.421875 57.347656 51.496094 C 56.726562 51.914062 56.1875 52.421875 55.648438 52.925781 C 55.570312 52.996094 55.496094 52.996094 55.425781 52.921875 C 54.6875 52.199219 53.878906 51.542969 52.988281 50.960938 C 51.398438 49.917969 49.8125 48.859375 48.238281 47.789062 C 44.882812 45.503906 46.003906 41.039062 49.90625 40.316406 Z M 49.90625 40.316406 " fill-opacity="1" fill-rule="nonzero"/></g><g clip-path="url(#3f6779bbd6)"><path fill="#ffffff" d="M 111.125 90.238281 L 111.125 112.054688 C 111.003906 112.5625 110.710938 112.941406 110.242188 113.195312 C 105.648438 115.671875 101.050781 118.144531 96.453125 120.613281 C 96.191406 120.753906 95.992188 120.863281 95.796875 121.113281 C 95.210938 121.855469 94.621094 122.597656 94.027344 123.332031 C 88.652344 129.984375 81.851562 134.511719 73.621094 136.914062 C 73.539062 136.941406 73.496094 136.996094 73.496094 137.082031 C 73.492188 143.601562 73.492188 150.132812 73.496094 156.683594 C 73.496094 157.492188 73.417969 158.113281 73.269531 158.542969 C 72.886719 159.632812 72.144531 160.398438 71.039062 160.84375 C 70.714844 160.976562 70.3125 161.042969 69.832031 161.042969 C 60.265625 161.039062 50.691406 161.039062 41.121094 161.042969 C 39.460938 161.042969 38.15625 160.253906 37.578125 158.671875 C 37.433594 158.265625 37.359375 157.699219 37.359375 156.964844 C 37.359375 150.320312 37.359375 143.695312 37.359375 137.085938 C 37.359375 136.996094 37.316406 136.9375 37.226562 136.910156 C 28.175781 134.160156 20.882812 129 15.355469 121.425781 C 14.980469 120.914062 14.621094 120.566406 14.273438 120.386719 C 7.824219 117.011719 3.222656 114.554688 0.464844 113.011719 C 0.160156 112.84375 -0.0273438 112.488281 -0.105469 111.945312 L -0.105469 90.296875 C 0.03125 89.730469 0.257812 89.398438 0.796875 89.109375 C 5.203125 86.734375 9.585938 84.355469 13.9375 81.96875 C 14.070312 81.894531 14.164062 81.789062 14.222656 81.648438 C 18.46875 71.554688 25.617188 63.429688 35.488281 58.589844 C 40.34375 56.210938 45.488281 54.753906 50.929688 54.21875 C 59.988281 53.328125 68.492188 54.941406 76.4375 59.058594 C 85.265625 63.632812 92.148438 71.253906 96.132812 80.324219 C 96.417969 80.980469 96.621094 81.445312 96.738281 81.726562 C 96.761719 81.78125 96.796875 81.820312 96.847656 81.847656 C 101.066406 84.160156 105.289062 86.464844 109.511719 88.761719 C 110.40625 89.246094 110.886719 89.398438 111.125 90.238281 Z M 59.140625 91.683594 C 59.039062 91.8125 58.90625 91.875 58.742188 91.875 L 52.207031 91.867188 C 52.035156 91.867188 51.890625 91.800781 51.785156 91.664062 C 50.105469 89.558594 48.433594 87.484375 46.769531 85.441406 C 46.585938 85.21875 46.390625 85.105469 46.183594 85.105469 C 42.050781 85.109375 37.914062 85.113281 33.78125 85.121094 C 27.886719 85.132812 22.890625 90.253906 21.773438 95.816406 C 21.621094 96.5625 21.546875 97.589844 21.542969 98.894531 C 21.539062 102.960938 21.539062 107.023438 21.542969 111.085938 C 21.542969 112.496094 21.617188 113.601562 21.765625 114.398438 C 22.167969 116.550781 22.984375 118.523438 24.214844 120.320312 C 26.660156 123.898438 30.960938 126.578125 35.402344 126.578125 C 48.730469 126.574219 62.058594 126.570312 75.386719 126.570312 C 76.433594 126.570312 77.390625 126.515625 78.285156 126.28125 C 84.070312 124.75 88.308594 120.121094 89.285156 114.238281 C 89.414062 113.476562 89.476562 112.371094 89.476562 110.921875 C 89.476562 106.691406 89.480469 102.460938 89.480469 98.230469 C 89.480469 91.609375 83.996094 85.117188 77.199219 85.113281 C 73.015625 85.113281 68.875 85.109375 64.777344 85.109375 C 64.589844 85.105469 64.4375 85.179688 64.320312 85.324219 Z M 55.480469 143.015625 C 54.375 141.617188 53.398438 140.265625 51.601562 139.753906 C 50.304688 139.382812 48.914062 139.675781 47.839844 140.460938 C 45.179688 142.402344 45.203125 145.621094 47.148438 148.054688 C 48.472656 149.714844 49.988281 151.53125 51.691406 153.507812 C 52.449219 154.386719 53.058594 154.957031 53.519531 155.21875 C 54.558594 155.816406 55.683594 155.894531 56.898438 155.457031 C 57.878906 155.105469 58.40625 154.472656 59.09375 153.675781 C 60.28125 152.308594 61.457031 150.929688 62.625 149.542969 C 63.816406 148.128906 65 146.570312 65.15625 144.800781 C 65.371094 142.476562 63.914062 140.371094 61.644531 139.75 C 61.160156 139.617188 60.722656 139.566406 60.335938 139.601562 C 58.226562 139.792969 56.761719 141.273438 55.625 143.011719 C 55.578125 143.078125 55.53125 143.082031 55.480469 143.015625 Z M 55.480469 143.015625 " fill-opacity="1" fill-rule="nonzero"/></g><path fill="#ffffff" d="M 34.90625 112.292969 C 34.441406 112.25 33.988281 112.160156 33.542969 112.027344 C 33.097656 111.890625 32.667969 111.714844 32.257812 111.492188 C 31.847656 111.273438 31.464844 111.015625 31.101562 110.71875 C 30.742188 110.417969 30.414062 110.089844 30.117188 109.726562 C 29.824219 109.363281 29.566406 108.972656 29.34375 108.558594 C 29.125 108.144531 28.945312 107.710938 28.808594 107.261719 C 28.675781 106.808594 28.582031 106.351562 28.535156 105.878906 C 28.488281 105.410156 28.488281 104.941406 28.53125 104.472656 C 28.578125 104.003906 28.667969 103.542969 28.800781 103.089844 C 28.933594 102.636719 29.109375 102.203125 29.328125 101.785156 C 29.546875 101.367188 29.800781 100.976562 30.097656 100.609375 C 30.390625 100.242188 30.71875 99.910156 31.074219 99.609375 C 31.433594 99.304688 31.816406 99.042969 32.226562 98.820312 C 32.636719 98.59375 33.0625 98.414062 33.507812 98.273438 C 33.953125 98.132812 34.40625 98.039062 34.871094 97.992188 C 35.332031 97.941406 35.796875 97.941406 36.257812 97.984375 C 36.722656 98.027344 37.175781 98.117188 37.621094 98.25 C 38.066406 98.386719 38.492188 98.5625 38.902344 98.78125 C 39.3125 99.003906 39.699219 99.261719 40.058594 99.558594 C 40.421875 99.855469 40.75 100.1875 41.042969 100.550781 C 41.339844 100.914062 41.597656 101.300781 41.816406 101.71875 C 42.039062 102.132812 42.214844 102.566406 42.351562 103.015625 C 42.488281 103.464844 42.582031 103.925781 42.625 104.394531 C 42.671875 104.863281 42.675781 105.335938 42.628906 105.804688 C 42.585938 106.273438 42.496094 106.734375 42.363281 107.1875 C 42.230469 107.640625 42.054688 108.074219 41.835938 108.492188 C 41.617188 108.910156 41.359375 109.300781 41.066406 109.667969 C 40.773438 110.035156 40.445312 110.367188 40.085938 110.667969 C 39.730469 110.96875 39.34375 111.234375 38.933594 111.457031 C 38.527344 111.683594 38.097656 111.863281 37.652344 112.003906 C 37.210938 112.144531 36.757812 112.238281 36.292969 112.285156 C 35.832031 112.335938 35.367188 112.335938 34.90625 112.292969 Z M 34.90625 112.292969 " fill-opacity="1" fill-rule="nonzero"/><path fill="#ffffff" d="M 80.253906 99.859375 C 82.390625 101.78125 83.238281 105.097656 82.113281 107.808594 C 80.734375 111.113281 77.289062 112.996094 73.765625 112.128906 C 70.054688 111.21875 67.703125 107.484375 68.496094 103.675781 C 68.824219 102.097656 69.585938 100.789062 70.785156 99.746094 C 73.648438 97.253906 77.445312 97.339844 80.253906 99.859375 Z M 80.253906 99.859375 " fill-opacity="1" fill-rule="nonzero"/><path fill="#ffffff" d="M 48.308594 114.75 C 50.625 116.222656 53.078125 116.992188 55.882812 116.898438 C 58.410156 116.808594 60.773438 115.996094 62.96875 114.457031 C 63.105469 114.359375 63.296875 114.339844 63.550781 114.394531 C 64.5 114.59375 64.484375 115.53125 63.78125 116.027344 C 61.925781 117.34375 59.941406 118.171875 57.828125 118.515625 C 53.8125 119.175781 50.132812 118.300781 46.792969 115.890625 C 46.613281 115.761719 46.558594 115.535156 46.625 115.21875 C 46.851562 114.171875 47.574219 114.28125 48.308594 114.75 Z M 48.308594 114.75 " fill-opacity="1" fill-rule="nonzero"/><g clip-path="url(#5c9d831f62)"><path fill="#ffffff" d="M 46.8125 56.246094 C 46.464844 56.246094 46.183594 55.984375 46.289062 55.617188 C 46.394531 55.257812 46.710938 54.8125 47.613281 54.742188 C 50.398438 54.527344 54.214844 54.230469 54.214844 50.722656 L 54.214844 36.976562 C 54.214844 33.652344 52.257812 32.539062 50.683594 31.644531 C 47.402344 29.773438 44.804688 27.480469 44.128906 23.3125 C 43.386719 18.699219 46.5625 8.75 46.699219 8.328125 L 63.652344 8.328125 C 63.789062 8.75 66.964844 18.699219 66.21875 23.3125 C 65.546875 27.480469 62.945312 29.773438 59.664062 31.644531 C 58.09375 32.539062 56.136719 33.652344 56.136719 36.976562 L 56.136719 50.722656 C 56.136719 54.230469 59.953125 54.527344 62.738281 54.742188 C 63.640625 54.8125 63.953125 55.257812 64.058594 55.617188 C 64.167969 55.984375 63.886719 56.246094 63.535156 56.246094 L 46.8125 56.246094 " fill-opacity="1" fill-rule="nonzero"/></g></svg>