<svg xmlns="http://www.w3.org/2000/svg" xmlns:xlink="http://www.w3.org/1999/xlink" width="336" zoomAndPan="magnify" viewBox="0 0 252 143.999998" height="192" preserveAspectRatio="xMidYMid meet" version="1.0"><defs><g/><clipPath id="b0845ff4b8"><path d="M 46 52.929688 L 65 52.929688 L 65 54 L 46 54 Z M 46 52.929688 " clip-rule="nonzero"/></clipPath><clipPath id="e0c2e0c498"><path d="M 0 54 L 110.25 54 L 110.25 135.429688 L 0 135.429688 Z M 0 54 " clip-rule="nonzero"/></clipPath><clipPath id="7b0ab2be0e"><path d="M 44.019531 8.328125 L 66.496094 8.328125 L 66.496094 56.328125 L 44.019531 56.328125 Z M 44.019531 8.328125 " clip-rule="nonzero"/></clipPath></defs><g fill="#000000" fill-opacity="1"><g transform="translate(115.082759, 107.298243)"><g><path d="M 9.3125 -11.484375 L 9.3125 -9.296875 L 3.75 -9.296875 L 3.75 -6.84375 L 8.671875 -6.84375 L 8.671875 -4.65625 L 3.75 -4.65625 L 3.75 -2.1875 L 9.53125 -2.1875 L 9.53125 0 L 1.484375 0 L 1.484375 -11.484375 Z M 9.3125 -11.484375 "/></g></g></g><g fill="#000000" fill-opacity="1"><g transform="translate(137.948109, 107.298243)"><g><path d="M 11.8125 -11.484375 L 11.8125 0.46875 L 11.75 0.46875 L 3.734375 -6.78125 L 3.78125 0 L 1.484375 0 L 1.484375 -11.921875 L 1.578125 -11.921875 L 9.59375 -4.5625 L 9.546875 -11.484375 Z M 11.8125 -11.484375 "/></g></g></g><g fill="#000000" fill-opacity="1"><g transform="translate(163.729485, 107.298243)"><g><path d="M 0.78125 -5.71875 C 0.78125 -6.757812 1.039062 -7.734375 1.5625 -8.640625 C 2.09375 -9.546875 2.804688 -10.265625 3.703125 -10.796875 C 4.597656 -11.335938 5.570312 -11.609375 6.625 -11.609375 C 7.675781 -11.609375 8.648438 -11.335938 9.546875 -10.796875 C 10.453125 -10.265625 11.171875 -9.546875 11.703125 -8.640625 C 12.234375 -7.734375 12.5 -6.757812 12.5 -5.71875 C 12.5 -4.65625 12.234375 -3.675781 11.703125 -2.78125 C 11.171875 -1.894531 10.453125 -1.1875 9.546875 -0.65625 C 8.648438 -0.132812 7.675781 0.125 6.625 0.125 C 5.5625 0.125 4.582031 -0.132812 3.6875 -0.65625 C 2.800781 -1.1875 2.09375 -1.894531 1.5625 -2.78125 C 1.039062 -3.675781 0.78125 -4.65625 0.78125 -5.71875 Z M 3.125 -5.71875 C 3.125 -5.050781 3.28125 -4.4375 3.59375 -3.875 C 3.90625 -3.320312 4.332031 -2.878906 4.875 -2.546875 C 5.425781 -2.222656 6.035156 -2.0625 6.703125 -2.0625 C 7.347656 -2.0625 7.9375 -2.222656 8.46875 -2.546875 C 9 -2.878906 9.414062 -3.320312 9.71875 -3.875 C 10.019531 -4.425781 10.171875 -5.039062 10.171875 -5.71875 C 10.171875 -6.40625 10.015625 -7.03125 9.703125 -7.59375 C 9.390625 -8.15625 8.960938 -8.597656 8.421875 -8.921875 C 7.890625 -9.253906 7.296875 -9.421875 6.640625 -9.421875 C 5.984375 -9.421875 5.382812 -9.253906 4.84375 -8.921875 C 4.3125 -8.597656 3.890625 -8.15625 3.578125 -7.59375 C 3.273438 -7.03125 3.125 -6.40625 3.125 -5.71875 Z M 3.125 -5.71875 "/></g></g></g><g fill="#000000" fill-opacity="1"><g transform="translate(189.495271, 107.298243)"><g><path d="M 7.390625 -6.046875 C 7.992188 -5.765625 8.460938 -5.394531 8.796875 -4.9375 C 9.140625 -4.488281 9.3125 -3.972656 9.3125 -3.390625 C 9.3125 -2.222656 8.925781 -1.363281 8.15625 -0.8125 C 7.394531 -0.269531 6.441406 0 5.296875 0 L 1.484375 0 L 1.484375 -11.484375 L 4.84375 -11.484375 C 6.0625 -11.484375 7.019531 -11.234375 7.71875 -10.734375 C 8.414062 -10.242188 8.765625 -9.53125 8.765625 -8.59375 C 8.765625 -8.019531 8.644531 -7.515625 8.40625 -7.078125 C 8.164062 -6.648438 7.828125 -6.304688 7.390625 -6.046875 Z M 3.75 -6.78125 L 5.109375 -6.78125 C 5.523438 -6.78125 5.847656 -6.90625 6.078125 -7.15625 C 6.304688 -7.414062 6.421875 -7.734375 6.421875 -8.109375 C 6.421875 -8.492188 6.289062 -8.785156 6.03125 -8.984375 C 5.769531 -9.191406 5.410156 -9.296875 4.953125 -9.296875 L 3.75 -9.296875 Z M 5.1875 -2.109375 C 5.71875 -2.109375 6.144531 -2.210938 6.46875 -2.421875 C 6.800781 -2.640625 6.96875 -2.960938 6.96875 -3.390625 C 6.96875 -4.191406 6.320312 -4.59375 5.03125 -4.59375 L 3.75 -4.59375 L 3.75 -2.109375 Z M 5.1875 -2.109375 "/></g></g></g><g fill="#000000" fill-opacity="1"><g transform="translate(212.064335, 107.298243)"><g><path d="M 0.78125 -5.71875 C 0.78125 -6.757812 1.039062 -7.734375 1.5625 -8.640625 C 2.09375 -9.546875 2.804688 -10.265625 3.703125 -10.796875 C 4.597656 -11.335938 5.570312 -11.609375 6.625 -11.609375 C 7.675781 -11.609375 8.648438 -11.335938 9.546875 -10.796875 C 10.453125 -10.265625 11.171875 -9.546875 11.703125 -8.640625 C 12.234375 -7.734375 12.5 -6.757812 12.5 -5.71875 C 12.5 -4.65625 12.234375 -3.675781 11.703125 -2.78125 C 11.171875 -1.894531 10.453125 -1.1875 9.546875 -0.65625 C 8.648438 -0.132812 7.675781 0.125 6.625 0.125 C 5.5625 0.125 4.582031 -0.132812 3.6875 -0.65625 C 2.800781 -1.1875 2.09375 -1.894531 1.5625 -2.78125 C 1.039062 -3.675781 0.78125 -4.65625 0.78125 -5.71875 Z M 3.125 -5.71875 C 3.125 -5.050781 3.28125 -4.4375 3.59375 -3.875 C 3.90625 -3.320312 4.332031 -2.878906 4.875 -2.546875 C 5.425781 -2.222656 6.035156 -2.0625 6.703125 -2.0625 C 7.347656 -2.0625 7.9375 -2.222656 8.46875 -2.546875 C 9 -2.878906 9.414062 -3.320312 9.71875 -3.875 C 10.019531 -4.425781 10.171875 -5.039062 10.171875 -5.71875 C 10.171875 -6.40625 10.015625 -7.03125 9.703125 -7.59375 C 9.390625 -8.15625 8.960938 -8.597656 8.421875 -8.921875 C 7.890625 -9.253906 7.296875 -9.421875 6.640625 -9.421875 C 5.984375 -9.421875 5.382812 -9.253906 4.84375 -8.921875 C 4.3125 -8.597656 3.890625 -8.15625 3.578125 -7.59375 C 3.273438 -7.03125 3.125 -6.40625 3.125 -5.71875 Z M 3.125 -5.71875 "/></g></g></g><g fill="#000000" fill-opacity="1"><g transform="translate(237.830116, 107.298243)"><g><path d="M 8.4375 -11.484375 L 8.4375 -9.296875 L 5.640625 -9.296875 L 5.640625 0 L 3.390625 0 L 3.390625 -9.296875 L 0.703125 -9.296875 L 0.703125 -11.484375 Z M 8.4375 -11.484375 "/></g></g></g><g clip-path="url(#b0845ff4b8)"><path fill="#000000" d="M 49.773438 40.339844 L 50.601562 40.339844 C 52.273438 40.617188 53.28125 41.5 54.523438 42.546875 C 55.035156 42.980469 55.699219 43.039062 56.207031 42.609375 C 57.5 41.519531 58.949219 40.445312 60.609375 40.550781 C 63.023438 40.703125 65.101562 42.957031 64.484375 45.46875 C 64.152344 46.820312 63.242188 47.671875 62.035156 48.414062 C 60.402344 49.421875 58.789062 50.460938 57.195312 51.539062 C 56.578125 51.957031 56.039062 52.464844 55.5 52.96875 C 55.425781 53.039062 55.351562 53.039062 55.277344 52.964844 C 54.542969 52.238281 53.734375 51.585938 52.847656 51 C 51.261719 49.953125 49.683594 48.894531 48.113281 47.820312 C 44.765625 45.535156 45.882812 41.0625 49.773438 40.339844 Z M 49.773438 40.339844 " fill-opacity="1" fill-rule="nonzero"/></g><g clip-path="url(#e0c2e0c498)"><path fill="#000000" d="M 110.832031 90.347656 L 110.832031 112.199219 C 110.710938 112.707031 110.417969 113.089844 109.949219 113.34375 C 105.371094 115.824219 100.785156 118.300781 96.199219 120.773438 C 95.9375 120.917969 95.738281 121.023438 95.542969 121.273438 C 94.960938 122.019531 94.371094 122.761719 93.777344 123.496094 C 88.417969 130.160156 81.636719 134.695312 73.425781 137.105469 C 73.34375 137.128906 73.300781 137.183594 73.300781 137.273438 C 73.300781 143.800781 73.300781 150.347656 73.300781 156.90625 C 73.300781 157.71875 73.226562 158.339844 73.074219 158.769531 C 72.695312 159.859375 71.953125 160.628906 70.851562 161.074219 C 70.527344 161.207031 70.128906 161.273438 69.648438 161.273438 C 60.105469 161.269531 50.558594 161.269531 41.011719 161.273438 C 39.355469 161.273438 38.054688 160.480469 37.480469 158.898438 C 37.332031 158.492188 37.257812 157.921875 37.257812 157.1875 C 37.257812 150.53125 37.257812 143.894531 37.257812 137.273438 C 37.257812 137.183594 37.214844 137.125 37.128906 137.097656 C 28.101562 134.34375 20.828125 129.171875 15.3125 121.589844 C 14.941406 121.074219 14.582031 120.726562 14.238281 120.546875 C 7.804688 117.167969 3.214844 114.703125 0.460938 113.15625 C 0.160156 112.988281 -0.03125 112.632812 -0.105469 112.089844 L -0.105469 90.402344 C 0.03125 89.835938 0.257812 89.503906 0.792969 89.214844 C 5.191406 86.835938 9.558594 84.453125 13.898438 82.0625 C 14.03125 81.988281 14.128906 81.882812 14.1875 81.742188 C 18.417969 71.628906 25.550781 63.488281 35.394531 58.644531 C 40.234375 56.257812 45.371094 54.796875 50.792969 54.261719 C 59.832031 53.371094 68.3125 54.988281 76.238281 59.113281 C 85.042969 63.691406 91.90625 71.332031 95.878906 80.414062 C 96.164062 81.070312 96.367188 81.539062 96.484375 81.820312 C 96.507812 81.875 96.542969 81.914062 96.59375 81.941406 C 100.800781 84.257812 105.007812 86.566406 109.222656 88.867188 C 110.117188 89.355469 110.59375 89.503906 110.832031 90.347656 Z M 58.984375 91.796875 C 58.882812 91.921875 58.75 91.984375 58.589844 91.984375 L 52.070312 91.980469 C 51.894531 91.980469 51.753906 91.910156 51.648438 91.773438 C 49.976562 89.664062 48.308594 87.589844 46.644531 85.542969 C 46.464844 85.316406 46.269531 85.207031 46.0625 85.207031 C 41.9375 85.207031 37.816406 85.210938 33.691406 85.21875 C 27.816406 85.230469 22.832031 90.359375 21.714844 95.9375 C 21.566406 96.683594 21.488281 97.710938 21.488281 99.019531 C 21.480469 103.089844 21.480469 107.160156 21.484375 111.230469 C 21.484375 112.644531 21.5625 113.75 21.710938 114.546875 C 22.109375 116.703125 22.921875 118.679688 24.148438 120.480469 C 26.589844 124.0625 30.878906 126.75 35.308594 126.746094 C 48.601562 126.746094 61.894531 126.742188 75.1875 126.742188 C 76.234375 126.742188 77.1875 126.6875 78.078125 126.449219 C 83.847656 124.917969 88.074219 120.28125 89.050781 114.390625 C 89.175781 113.625 89.242188 112.515625 89.242188 111.066406 C 89.242188 106.828125 89.242188 102.589844 89.242188 98.351562 C 89.242188 91.71875 83.773438 85.21875 76.996094 85.214844 C 72.824219 85.210938 68.695312 85.207031 64.605469 85.207031 C 64.417969 85.207031 64.269531 85.277344 64.152344 85.421875 Z M 55.332031 143.214844 C 54.230469 141.8125 53.257812 140.460938 51.464844 139.945312 C 50.171875 139.578125 48.785156 139.871094 47.714844 140.652344 C 45.058594 142.597656 45.082031 145.824219 47.023438 148.265625 C 48.34375 149.925781 49.855469 151.746094 51.554688 153.726562 C 52.308594 154.605469 52.917969 155.175781 53.378906 155.441406 C 54.414062 156.039062 55.539062 156.117188 56.75 155.679688 C 57.726562 155.324219 58.253906 154.691406 58.9375 153.894531 C 60.121094 152.523438 61.292969 151.144531 62.457031 149.753906 C 63.648438 148.335938 64.828125 146.773438 64.984375 145.003906 C 65.195312 142.675781 63.746094 140.566406 61.484375 139.945312 C 60.996094 139.8125 60.5625 139.761719 60.175781 139.796875 C 58.074219 139.988281 56.613281 141.472656 55.476562 143.210938 C 55.433594 143.28125 55.382812 143.28125 55.332031 143.214844 Z M 55.332031 143.214844 " fill-opacity="1" fill-rule="nonzero"/></g><path fill="#000000" d="M 34.8125 112.4375 C 34.351562 112.394531 33.898438 112.304688 33.453125 112.171875 C 33.011719 112.035156 32.582031 111.859375 32.175781 111.636719 C 31.765625 111.417969 31.378906 111.15625 31.019531 110.859375 C 30.660156 110.5625 30.335938 110.230469 30.039062 109.867188 C 29.746094 109.503906 29.488281 109.113281 29.265625 108.699219 C 29.046875 108.28125 28.871094 107.847656 28.734375 107.398438 C 28.597656 106.945312 28.507812 106.484375 28.460938 106.015625 C 28.414062 105.546875 28.414062 105.074219 28.457031 104.605469 C 28.5 104.132812 28.589844 103.671875 28.722656 103.21875 C 28.859375 102.765625 29.03125 102.332031 29.25 101.914062 C 29.46875 101.496094 29.722656 101.101562 30.015625 100.734375 C 30.308594 100.367188 30.636719 100.035156 30.992188 99.730469 C 31.351562 99.429688 31.734375 99.167969 32.144531 98.941406 C 32.550781 98.714844 32.976562 98.535156 33.421875 98.394531 C 33.863281 98.253906 34.316406 98.160156 34.777344 98.113281 C 35.238281 98.0625 35.699219 98.0625 36.160156 98.105469 C 36.625 98.148438 37.078125 98.238281 37.519531 98.371094 C 37.964844 98.507812 38.390625 98.683594 38.800781 98.90625 C 39.210938 99.125 39.59375 99.386719 39.953125 99.683594 C 40.3125 99.980469 40.640625 100.3125 40.9375 100.675781 C 41.230469 101.039062 41.488281 101.429688 41.707031 101.84375 C 41.925781 102.261719 42.105469 102.695312 42.242188 103.144531 C 42.375 103.597656 42.46875 104.058594 42.515625 104.527344 C 42.5625 105 42.5625 105.46875 42.519531 105.9375 C 42.472656 106.410156 42.382812 106.871094 42.25 107.324219 C 42.117188 107.777344 41.941406 108.214844 41.722656 108.632812 C 41.507812 109.050781 41.25 109.441406 40.957031 109.808594 C 40.664062 110.175781 40.339844 110.511719 39.980469 110.8125 C 39.625 111.113281 39.242188 111.375 38.832031 111.601562 C 38.425781 111.828125 38 112.007812 37.554688 112.148438 C 37.109375 112.289062 36.660156 112.382812 36.199219 112.429688 C 35.734375 112.480469 35.273438 112.484375 34.8125 112.4375 Z M 34.8125 112.4375 " fill-opacity="1" fill-rule="nonzero"/><path fill="#000000" d="M 80.042969 99.984375 C 82.175781 101.90625 83.019531 105.230469 81.894531 107.945312 C 80.523438 111.257812 77.085938 113.140625 73.570312 112.273438 C 69.867188 111.363281 67.523438 107.621094 68.3125 103.808594 C 68.640625 102.226562 69.402344 100.914062 70.597656 99.867188 C 73.453125 97.371094 77.242188 97.460938 80.042969 99.984375 Z M 80.042969 99.984375 " fill-opacity="1" fill-rule="nonzero"/><path fill="#000000" d="M 48.183594 114.898438 C 50.492188 116.375 52.9375 117.148438 55.734375 117.050781 C 58.257812 116.964844 60.613281 116.148438 62.804688 114.605469 C 62.9375 114.511719 63.132812 114.488281 63.382812 114.542969 C 64.328125 114.742188 64.3125 115.683594 63.613281 116.179688 C 61.761719 117.496094 59.785156 118.328125 57.675781 118.675781 C 53.667969 119.332031 50 118.457031 46.667969 116.042969 C 46.488281 115.914062 46.433594 115.6875 46.503906 115.367188 C 46.726562 114.320312 47.445312 114.429688 48.183594 114.898438 Z M 48.183594 114.898438 " fill-opacity="1" fill-rule="nonzero"/><g clip-path="url(#7b0ab2be0e)"><path fill="#000000" d="M 46.835938 56.328125 C 46.480469 56.328125 46.199219 56.066406 46.308594 55.699219 C 46.414062 55.339844 46.730469 54.890625 47.636719 54.824219 C 50.445312 54.605469 54.289062 54.308594 54.289062 50.796875 L 54.289062 37.023438 C 54.289062 33.699219 52.316406 32.582031 50.734375 31.683594 C 47.429688 29.808594 44.808594 27.511719 44.132812 23.335938 C 43.382812 18.714844 46.582031 8.75 46.71875 8.328125 L 63.796875 8.328125 C 63.933594 8.75 67.132812 18.714844 66.382812 23.335938 C 65.707031 27.511719 63.085938 29.808594 59.78125 31.683594 C 58.195312 32.582031 56.226562 33.699219 56.226562 37.023438 L 56.226562 50.796875 C 56.226562 54.308594 60.070312 54.605469 62.875 54.824219 C 63.785156 54.890625 64.101562 55.339844 64.207031 55.699219 C 64.316406 56.066406 64.03125 56.328125 63.679688 56.328125 L 46.835938 56.328125 " fill-opacity="1" fill-rule="nonzero"/></g></svg>