<svg xmlns="http://www.w3.org/2000/svg" xmlns:xlink="http://www.w3.org/1999/xlink" width="500" zoomAndPan="magnify" viewBox="0 0 375 374.999991" height="500" preserveAspectRatio="xMidYMid meet" version="1.0"><path fill="#1d1d1b" d="M 138.070312 149.324219 C 139.917969 149.324219 141.414062 147.828125 141.414062 145.980469 C 141.414062 144.132812 139.917969 142.640625 138.070312 142.640625 L 132.78125 142.640625 C 124.097656 142.640625 115.734375 146.097656 109.238281 152.378906 C 101.894531 159.46875 93.382812 159.714844 83.929688 153.105469 C 78.09375 149.027344 74.949219 144.191406 74.316406 138.335938 C 72.8125 124.464844 86.136719 109.832031 86.273438 109.691406 C 87.523438 108.332031 87.4375 106.21875 86.082031 104.96875 C 84.722656 103.71875 82.617188 103.800781 81.359375 105.152344 C 80.726562 105.835938 65.847656 122.121094 67.660156 139.027344 C 68.496094 146.820312 72.679688 153.398438 80.09375 158.582031 C 86.390625 162.984375 92.019531 164.59375 96.882812 164.59375 C 104.636719 164.59375 110.441406 160.515625 113.890625 157.183594 C 119.132812 152.113281 125.84375 149.324219 132.78125 149.324219 Z M 138.070312 149.324219 " fill-opacity="1" fill-rule="nonzero"/><path fill="#1d1d1b" d="M 176.839844 127.289062 C 176.261719 119.621094 173.328125 111.773438 168.355469 104.585938 L 140.984375 65.015625 C 134.292969 55.351562 128.285156 45.097656 123.121094 34.539062 L 107.464844 2.542969 C 106.65625 0.886719 104.648438 0.195312 102.988281 1.007812 C 101.332031 1.820312 100.644531 3.824219 101.453125 5.480469 L 117.113281 37.476562 C 122.421875 48.332031 128.601562 58.878906 135.484375 68.816406 L 162.855469 108.386719 C 167.148438 114.597656 169.675781 121.304688 170.167969 127.792969 C 170.78125 135.980469 168.695312 142.351562 163.785156 147.265625 C 151.351562 159.707031 125.199219 157.929688 124.953125 157.921875 C 123.046875 157.757812 121.5 159.164062 121.367188 161.003906 C 121.230469 162.847656 122.613281 164.449219 124.453125 164.585938 C 124.71875 164.605469 126.324219 164.714844 128.824219 164.714844 C 137.546875 164.714844 157.144531 163.359375 168.503906 152.003906 C 174.796875 145.71875 177.597656 137.402344 176.839844 127.289062 Z M 176.839844 127.289062 " fill-opacity="1" fill-rule="nonzero"/><path fill="#1d1d1b" d="M 308.324219 271.277344 C 308.324219 271.222656 308.332031 271.167969 308.335938 271.113281 C 308.351562 269.269531 308.238281 267.429688 308.09375 265.59375 C 308.066406 265.214844 308.082031 264.835938 308.046875 264.457031 C 307.917969 263.132812 307.664062 261.828125 307.449219 260.515625 C 307.308594 259.636719 307.230469 258.75 307.050781 257.882812 C 306.917969 257.253906 306.707031 256.644531 306.558594 256.019531 C 304.648438 248.035156 301.226562 240.394531 296.25 233.605469 L 294.457031 231.164062 L 292.820312 228.921875 C 292.816406 228.910156 292.800781 228.90625 292.792969 228.894531 L 231.441406 145.242188 C 230.460938 143.90625 228.652344 143.484375 227.183594 144.257812 L 150.601562 184.640625 C 149.125 185.421875 148.449219 187.167969 149.015625 188.734375 L 172.554688 253.820312 L 186.21875 291.65625 C 192.40625 308.722656 205.695312 322.269531 222.671875 328.824219 C 230.003906 331.65625 237.714844 333.0625 245.402344 333.0625 C 253.027344 333.0625 260.632812 331.675781 267.84375 328.9375 C 269.226562 328.410156 270.558594 327.726562 271.910156 327.101562 L 297.761719 373.289062 C 298.375 374.382812 299.511719 375 300.683594 375 C 301.238281 375 301.796875 374.859375 302.316406 374.574219 C 303.925781 373.671875 304.503906 371.636719 303.601562 370.023438 L 277.835938 323.992188 C 288.539062 317.582031 297.0625 308.269531 302.324219 297.164062 C 302.679688 296.417969 302.941406 295.628906 303.265625 294.867188 C 303.820312 293.574219 304.402344 292.292969 304.871094 290.953125 C 305.335938 289.613281 305.679688 288.21875 306.058594 286.835938 C 306.273438 286.039062 306.558594 285.265625 306.746094 284.453125 C 306.746094 284.449219 306.746094 284.445312 306.746094 284.441406 C 306.75 284.433594 306.753906 284.425781 306.753906 284.414062 C 307.21875 282.390625 307.554688 280.351562 307.8125 278.3125 C 307.835938 278.140625 307.882812 277.96875 307.902344 277.796875 C 308.160156 275.625 308.296875 273.449219 308.324219 271.277344 Z M 227.75 151.515625 L 283.511719 227.546875 L 170.164062 227.546875 L 156.296875 189.199219 Z M 227.75 151.515625 " fill-opacity="1" fill-rule="nonzero"/></svg>