<svg xmlns="http://www.w3.org/2000/svg" xmlns:xlink="http://www.w3.org/1999/xlink" width="500" zoomAndPan="magnify" viewBox="0 0 375 374.999991" height="500" preserveAspectRatio="xMidYMid meet" version="1.0"><defs><clipPath id="ed005ab650"><path d="M 0 307 L 53 307 L 53 374.71875 L 0 374.71875 Z M 0 307 " clip-rule="nonzero"/></clipPath><clipPath id="b91a22f04a"><path d="M 0 0.46875 L 375 0.46875 L 375 374.71875 L 0 374.71875 Z M 0 0.46875 " clip-rule="nonzero"/></clipPath></defs><g clip-path="url(#ed005ab650)"><path fill="#000000" d="M 48.601562 307.40625 C 48.417969 307.507812 30.386719 317.382812 20.863281 317.847656 C 11.679688 318.308594 5.214844 314.238281 5.152344 314.195312 C 5.105469 314.164062 5.046875 314.164062 4.996094 314.136719 C 4.828125 314.039062 4.652344 313.984375 4.464844 313.921875 C 4.277344 313.859375 4.09375 313.789062 3.898438 313.765625 C 3.738281 313.746094 3.582031 313.765625 3.417969 313.773438 C 3.191406 313.78125 2.976562 313.792969 2.761719 313.851562 C 2.710938 313.863281 2.65625 313.851562 2.605469 313.867188 C 2.484375 313.910156 2.394531 314 2.28125 314.054688 C 2.09375 314.144531 1.914062 314.230469 1.75 314.359375 C 1.582031 314.488281 1.453125 314.636719 1.316406 314.796875 C 1.234375 314.894531 1.125 314.953125 1.054688 315.0625 C 1.023438 315.109375 1.023438 315.164062 0.996094 315.214844 C 0.890625 315.398438 0.828125 315.589844 0.765625 315.792969 C 0.710938 315.964844 0.644531 316.128906 0.621094 316.304688 C 0.597656 316.484375 0.617188 316.664062 0.628906 316.847656 C 0.640625 317.054688 0.648438 317.253906 0.703125 317.457031 C 0.71875 317.511719 0.703125 317.566406 0.722656 317.621094 L 18.96875 372.683594 C 19.382812 373.929688 20.542969 374.71875 21.785156 374.71875 C 22.09375 374.71875 22.410156 374.667969 22.71875 374.566406 C 24.273438 374.050781 25.117188 372.375 24.601562 370.816406 L 8.453125 322.078125 C 11.347656 323.015625 15.03125 323.824219 19.355469 323.824219 C 19.945312 323.824219 20.546875 323.808594 21.160156 323.777344 C 32.046875 323.242188 50.675781 313.042969 51.464844 312.605469 C 52.898438 311.816406 53.421875 310.011719 52.632812 308.574219 C 51.839844 307.136719 50.03125 306.621094 48.601562 307.40625 Z M 48.601562 307.40625 " fill-opacity="1" fill-rule="nonzero"/></g><g clip-path="url(#b91a22f04a)"><path fill="#000000" d="M 374.257812 311.644531 C 373.734375 310.09375 372.050781 309.261719 370.5 309.777344 C 356.691406 314.414062 345.074219 314.945312 335.113281 311.402344 C 341.507812 303.917969 346.890625 297.0625 349.722656 290.460938 C 358.640625 269.738281 358.089844 231.152344 345.273438 218.566406 C 339.277344 212.6875 329.160156 213.648438 317.445312 214.757812 C 303.714844 216.054688 288.152344 217.53125 276.449219 208.210938 C 260.792969 195.761719 266.886719 169.371094 270.917969 151.90625 C 272.28125 146.011719 273.355469 141.355469 273.355469 138.222656 C 273.355469 128.847656 269.578125 122.761719 267.433594 120.046875 C 275.585938 103.664062 279.789062 91.257812 279.96875 90.71875 C 280.019531 90.5625 280.03125 90.402344 280.054688 90.242188 C 280.066406 90.1875 280.097656 90.144531 280.105469 90.089844 C 280.109375 90.066406 280.097656 90.042969 280.097656 90.019531 C 280.128906 89.667969 280.09375 89.324219 280.003906 88.988281 C 279.980469 88.910156 279.945312 88.839844 279.917969 88.765625 C 279.824219 88.515625 279.703125 88.28125 279.546875 88.0625 C 279.488281 87.980469 279.433594 87.902344 279.367188 87.828125 C 279.324219 87.777344 279.296875 87.71875 279.25 87.671875 L 258.164062 66.664062 C 257.367188 65.246094 253.574219 57.851562 255.976562 49.476562 C 257.578125 43.84375 260.042969 41.054688 262.890625 37.828125 C 264.839844 35.617188 267.050781 33.109375 269.007812 29.5625 C 274.023438 20.535156 271.328125 3.878906 271.210938 3.171875 C 270.941406 1.554688 269.425781 0.457031 267.796875 0.730469 C 266.179688 1 265.089844 2.527344 265.355469 4.148438 C 266.0625 8.378906 267.15625 20.675781 263.816406 26.6875 C 262.171875 29.667969 260.359375 31.722656 258.441406 33.898438 C 255.390625 37.351562 252.242188 40.925781 250.273438 47.84375 C 249.242188 51.429688 249.117188 54.867188 249.433594 57.929688 L 199.675781 8.324219 C 198.839844 7.496094 197.597656 7.238281 196.503906 7.660156 C 193.121094 8.980469 113.457031 40.417969 95.226562 82.628906 C 83.609375 109.460938 86.339844 130.929688 90.679688 144.222656 C 92.640625 150.210938 91.207031 156.953125 86.9375 161.820312 C 85.511719 163.449219 83.894531 165.160156 82.199219 166.945312 L 66.222656 127.664062 C 63.71875 121.492188 57.78125 117.5 51.097656 117.5 C 49.046875 117.5 46.933594 117.914062 44.964844 118.703125 C 36.660156 122.097656 32.640625 131.632812 36.011719 139.964844 L 38.800781 146.804688 C 35.300781 145.703125 31.421875 145.761719 27.792969 147.253906 C 21.621094 149.757812 17.632812 155.699219 17.632812 162.386719 C 17.632812 162.957031 17.742188 163.535156 17.804688 164.113281 C 16.261719 163.601562 14.636719 163.304688 12.945312 163.304688 C 11.019531 163.304688 9.046875 163.6875 7.222656 164.414062 C 4.890625 165.371094 2.816406 166.898438 1.21875 168.839844 C 0.179688 170.101562 0.359375 171.976562 1.625 173.015625 C 2.886719 174.058594 4.757812 173.878906 5.800781 172.613281 C 6.789062 171.414062 8.023438 170.503906 9.449219 169.917969 C 10.558594 169.476562 11.765625 169.242188 12.945312 169.242188 C 16.515625 169.242188 19.71875 171.195312 21.242188 174.214844 L 21.582031 174.96875 C 21.585938 174.980469 21.597656 174.988281 21.601562 175 C 21.605469 175.011719 21.601562 175.023438 21.605469 175.035156 L 30.546875 196.074219 C 17.855469 192.554688 5.175781 185.226562 5.03125 185.140625 C 3.621094 184.316406 1.800781 184.792969 0.976562 186.210938 C 0.152344 187.628906 0.628906 189.445312 2.046875 190.269531 C 2.761719 190.6875 19.742188 200.511719 35.039062 203.1875 C 37.566406 203.632812 39.9375 203.859375 42.132812 203.859375 C 43.835938 203.859375 45.429688 203.722656 46.90625 203.453125 C 51.03125 202.710938 56.308594 199.679688 62.964844 194.273438 C 64.890625 195.144531 66.964844 195.609375 69.078125 195.691406 C 69.574219 200.210938 70.730469 205.261719 71.980469 210.582031 L 72.453125 212.605469 C 67.429688 218.917969 64.222656 224.203125 62.734375 228.617188 C 58.507812 227.148438 55.082031 224.207031 52.335938 219.632812 C 51.496094 218.226562 49.671875 217.769531 48.265625 218.613281 C 46.859375 219.457031 46.40625 221.28125 47.25 222.6875 C 50.886719 228.75 55.722656 232.722656 61.65625 234.53125 C 61.332031 241.851562 63.832031 250.429688 66.28125 258.03125 C 66.738281 259.480469 67.207031 260.933594 67.671875 262.371094 C 68.464844 264.828125 69.195312 267.152344 69.875 269.414062 C 56.28125 270.832031 43.960938 262.464844 28.257812 241.441406 C 27.277344 240.125 25.417969 239.855469 24.105469 240.839844 C 22.789062 241.820312 22.523438 243.679688 23.503906 244.992188 C 34.957031 260.335938 48.953125 275.488281 67.179688 275.488281 C 68.574219 275.488281 70 275.371094 71.445312 275.1875 C 72.910156 281.726562 72.515625 285.484375 70.21875 286.910156 C 68.613281 287.902344 65.3125 287.664062 61.164062 286.246094 C 45.054688 280.769531 15.679688 257 6.316406 232.222656 C 5.734375 230.6875 4.015625 229.914062 2.488281 230.492188 C 0.957031 231.074219 0.183594 232.785156 0.761719 234.320312 C 10.882812 261.09375 41.652344 285.882812 59.253906 291.867188 C 62.34375 292.921875 65.085938 293.445312 67.464844 293.445312 C 69.773438 293.445312 71.738281 292.949219 73.339844 291.957031 C 80.023438 287.816406 78.5625 278.617188 76.539062 271.050781 C 75.628906 267.714844 74.507812 264.234375 73.316406 260.546875 L 72.445312 257.832031 C 74.890625 254.859375 80.171875 247.261719 81.257812 236.03125 C 81.996094 228.664062 80.253906 220.105469 78.558594 212.65625 L 77.753906 209.222656 C 76.289062 203 74.910156 197.121094 74.742188 192.5 C 74.609375 188.753906 75.757812 184.375 78.148438 179.492188 C 79.121094 177.519531 80.644531 175.953125 82.539062 174.96875 C 84.886719 173.761719 87.550781 173.535156 90.0625 174.332031 C 94.210938 175.625 97 179.425781 97 183.789062 C 97 184.09375 96.972656 184.402344 96.949219 184.710938 L 96.867188 185.695312 C 96.804688 186.414062 96.742188 187.144531 96.699219 187.894531 C 96.675781 188.011719 96.660156 188.132812 96.652344 188.253906 C 95.980469 197.195312 95.957031 203.980469 96.578125 208.40625 C 96.957031 211.203125 98.09375 215.039062 99.535156 219.898438 C 103.957031 234.820312 110.636719 257.367188 103.378906 275.84375 C 100.992188 281.867188 96.5 287.195312 90.023438 291.6875 C 79.101562 299.289062 66.265625 301.875 66.136719 301.898438 C 64.53125 302.214844 63.480469 303.773438 63.796875 305.378906 C 64.070312 306.796875 65.3125 307.78125 66.703125 307.78125 C 66.890625 307.78125 67.082031 307.761719 67.273438 307.726562 C 67.796875 307.625 79.15625 305.339844 90.238281 298.609375 L 118.226562 372.800781 C 118.671875 373.988281 119.804688 374.71875 121 374.71875 C 121.351562 374.71875 121.703125 374.660156 122.046875 374.527344 C 123.582031 373.949219 124.355469 372.238281 123.777344 370.703125 L 95.285156 295.175781 C 101.730469 290.292969 106.316406 284.539062 108.898438 278.023438 C 116.90625 257.636719 109.59375 232.960938 105.226562 218.214844 C 103.910156 213.78125 102.777344 209.953125 102.457031 207.597656 C 101.929688 203.824219 101.941406 197.710938 102.484375 189.894531 C 103.609375 188.855469 104.722656 187.839844 105.75 186.910156 L 106.691406 186.058594 C 110.75 182.425781 116.742188 182.148438 120.9375 185.394531 C 122.832031 186.859375 124.664062 188.136719 126.539062 189.292969 C 126.554688 189.304688 126.558594 189.320312 126.574219 189.332031 C 135.453125 194.898438 148.449219 200.214844 165.707031 200.214844 C 174.671875 200.214844 184.789062 198.777344 196.074219 195.195312 C 227.148438 185.3125 250.03125 153.054688 264.324219 126.085938 C 265.8125 128.691406 267.421875 132.730469 267.421875 138.222656 C 267.421875 140.679688 266.363281 145.261719 265.136719 150.570312 C 261.035156 168.335938 254.164062 198.078125 272.753906 212.859375 C 286.328125 223.664062 303.894531 222 318.003906 220.667969 C 328.246094 219.691406 337.09375 218.859375 341.121094 222.804688 C 351.183594 232.6875 352.890625 268.089844 344.269531 288.117188 C 341.382812 294.847656 335.164062 302.304688 327.933594 310.644531 L 325.921875 312.957031 C 312.425781 328.46875 295.628906 347.773438 291.5 371.234375 C 291.214844 372.851562 292.292969 374.390625 293.90625 374.671875 C 294.082031 374.707031 294.253906 374.71875 294.425781 374.71875 C 295.839844 374.71875 297.089844 373.707031 297.34375 372.265625 C 301.1875 350.425781 316.707031 332.589844 330.398438 316.859375 L 331.023438 316.140625 C 336.582031 318.449219 342.527344 319.671875 348.988281 319.671875 C 356.15625 319.671875 363.925781 318.25 372.390625 315.40625 C 373.941406 314.882812 374.78125 313.199219 374.257812 311.644531 Z M 45.847656 197.613281 C 43.539062 198.03125 40.765625 198 37.628906 197.566406 L 27.066406 172.710938 C 27.066406 172.707031 27.0625 172.707031 27.058594 172.703125 C 26.972656 172.484375 26.875 172.261719 26.773438 172.050781 L 26.683594 171.855469 L 24.332031 166.300781 C 23.832031 165.046875 23.566406 163.691406 23.566406 162.386719 C 23.566406 158.128906 26.101562 154.347656 30.035156 152.753906 C 35.246094 150.613281 41.261719 153.101562 43.484375 158.300781 C 43.488281 158.304688 43.488281 158.304688 43.488281 158.308594 L 43.515625 158.375 C 43.519531 158.382812 43.53125 158.390625 43.535156 158.398438 C 43.542969 158.421875 43.539062 158.441406 43.546875 158.460938 L 54.582031 185.558594 C 55.359375 187.476562 56.542969 189.203125 57.964844 190.6875 C 51.582031 195.699219 47.882812 197.246094 45.847656 197.613281 Z M 75.355469 235.449219 C 74.710938 242.121094 72.296875 247.324219 70.226562 250.6875 C 68.375 244.324219 66.972656 237.792969 67.769531 232.722656 C 68.125 230.457031 69.621094 226.53125 74.105469 220.257812 C 75.117188 225.480469 75.816406 230.84375 75.355469 235.449219 Z M 72.824219 176.871094 C 70.570312 181.476562 69.296875 185.78125 68.941406 189.738281 C 67.261719 189.617188 65.625 189.121094 64.179688 188.214844 C 62.355469 187.078125 60.898438 185.339844 60.078125 183.320312 L 49.054688 156.253906 C 49.042969 156.210938 49.027344 156.171875 49.011719 156.128906 L 49.007812 156.121094 C 49.003906 156.117188 49.003906 156.113281 49.003906 156.109375 C 49 156.109375 49 156.105469 49 156.101562 L 41.507812 137.730469 C 39.363281 132.429688 41.921875 126.359375 47.1875 124.207031 C 48.441406 123.703125 49.792969 123.4375 51.097656 123.4375 C 55.351562 123.4375 59.132812 125.972656 60.722656 129.902344 L 77.511719 171.171875 C 75.550781 172.667969 73.949219 174.59375 72.824219 176.871094 Z M 193.066406 115.296875 C 169.792969 126.566406 147.8125 137.214844 136.046875 137.214844 C 110.859375 137.214844 106.667969 123.777344 106.511719 123.234375 C 106.125 121.777344 104.683594 120.839844 103.210938 121.066406 C 101.71875 121.289062 100.628906 122.597656 100.679688 124.101562 C 101.207031 139.722656 103.480469 160.675781 115.210938 177.285156 C 110.796875 177.046875 106.300781 178.464844 102.761719 181.621094 C 101.941406 175.578125 97.773438 170.515625 91.847656 168.671875 C 90.988281 168.398438 90.117188 168.238281 89.238281 168.113281 C 89.984375 167.308594 90.71875 166.511719 91.394531 165.738281 C 97.046875 159.300781 98.929688 150.351562 96.320312 142.375 C 92.300781 130.066406 89.792969 110.117188 100.671875 84.988281 C 116.480469 48.390625 184.910156 18.847656 196.875 13.914062 L 253.511719 70.382812 C 253.554688 70.429688 253.59375 70.472656 253.636719 70.519531 C 253.652344 70.53125 253.65625 70.550781 253.667969 70.566406 L 269.910156 86.746094 C 249.171875 88.121094 220.710938 101.90625 193.066406 115.296875 Z M 193.066406 115.296875 " fill-opacity="1" fill-rule="nonzero"/></g></svg>