<svg xmlns="http://www.w3.org/2000/svg" xmlns:xlink="http://www.w3.org/1999/xlink" width="500" zoomAndPan="magnify" viewBox="0 0 375 374.999991" height="500" preserveAspectRatio="xMidYMid meet" version="1.0"><path fill="#be0157" d="M 197.21875 323.789062 L 197.21875 227.886719 C 197.21875 221.988281 199.074219 213.546875 200.742188 207.152344 C 287.542969 177.664062 272.089844 103.351562 272.089844 103.351562 L 253.757812 1.738281 L 120.820312 1.738281 L 102.484375 103.351562 C 102.484375 103.351562 87.035156 177.667969 173.832031 207.152344 C 175.5 213.546875 177.359375 221.988281 177.359375 227.886719 L 177.359375 323.785156 C 141.550781 325.417969 113.949219 335.722656 113.949219 348.199219 C 113.949219 361.800781 146.78125 372.839844 187.292969 372.839844 C 227.792969 372.839844 260.632812 361.800781 260.632812 348.199219 C 260.628906 335.726562 233.023438 325.417969 197.21875 323.789062 Z M 197.21875 323.789062 " fill-opacity="1" fill-rule="nonzero"/></svg>