<svg xmlns="http://www.w3.org/2000/svg" xmlns:xlink="http://www.w3.org/1999/xlink" width="500" zoomAndPan="magnify" viewBox="0 0 375 374.999991" height="500" preserveAspectRatio="xMidYMid meet" version="1.0"><defs><clipPath id="552fcd3629"><path d="M 50 99.902344 L 64 99.902344 L 64 107 L 50 107 Z M 50 99.902344 " clip-rule="nonzero"/></clipPath><clipPath id="b034a32f4a"><path d="M 44 310 L 109 310 L 109 373.652344 L 44 373.652344 Z M 44 310 " clip-rule="nonzero"/></clipPath><clipPath id="5634d0e608"><path d="M 92 309 L 153 309 L 153 373.652344 L 92 373.652344 Z M 92 309 " clip-rule="nonzero"/></clipPath><clipPath id="6fc020f146"><path d="M 16.84375 0 L 99.34375 0 L 99.34375 118 L 16.84375 118 Z M 16.84375 0 " clip-rule="nonzero"/></clipPath></defs><path fill="#be0157" d="M 216.109375 278.035156 C 181.070312 278.035156 152.566406 249.523438 152.566406 214.492188 C 152.566406 195.617188 165.851562 148.554688 176.523438 110.746094 L 179.523438 100.113281 L 252.6875 100.113281 L 255.742188 110.933594 C 266.386719 148.683594 279.652344 195.65625 279.652344 214.5 C 279.652344 249.539062 251.140625 278.042969 216.109375 278.042969 Z M 189.144531 112.816406 L 188.753906 114.191406 C 178.84375 149.296875 165.273438 197.375 165.273438 214.484375 C 165.273438 242.511719 188.082031 265.320312 216.109375 265.320312 C 244.136719 265.320312 266.945312 242.511719 266.945312 214.484375 C 266.945312 197.402344 253.394531 149.414062 243.507812 114.371094 L 243.066406 112.808594 L 189.140625 112.808594 Z M 189.144531 112.816406 " fill-opacity="1" fill-rule="nonzero"/><path fill="#be0157" d="M 224.546875 250.429688 L 222.015625 237.980469 C 226.445312 237.074219 228.730469 236.347656 230.609375 234.398438 L 239.753906 243.21875 C 235.207031 247.945312 229.96875 249.328125 224.546875 250.421875 Z M 224.546875 250.429688 " fill-opacity="1" fill-rule="nonzero"/><path fill="#be0157" d="M 251.054688 229.746094 L 239.410156 224.65625 C 240.8125 221.449219 241.519531 218.027344 241.519531 214.492188 C 241.519531 210.957031 240.804688 207.527344 239.40625 204.320312 L 251.050781 199.21875 C 253.15625 204.050781 254.234375 209.183594 254.234375 214.492188 C 254.234375 219.796875 253.164062 224.921875 251.054688 229.746094 Z M 251.054688 229.746094 " fill-opacity="1" fill-rule="nonzero"/><path fill="#be0157" d="M 247.882812 189.074219 C 240.613281 189.074219 233.511719 186.554688 227.878906 181.984375 L 202.699219 161.554688 C 199.316406 158.8125 195.054688 157.304688 190.699219 157.304688 C 182.800781 157.304688 177.984375 159.492188 174.578125 164.609375 L 163.992188 157.582031 C 169.789062 148.847656 178.519531 144.597656 190.699219 144.597656 C 197.96875 144.597656 205.074219 147.117188 210.703125 151.6875 L 235.882812 172.117188 C 239.265625 174.859375 243.527344 176.367188 247.882812 176.367188 C 253.691406 176.367188 258.171875 174.46875 261.582031 170.5625 L 271.152344 178.917969 C 265.273438 185.65625 257.441406 189.074219 247.882812 189.074219 Z M 247.882812 189.074219 " fill-opacity="1" fill-rule="nonzero"/><path fill="#be0157" d="M 311.425781 303.453125 C 282.921875 303.453125 257.730469 284.28125 250.15625 256.828125 L 262.410156 253.449219 C 268.464844 275.402344 288.621094 290.738281 311.425781 290.738281 C 339.453125 290.738281 362.261719 267.929688 362.261719 239.902344 C 362.261719 222.097656 350.894531 189.664062 338.792969 157.292969 L 284.058594 157.292969 C 280.675781 166.367188 276.894531 176.664062 274.160156 184.453125 L 262.171875 180.246094 C 265.363281 171.164062 269.949219 158.71875 273.703125 148.703125 L 275.257812 144.585938 L 347.601562 144.585938 L 349.15625 148.703125 C 362.761719 184.949219 374.976562 219.195312 374.976562 239.902344 C 374.976562 274.941406 346.464844 303.445312 311.433594 303.445312 Z M 311.425781 303.453125 " fill-opacity="1" fill-rule="nonzero"/><path fill="#be0157" d="M 349.558594 239.910156 C 342.289062 239.910156 335.183594 237.390625 329.554688 232.816406 L 304.375 212.390625 C 296.800781 206.25 284.8125 207.25 277.511719 214.214844 L 268.722656 205.027344 C 275.105469 198.929688 283.730469 195.425781 292.375 195.425781 C 299.644531 195.425781 306.746094 197.945312 312.378906 202.515625 L 337.558594 222.945312 C 344.855469 228.859375 356.070312 228.363281 362.816406 221.832031 L 371.652344 230.96875 C 365.699219 236.730469 357.851562 239.902344 349.558594 239.902344 Z M 349.558594 239.910156 " fill-opacity="1" fill-rule="nonzero"/><path fill="#be0157" d="M 209.75 271.683594 L 222.460938 271.683594 L 222.460938 354.292969 L 209.75 354.292969 Z M 209.75 271.683594 " fill-opacity="1" fill-rule="nonzero"/><path fill="#be0157" d="M 182.0625 347.933594 L 247.882812 347.933594 L 247.882812 360.644531 L 182.0625 360.644531 Z M 182.0625 347.933594 " fill-opacity="1" fill-rule="nonzero"/><path fill="#be0157" d="M 319.847656 278.898438 L 317.300781 266.449219 C 324.195312 265.042969 329.230469 260.21875 333.136719 251.261719 L 344.78125 256.351562 C 339.148438 269.246094 330.996094 276.625 319.847656 278.894531 Z M 319.847656 278.898438 " fill-opacity="1" fill-rule="nonzero"/><path fill="#be0157" d="M 305.070312 297.101562 L 317.777344 297.101562 L 317.777344 354.292969 L 305.070312 354.292969 Z M 305.070312 297.101562 " fill-opacity="1" fill-rule="nonzero"/><path fill="#be0157" d="M 279.652344 347.933594 L 343.195312 347.933594 L 343.195312 360.644531 L 279.652344 360.644531 Z M 279.652344 347.933594 " fill-opacity="1" fill-rule="nonzero"/><g clip-path="url(#552fcd3629)"><path fill="#be0157" d="M 50.890625 81.042969 L 63.601562 81.042969 L 63.601562 106.457031 L 50.890625 106.457031 Z M 50.890625 81.042969 " fill-opacity="1" fill-rule="nonzero"/></g><path fill="#be0157" d="M 35.808594 240.074219 C 32.472656 236.480469 24.226562 227.046875 19.71875 217.117188 C 14.859375 206.429688 12.460938 194.472656 12.792969 182.546875 C 12.792969 175.710938 18.496094 170.007812 25.5 170.007812 L 44.566406 170.007812 C 51.570312 170.007812 57.273438 175.710938 57.273438 182.71875 L 57.273438 224.238281 L 44.566406 224.238281 L 44.566406 182.71875 L 25.5 182.71875 C 25.222656 192.902344 27.226562 202.914062 31.28125 211.863281 C 35.023438 220.101562 42.207031 228.289062 45.113281 231.429688 L 35.804688 240.082031 Z M 35.808594 240.074219 " fill-opacity="1" fill-rule="nonzero"/><path fill="#be0157" d="M 38.183594 347.933594 C 20.664062 347.933594 6.40625 333.679688 6.40625 316.160156 C 6.40625 298.640625 20.664062 284.386719 38.183594 284.386719 C 55.703125 284.386719 69.957031 298.640625 69.957031 316.160156 C 69.957031 333.679688 55.703125 347.933594 38.183594 347.933594 Z M 38.183594 297.101562 C 27.667969 297.101562 19.117188 305.652344 19.117188 316.167969 C 19.117188 326.679688 27.667969 335.234375 38.183594 335.234375 C 48.695312 335.234375 57.25 326.679688 57.25 316.167969 C 57.25 305.652344 48.695312 297.101562 38.183594 297.101562 Z M 38.183594 297.101562 " fill-opacity="1" fill-rule="nonzero"/><path fill="#be0157" d="M 21.085938 301.59375 C 8.507812 297.066406 0.0585938 285.054688 0.0585938 271.683594 C 0.0585938 254.164062 14.3125 239.910156 31.832031 239.910156 C 49.351562 239.910156 63.605469 254.164062 63.605469 271.683594 C 63.605469 281.808594 58.714844 291.410156 50.527344 297.378906 L 43.046875 287.101562 C 47.96875 283.519531 50.902344 277.757812 50.902344 271.683594 C 50.902344 261.167969 42.351562 252.617188 31.839844 252.617188 C 21.324219 252.617188 12.773438 261.167969 12.773438 271.683594 C 12.773438 279.707031 17.839844 286.917969 25.386719 289.632812 L 21.09375 301.59375 Z M 21.085938 301.59375 " fill-opacity="1" fill-rule="nonzero"/><path fill="#be0157" d="M 63.601562 278.035156 C 60.902344 278.035156 58.214844 277.691406 55.621094 277.023438 L 58.800781 264.722656 C 60.355469 265.121094 61.96875 265.324219 63.601562 265.324219 C 74.113281 265.324219 82.664062 256.773438 82.664062 246.257812 C 82.664062 235.746094 74.113281 227.195312 63.601562 227.195312 C 53.085938 227.195312 44.535156 235.746094 44.535156 246.257812 L 44.546875 246.914062 L 31.839844 247.210938 L 31.824219 246.257812 C 31.824219 228.738281 46.078125 214.484375 63.601562 214.484375 C 81.121094 214.484375 95.375 228.738281 95.375 246.257812 C 95.375 263.78125 81.121094 278.035156 63.601562 278.035156 Z M 63.601562 278.035156 " fill-opacity="1" fill-rule="nonzero"/><path fill="#be0157" d="M 95.375 252.617188 C 92.679688 252.617188 89.988281 252.273438 87.398438 251.605469 L 90.578125 239.308594 C 92.128906 239.703125 93.742188 239.910156 95.375 239.910156 C 105.890625 239.910156 114.441406 231.355469 114.441406 220.84375 C 114.441406 210.328125 105.890625 201.777344 95.375 201.777344 C 84.859375 201.777344 76.308594 210.328125 76.308594 220.84375 L 76.320312 221.503906 L 63.613281 221.800781 L 63.601562 220.84375 C 63.601562 203.324219 77.855469 189.066406 95.375 189.066406 C 112.894531 189.066406 127.148438 203.324219 127.148438 220.84375 C 127.148438 238.363281 112.894531 252.617188 95.375 252.617188 Z M 95.375 252.617188 " fill-opacity="1" fill-rule="nonzero"/><path fill="#be0157" d="M 63.601562 328.867188 L 62.632812 328.855469 L 62.917969 316.148438 L 63.59375 316.160156 C 74.109375 316.160156 82.660156 307.609375 82.660156 297.09375 C 82.660156 293.996094 81.9375 291.039062 80.523438 288.304688 L 91.804688 282.457031 C 94.136719 286.949219 95.367188 292.003906 95.367188 297.085938 C 95.367188 314.605469 81.113281 328.863281 63.59375 328.863281 Z M 63.601562 328.867188 " fill-opacity="1" fill-rule="nonzero"/><path fill="#be0157" d="M 101.726562 297.101562 C 85.515625 297.101562 71.941406 284.960938 70.140625 268.867188 L 82.777344 267.46875 C 83.847656 277.117188 91.996094 284.398438 101.726562 284.398438 C 112.238281 284.398438 120.792969 275.847656 120.792969 265.332031 C 120.792969 257 115.894531 249.96875 108.3125 247.429688 L 112.34375 235.375 C 125.199219 239.683594 133.5 251.433594 133.5 265.332031 C 133.5 282.851562 119.246094 297.105469 101.726562 297.105469 Z M 101.726562 297.101562 " fill-opacity="1" fill-rule="nonzero"/><g clip-path="url(#b034a32f4a)"><path fill="#be0157" d="M 76.308594 373.351562 C 58.789062 373.351562 44.535156 359.097656 44.535156 341.578125 C 44.535156 340.078125 44.640625 338.589844 44.84375 337.148438 L 57.425781 338.902344 C 57.308594 339.773438 57.242188 340.679688 57.242188 341.582031 C 57.242188 352.097656 65.792969 360.648438 76.308594 360.648438 C 86.824219 360.648438 95.375 352.097656 95.375 341.582031 C 95.375 332.21875 88.410156 324.117188 79.15625 322.730469 L 81.039062 310.160156 C 96.453125 312.464844 108.078125 325.980469 108.078125 341.582031 C 108.078125 359.105469 93.820312 373.359375 76.300781 373.359375 Z M 76.308594 373.351562 " fill-opacity="1" fill-rule="nonzero"/></g><path fill="#be0157" d="M 137.84375 320.945312 L 125.941406 316.503906 C 126.738281 314.363281 127.140625 312.109375 127.140625 309.808594 C 127.140625 301.773438 122.058594 294.554688 114.492188 291.851562 L 118.777344 279.890625 C 131.378906 284.398438 139.851562 296.425781 139.851562 309.816406 C 139.851562 313.636719 139.175781 317.390625 137.84375 320.957031 Z M 137.84375 320.945312 " fill-opacity="1" fill-rule="nonzero"/><g clip-path="url(#5634d0e608)"><path fill="#be0157" d="M 120.792969 373.351562 C 109.246094 373.351562 98.597656 367.082031 92.996094 356.980469 L 104.105469 350.816406 C 107.476562 356.875 113.867188 360.644531 120.792969 360.644531 C 131.304688 360.644531 139.859375 352.09375 139.859375 341.578125 C 139.859375 331.0625 131.304688 322.511719 120.792969 322.511719 C 113.867188 322.511719 107.46875 326.277344 104.097656 332.34375 L 92.988281 326.179688 C 98.59375 316.074219 109.246094 309.800781 120.792969 309.800781 C 138.3125 309.800781 152.566406 324.058594 152.566406 341.578125 C 152.566406 359.097656 138.3125 373.351562 120.792969 373.351562 Z M 120.792969 373.351562 " fill-opacity="1" fill-rule="nonzero"/></g><path fill="#be0157" d="M 139.851562 328.867188 C 138.847656 328.867188 137.84375 328.816406 136.855469 328.722656 L 138.046875 316.074219 C 138.640625 316.128906 139.238281 316.152344 139.84375 316.152344 C 150.359375 316.152344 158.910156 307.601562 158.910156 297.085938 C 158.910156 286.574219 150.359375 278.019531 139.84375 278.019531 C 136.070312 278.019531 130.777344 279.699219 128.515625 281.609375 L 120.316406 271.902344 C 125.667969 267.375 134.195312 265.3125 139.84375 265.3125 C 157.363281 265.3125 171.621094 279.566406 171.621094 297.085938 C 171.621094 314.605469 157.363281 328.863281 139.84375 328.863281 Z M 139.851562 328.867188 " fill-opacity="1" fill-rule="nonzero"/><path fill="#be0157" d="M 165.273438 367 C 155.148438 367 145.546875 362.109375 139.585938 353.929688 L 149.863281 346.449219 C 153.4375 351.363281 159.203125 354.300781 165.273438 354.300781 C 175.789062 354.300781 184.339844 345.746094 184.339844 335.234375 C 184.339844 324.71875 175.789062 316.167969 165.273438 316.167969 C 164.371094 316.167969 163.46875 316.234375 162.589844 316.351562 L 160.839844 303.769531 C 162.289062 303.5625 163.769531 303.457031 165.269531 303.457031 C 182.789062 303.457031 197.042969 317.714844 197.042969 335.234375 C 197.042969 352.753906 182.789062 367.007812 165.269531 367.007812 Z M 165.273438 367 " fill-opacity="1" fill-rule="nonzero"/><g clip-path="url(#6fc020f146)"><path fill="#be0157" d="M 58 0.00390625 C 80.730469 0.00390625 99.15625 18.429688 99.15625 41.160156 C 99.15625 49.070312 96.925781 56.453125 93.058594 62.726562 C 88.417969 70.410156 83.78125 78.09375 79.144531 85.777344 C 73.492188 94.960938 68.921875 102.390625 63.273438 111.574219 C 58.292969 119.667969 57.957031 119.867188 52.949219 111.730469 C 47.332031 102.59375 42.605469 94.914062 36.984375 85.777344 C 32.359375 78.179688 27.730469 70.582031 23.101562 62.984375 C 19.136719 56.65625 16.84375 49.175781 16.84375 41.160156 C 16.84375 18.429688 35.269531 0.00390625 58 0.00390625 Z M 58 20.636719 C 68.191406 20.636719 76.449219 28.898438 76.449219 39.085938 C 76.449219 49.277344 68.191406 57.539062 58 57.539062 C 47.808594 57.539062 39.546875 49.277344 39.546875 39.085938 C 39.550781 28.898438 47.808594 20.636719 58 20.636719 Z M 58 20.636719 " fill-opacity="1" fill-rule="evenodd"/></g></svg>