<svg xmlns="http://www.w3.org/2000/svg" xmlns:xlink="http://www.w3.org/1999/xlink" width="500" zoomAndPan="magnify" viewBox="0 0 375 374.999991" height="500" preserveAspectRatio="xMidYMid meet" version="1.0"><defs><clipPath id="ca389b47f8"><path d="M 130.324219 77.535156 L 344.824219 77.535156 L 344.824219 375 L 130.324219 375 Z M 130.324219 77.535156 " clip-rule="nonzero"/></clipPath><clipPath id="c8f0807269"><path d="M 32 24.230469 L 181 24.230469 L 181 108.980469 L 32 108.980469 Z M 32 24.230469 " clip-rule="nonzero"/></clipPath></defs><g clip-path="url(#ca389b47f8)"><path fill="#000000" d="M 344.660156 165.25 C 344.660156 155.847656 337.019531 148.195312 327.625 148.195312 L 320.324219 148.195312 L 320.324219 157.941406 L 327.625 157.941406 C 331.648438 157.941406 334.925781 161.222656 334.925781 165.25 C 334.925781 169.28125 331.648438 172.5625 327.625 172.5625 L 314.910156 172.5625 L 308.625 88.160156 C 308.449219 85.78125 306.585938 83.882812 304.214844 83.664062 L 236.351562 77.480469 C 233.976562 77.300781 231.804688 78.796875 231.203125 81.101562 L 208.515625 167.914062 C 208.507812 167.941406 208.503906 167.964844 208.5 167.996094 C 208.5 168 208.5 168.003906 208.5 168.011719 C 206.429688 175.976562 206.242188 184.179688 207.769531 192.054688 L 181.597656 192.054688 C 177.570312 192.054688 174.296875 188.773438 174.296875 184.746094 C 174.296875 180.714844 177.570312 177.433594 181.597656 177.433594 L 198.632812 177.433594 L 198.632812 167.6875 L 181.597656 167.6875 C 172.203125 167.6875 164.558594 175.339844 164.558594 184.746094 C 164.558594 194.148438 172.203125 201.800781 181.597656 201.800781 L 210.621094 201.800781 C 212.175781 205.695312 214.144531 209.441406 216.605469 212.945312 C 224.863281 224.730469 237.355469 232.625 251.359375 235.171875 L 250.457031 245.660156 L 207.453125 245.660156 C 185.394531 245.660156 165.347656 258.699219 156.382812 278.882812 L 130.90625 336.269531 C 130.628906 336.894531 130.488281 337.566406 130.488281 338.25 L 130.488281 372.359375 L 140.222656 372.359375 L 140.222656 339.28125 L 165.277344 282.839844 C 172.679688 266.175781 189.234375 255.40625 207.453125 255.40625 L 249.621094 255.40625 L 248.179688 272.164062 L 218.898438 286.828125 L 222.832031 271.21875 L 213.390625 268.835938 L 206.859375 294.746094 C 206.390625 296.59375 207.050781 298.542969 208.527344 299.734375 C 210.007812 300.929688 212.058594 301.148438 213.757812 300.296875 L 268.84375 272.71875 C 273.648438 270.320312 279.503906 272.277344 281.902344 277.082031 C 284.300781 281.886719 282.351562 287.753906 277.507812 290.179688 L 220.75 319.292969 C 220.011719 319.671875 219.382812 320.234375 218.921875 320.925781 L 199.453125 350.164062 C 198.921875 350.964844 198.632812 351.910156 198.632812 352.867188 L 198.632812 372.359375 L 208.367188 372.359375 L 208.367188 354.34375 L 226.320312 327.386719 L 243.769531 318.433594 L 239.847656 361.609375 L 210.761719 358.960938 L 209.878906 368.667969 L 277.742188 374.851562 L 278.628906 365.144531 L 249.542969 362.492188 L 251.300781 343.121094 L 291.117188 343.121094 C 301.855469 343.121094 310.585938 334.378906 310.585938 323.628906 C 310.585938 319.980469 309.515625 316.597656 307.765625 313.671875 C 317.527344 312.636719 325.191406 304.4375 325.191406 294.390625 C 325.191406 288.542969 322.550781 283.347656 318.464844 279.769531 C 322.550781 276.195312 325.191406 271 325.191406 265.152344 C 325.191406 254.402344 316.457031 245.660156 305.71875 245.660156 L 260.226562 245.660156 L 261.050781 236.09375 C 261.074219 236.09375 261.09375 236.097656 261.113281 236.097656 C 275.3125 236.097656 288.976562 230.542969 299.203125 220.472656 C 309.496094 210.332031 315.222656 196.625 315.378906 182.308594 L 327.625 182.308594 C 337.019531 182.308594 344.660156 174.65625 344.660156 165.25 Z M 291.117188 333.375 L 252.1875 333.375 L 254.019531 313.171875 L 257.042969 311.621094 L 257.042969 313.882812 L 291.117188 313.882812 C 296.484375 313.882812 300.851562 318.253906 300.851562 323.628906 C 300.851562 329.003906 296.484375 333.375 291.117188 333.375 Z M 315.453125 294.390625 C 315.453125 299.765625 311.089844 304.136719 305.71875 304.136719 L 271.632812 304.136719 L 281.894531 298.867188 C 287.667969 295.980469 291.328125 290.570312 292.328125 284.644531 L 305.71875 284.644531 C 311.089844 284.644531 315.453125 289.015625 315.453125 294.390625 Z M 305.71875 255.40625 C 311.089844 255.40625 315.453125 259.777344 315.453125 265.152344 C 315.453125 270.527344 311.089844 274.898438 305.71875 274.898438 L 291.429688 274.898438 C 291.164062 274.167969 290.957031 273.425781 290.601562 272.71875 C 285.800781 263.109375 274.074219 259.203125 264.476562 264 L 258.382812 267.050781 L 259.386719 255.40625 Z M 239.574219 87.5625 L 299.226562 92.996094 L 301.46875 123.125 C 291.394531 124.492188 281.824219 129.167969 274.449219 136.386719 C 270.78125 139.984375 267.777344 143.964844 265.527344 148.230469 C 256.617188 165.140625 236.664062 172.683594 218.980469 166.363281 Z M 292.371094 213.523438 C 283.007812 222.75 270.144531 227.363281 257.042969 226.167969 C 243.960938 224.972656 232.121094 218.117188 224.574219 207.347656 C 223.332031 205.574219 222.28125 203.707031 221.316406 201.800781 L 252.175781 201.800781 L 252.175781 192.054688 L 217.753906 192.054688 C 216.503906 186.8125 216.175781 181.371094 216.878906 175.957031 C 221.765625 177.566406 226.773438 178.339844 231.726562 178.339844 C 248.984375 178.339844 265.597656 168.96875 274.132812 152.773438 C 275.910156 149.402344 278.300781 146.238281 281.25 143.351562 L 277.847656 139.867188 L 281.25 143.351562 C 286.996094 137.726562 294.394531 134.113281 302.191406 132.917969 L 305.144531 172.5625 L 286.25 172.5625 L 286.25 182.308594 L 305.65625 182.308594 C 305.5 194.023438 300.796875 205.226562 292.371094 213.523438 Z M 292.371094 213.523438 " fill-opacity="1" fill-rule="nonzero"/></g><path fill="#000000" d="M 261.910156 192.054688 L 271.648438 192.054688 L 271.648438 201.800781 L 261.910156 201.800781 Z M 261.910156 192.054688 " fill-opacity="1" fill-rule="nonzero"/><g clip-path="url(#c8f0807269)"><path fill="#000000" d="M 106.457031 24.59375 C 77.847656 24.59375 51.515625 37.625 34.21875 60.347656 C 31.519531 63.886719 31.519531 68.828125 34.214844 72.363281 C 51.515625 95.089844 77.847656 108.121094 106.457031 108.121094 C 135.066406 108.121094 161.398438 95.089844 178.695312 72.367188 C 181.394531 68.828125 181.394531 63.890625 178.699219 60.351562 C 161.398438 37.625 135.066406 24.59375 106.457031 24.59375 Z M 170.820312 66.371094 C 155.40625 86.617188 131.949219 98.230469 106.457031 98.230469 C 80.96875 98.230469 57.507812 86.617188 42.097656 66.34375 C 57.507812 46.097656 80.96875 34.488281 106.457031 34.488281 C 131.949219 34.488281 155.40625 46.097656 170.820312 66.34375 C 170.820312 66.34375 170.820312 66.371094 170.820312 66.371094 Z M 170.820312 66.371094 " fill-opacity="1" fill-rule="nonzero"/></g><path fill="#000000" d="M 106.457031 37.398438 C 90.476562 37.398438 77.476562 50.386719 77.476562 66.359375 C 77.476562 82.328125 90.476562 95.316406 106.457031 95.316406 C 122.4375 95.316406 135.4375 82.328125 135.4375 66.359375 C 135.4375 50.386719 122.4375 37.398438 106.457031 37.398438 Z M 106.457031 85.421875 C 95.9375 85.421875 87.378906 76.871094 87.378906 66.359375 C 87.378906 55.84375 95.9375 47.292969 106.457031 47.292969 C 116.976562 47.292969 125.535156 55.84375 125.535156 66.359375 C 125.535156 76.871094 116.976562 85.421875 106.457031 85.421875 Z M 106.457031 85.421875 " fill-opacity="1" fill-rule="nonzero"/></svg>