<svg xmlns="http://www.w3.org/2000/svg" xmlns:xlink="http://www.w3.org/1999/xlink" width="500" zoomAndPan="magnify" viewBox="0 0 375 374.999991" height="500" preserveAspectRatio="xMidYMid meet" version="1.0"><path fill="#be0157" d="M 59.554688 282.191406 C 82.320312 282.191406 100.839844 263.617188 100.839844 240.789062 C 100.839844 217.957031 82.320312 199.386719 59.554688 199.386719 C 36.789062 199.386719 18.265625 217.960938 18.265625 240.789062 C 18.265625 263.617188 36.789062 282.191406 59.554688 282.191406 Z M 59.554688 205.335938 C 79.039062 205.335938 94.890625 221.242188 94.890625 240.789062 C 94.890625 260.335938 79.039062 276.238281 59.554688 276.238281 C 40.070312 276.238281 24.21875 260.335938 24.21875 240.789062 C 24.21875 221.242188 40.070312 205.335938 59.554688 205.335938 Z M 59.554688 205.335938 " fill-opacity="1" fill-rule="nonzero"/><path fill="#be0157" d="M 313.765625 293.367188 C 350.914062 265.464844 375 220.976562 375 170.949219 C 375 86.667969 306.632812 18.097656 222.601562 18.097656 C 192.976562 18.097656 164.253906 26.632812 139.539062 42.777344 C 116.910156 57.558594 98.679688 77.964844 86.550781 102.011719 C 82.867188 96.335938 80.40625 91.023438 80.40625 85.882812 L 80.40625 42.332031 C 87.453125 40.933594 92.785156 34.703125 92.785156 27.21875 C 92.785156 19.765625 87.453125 13.539062 80.40625 12.140625 L 80.40625 11.367188 C 80.40625 5.101562 75.320312 0 69.0625 0 L 50.042969 0 C 43.789062 0 38.699219 5.101562 38.699219 11.367188 L 38.699219 12.140625 C 31.652344 13.539062 26.320312 19.769531 26.320312 27.257812 C 26.320312 34.707031 31.652344 40.933594 38.699219 42.332031 L 38.699219 85.882812 C 38.699219 94.558594 31.714844 103.710938 23.628906 114.3125 C 12.554688 128.835938 0 145.292969 0 167.140625 L 0 352.785156 C 0 365.035156 9.941406 375 22.160156 375 L 96.949219 375 C 109.167969 375 119.109375 365.035156 119.109375 352.785156 L 119.109375 346.050781 L 120.320312 346.050781 C 126.023438 346.050781 131.523438 343.972656 135.804688 340.195312 L 166.5 313.132812 C 174.976562 316.492188 183.785156 319.089844 192.847656 320.886719 L 192.847656 333.015625 C 192.847656 335.988281 192.242188 338.867188 191.050781 341.574219 L 189.632812 344.789062 C 188.765625 346.761719 187.136719 348.28125 185.164062 348.960938 L 159.933594 357.660156 C 159.890625 357.675781 159.855469 357.695312 159.8125 357.710938 C 159.769531 357.726562 159.726562 357.746094 159.683594 357.765625 C 156.789062 358.859375 154.625 361.304688 154.015625 364.226562 C 153.453125 366.9375 154.113281 369.695312 155.820312 371.796875 C 157.476562 373.832031 159.914062 375 162.503906 375 L 240.160156 375 C 242.75 375 245.1875 373.832031 246.84375 371.796875 C 248.554688 369.695312 249.210938 366.9375 248.648438 364.226562 C 248.027344 361.238281 245.789062 358.738281 242.792969 357.683594 L 219.800781 348.707031 C 219.765625 348.691406 219.726562 348.679688 219.6875 348.664062 C 217.714844 347.984375 216.085938 346.460938 215.214844 344.488281 L 213.800781 341.273438 C 212.609375 338.570312 212.003906 335.6875 212.003906 332.714844 L 212.003906 323.4375 C 215.523438 323.679688 219.074219 323.804688 222.601562 323.804688 C 242.421875 323.804688 261.371094 319.984375 278.757812 313.046875 L 309.550781 340.195312 C 313.832031 343.972656 319.332031 346.050781 325.035156 346.050781 L 340.859375 346.050781 C 344.34375 346.050781 347.398438 344.074219 348.832031 340.894531 C 350.273438 337.707031 349.726562 334.09375 347.414062 331.472656 Z M 44.652344 82.910156 L 44.652344 42.628906 L 74.457031 42.628906 L 74.457031 82.910156 Z M 50.046875 5.953125 L 69.0625 5.953125 C 72.035156 5.953125 74.457031 8.382812 74.457031 11.367188 L 74.457031 11.84375 L 44.652344 11.84375 L 44.652344 11.367188 C 44.652344 8.382812 47.074219 5.953125 50.046875 5.953125 Z M 32.273438 27.21875 C 32.273438 22.023438 36.5 17.796875 41.695312 17.796875 L 77.414062 17.796875 C 82.605469 17.796875 86.832031 22.023438 86.832031 27.257812 C 86.832031 32.449219 82.605469 36.675781 77.414062 36.675781 L 41.695312 36.675781 C 36.503906 36.675781 32.273438 32.449219 32.273438 27.21875 Z M 28.363281 117.921875 C 36.289062 107.535156 43.234375 98.429688 44.460938 88.859375 L 74.648438 88.859375 C 75.875 98.429688 82.820312 107.535156 90.746094 117.921875 C 101.25 131.695312 113.15625 147.304688 113.15625 167.140625 L 113.15625 185.046875 L 91.3125 185.046875 C 90.007812 165.964844 76.261719 150.902344 59.554688 150.902344 C 42.847656 150.902344 29.101562 165.964844 27.796875 185.046875 L 5.953125 185.046875 L 5.953125 167.140625 C 5.953125 147.304688 17.859375 131.695312 28.363281 117.921875 Z M 219.625 44.886719 L 219.625 161.425781 L 181.941406 161.425781 L 181.941406 51.65625 C 193.902344 47.539062 206.585938 45.199219 219.625 44.886719 Z M 263.414062 51.675781 L 263.414062 290.226562 C 251.503906 294.339844 238.789062 296.707031 225.578125 297.015625 L 225.578125 271.648438 C 234.265625 265.921875 241.066406 256.238281 245.878906 242.675781 C 258.511719 207.105469 244.789062 165.226562 244.199219 163.460938 C 243.792969 162.246094 242.65625 161.425781 241.378906 161.425781 L 225.578125 161.425781 L 225.578125 44.886719 C 238.789062 45.195312 251.503906 47.5625 263.414062 51.675781 Z M 307.199219 77.757812 L 307.199219 264.144531 C 296.195312 274.207031 283.402344 282.335938 269.367188 288 L 269.367188 53.902344 C 283.402344 59.566406 296.195312 67.695312 307.199219 77.757812 Z M 348.3125 170.949219 C 348.3125 204.839844 334.914062 235.648438 313.152344 258.328125 L 313.152344 83.574219 C 334.914062 106.253906 348.3125 137.0625 348.3125 170.949219 Z M 212.003906 296.605469 L 212.003906 277.109375 C 214.664062 276.609375 217.203125 275.84375 219.625 274.828125 L 219.625 297.015625 C 217.078125 296.953125 214.53125 296.816406 212.003906 296.605469 Z M 163.492188 167.378906 L 239.171875 167.378906 C 241.296875 174.6875 247.914062 200.519531 243.933594 225.941406 L 158.730469 225.941406 C 154.75 200.519531 161.367188 174.6875 163.492188 167.378906 Z M 175.988281 161.425781 L 161.289062 161.425781 C 160.007812 161.425781 158.871094 162.246094 158.464844 163.460938 C 157.875 165.226562 144.15625 207.105469 156.785156 242.675781 C 161.703125 256.523438 168.820312 264.992188 175.988281 270.160156 L 175.988281 288.121094 C 162.035156 282.558594 149.25 274.539062 138.152344 264.417969 L 138.152344 77.59375 C 149.238281 67.527344 162.054688 59.476562 175.988281 53.878906 Z M 192.847656 277.410156 L 192.847656 293.496094 C 189.148438 292.597656 185.511719 291.542969 181.941406 290.324219 L 181.941406 273.757812 C 185.875 275.707031 189.636719 276.808594 192.847656 277.410156 Z M 132.203125 258.613281 C 127.449219 253.667969 123.070312 248.296875 119.109375 242.542969 L 119.109375 167.140625 C 119.109375 151.367188 112.566406 138.40625 104.757812 126.953125 C 110.917969 110.355469 120.363281 95.609375 132.203125 83.355469 Z M 5.953125 190.996094 L 30.671875 190.996094 C 32.316406 190.996094 33.648438 189.664062 33.648438 188.023438 C 33.648438 170.835938 45.269531 156.855469 59.554688 156.855469 C 73.839844 156.855469 85.460938 170.835938 85.460938 188.023438 C 85.460938 189.664062 86.792969 190.996094 88.4375 190.996094 L 113.15625 190.996094 L 113.15625 243.484375 C 113.15625 243.484375 113.15625 243.488281 113.15625 243.488281 L 113.15625 276.070312 C 113.15625 276.078125 113.15625 276.085938 113.15625 276.09375 L 113.15625 299.324219 C 110.164062 303.238281 93.507812 322.765625 59.554688 322.765625 C 25.59375 322.765625 8.9375 303.226562 5.953125 299.324219 Z M 119.109375 283.148438 C 123.070312 286.832031 127.191406 290.285156 131.472656 293.5 L 119.109375 307.5 Z M 113.15625 352.785156 C 113.15625 361.753906 105.886719 369.046875 96.949219 369.046875 L 22.160156 369.046875 C 13.222656 369.046875 5.953125 361.75 5.953125 352.785156 L 5.953125 308.304688 C 13.949219 316.238281 31.054688 328.71875 59.554688 328.71875 C 88.050781 328.71875 105.15625 316.238281 113.15625 308.304688 Z M 131.867188 335.734375 C 128.671875 338.546875 124.570312 340.101562 120.320312 340.101562 L 119.109375 340.101562 L 119.109375 316.496094 L 136.324219 296.996094 C 143.941406 302.261719 151.996094 306.796875 160.414062 310.566406 Z M 167.308594 307.042969 C 167.121094 306.945312 166.925781 306.863281 166.726562 306.808594 C 156.539062 302.597656 146.871094 297.234375 137.863281 290.800781 C 137.855469 290.792969 137.851562 290.785156 137.84375 290.777344 C 137.679688 290.636719 137.503906 290.515625 137.320312 290.414062 C 130.890625 285.777344 124.804688 280.585938 119.109375 274.878906 L 119.109375 252.601562 C 137.6875 276.320312 163.503906 292.824219 192.847656 299.613281 L 192.847656 314.8125 C 184.054688 312.996094 175.515625 310.390625 167.308594 307.042969 Z M 217.6875 354.273438 L 240.679688 363.246094 C 240.71875 363.261719 240.753906 363.273438 240.792969 363.289062 C 241.828125 363.644531 242.625 364.488281 242.820312 365.4375 C 243.089844 366.734375 242.566406 367.625 242.226562 368.039062 C 241.707031 368.679688 240.953125 369.046875 240.160156 369.046875 L 162.503906 369.046875 C 161.710938 369.046875 160.960938 368.679688 160.4375 368.039062 C 160.101562 367.625 159.574219 366.734375 159.84375 365.4375 C 160.015625 364.613281 160.640625 363.867188 161.484375 363.453125 L 209.644531 363.453125 C 211.289062 363.453125 212.621094 362.117188 212.621094 360.476562 C 212.621094 358.832031 211.289062 357.5 209.644531 357.5 L 178.664062 357.5 L 187.101562 354.589844 C 190.636719 353.371094 193.546875 350.671875 195.082031 347.1875 L 196.496094 343.972656 C 198.023438 340.507812 198.796875 336.820312 198.796875 333.015625 L 198.796875 297.253906 C 198.796875 297.25 198.796875 297.25 198.796875 297.246094 L 198.796875 274.859375 C 198.796875 273.355469 197.675781 272.085938 196.179688 271.902344 C 191.515625 271.335938 186.140625 269.804688 180.867188 266.375 C 180.699219 266.234375 180.515625 266.113281 180.320312 266.011719 C 173.550781 261.429688 167 253.660156 162.394531 240.683594 C 161.367188 237.800781 160.539062 234.859375 159.863281 231.894531 L 242.796875 231.894531 C 242.125 234.859375 241.292969 237.800781 240.269531 240.683594 C 233.601562 259.464844 222.96875 269.871094 208.667969 271.605469 C 207.175781 271.785156 206.050781 273.054688 206.050781 274.558594 L 206.050781 332.714844 C 206.050781 336.519531 206.824219 340.207031 208.351562 343.675781 L 209.765625 346.890625 C 211.292969 350.355469 214.179688 353.042969 217.6875 354.273438 Z M 212.003906 317.464844 L 212.003906 302.582031 C 215.519531 302.863281 219.070312 303.007812 222.601562 303.007812 C 238.164062 303.007812 253.105469 300.273438 266.976562 295.277344 C 267.230469 295.226562 267.464844 295.136719 267.691406 295.027344 C 284.148438 288.992188 299.078125 279.746094 311.730469 268.054688 C 312.074219 267.839844 312.375 267.566406 312.609375 267.234375 C 338.230469 243.128906 354.265625 208.882812 354.265625 170.949219 C 354.265625 133.007812 338.222656 98.761719 312.59375 74.652344 C 312.363281 74.335938 312.074219 74.066406 311.742188 73.859375 C 299.085938 62.160156 284.148438 52.90625 267.675781 46.867188 C 267.460938 46.765625 267.238281 46.679688 267 46.628906 C 253.121094 41.628906 238.175781 38.894531 222.601562 38.894531 C 207.097656 38.894531 192.035156 41.644531 177.96875 46.75 C 177.902344 46.773438 177.835938 46.792969 177.769531 46.820312 C 143.3125 59.382812 114.867188 86.089844 100.628906 121.144531 C 98.910156 118.8125 97.175781 116.539062 95.476562 114.3125 C 93.722656 112.011719 92.027344 109.785156 90.4375 107.609375 C 114.6875 56.792969 166.367188 24.050781 222.601562 24.050781 C 303.351562 24.050781 369.046875 89.949219 369.046875 170.949219 C 369.046875 251.953125 303.351562 317.851562 222.601562 317.851562 C 219.074219 317.851562 215.523438 317.71875 212.003906 317.464844 Z M 343.40625 338.449219 C 343.230469 338.835938 342.53125 340.101562 340.859375 340.101562 L 325.035156 340.101562 C 320.785156 340.101562 316.683594 338.550781 313.488281 335.734375 L 284.832031 310.46875 C 293.292969 306.65625 301.34375 302.089844 308.90625 296.855469 L 342.949219 335.414062 C 344.070312 336.683594 343.582031 338.058594 343.40625 338.449219 Z M 343.40625 338.449219 " fill-opacity="1" fill-rule="nonzero"/></svg>