<svg xmlns="http://www.w3.org/2000/svg" xmlns:xlink="http://www.w3.org/1999/xlink" width="500" zoomAndPan="magnify" viewBox="0 0 375 374.999991" height="500" preserveAspectRatio="xMidYMid meet" version="1.0"><defs><clipPath id="2bc38eb5f4"><path d="M 143.671875 1 L 231.421875 1 L 231.421875 374 L 143.671875 374 Z M 143.671875 1 " clip-rule="nonzero"/></clipPath></defs><g clip-path="url(#2bc38eb5f4)"><path fill="#be0157" d="M 204.816406 66.324219 C 204.75 59.15625 204.648438 54.390625 204.554688 51.082031 C 204.417969 45.738281 204.046875 29.953125 203.910156 24.296875 C 204.78125 24.050781 205.417969 23.253906 205.417969 22.304688 L 205.417969 10.046875 C 205.417969 9.078125 204.757812 8.269531 203.871094 8.039062 L 203.871094 4.515625 C 203.871094 3.417969 203.003906 2.511719 201.90625 2.449219 C 201.523438 2.429688 192.480469 1.929688 188.496094 1.929688 L 186.5 1.929688 C 182.519531 1.929688 173.476562 2.429688 173.089844 2.449219 C 171.992188 2.511719 171.132812 3.421875 171.132812 4.515625 L 171.132812 8.035156 C 170.238281 8.261719 169.574219 9.074219 169.574219 10.042969 L 169.574219 22.296875 C 169.574219 23.242188 170.210938 24.046875 171.085938 24.289062 C 170.949219 29.941406 170.582031 45.726562 170.441406 51.074219 C 170.394531 52.808594 170.328125 54.695312 170.246094 56.804688 C 170.027344 62.816406 169.75 70.296875 169.75 81 C 169.75 81.308594 169.828125 81.605469 169.957031 81.878906 M 169.953125 81.882812 C 169.945312 84.054688 169.941406 86.488281 169.941406 89.292969 C 169.941406 105.242188 165.785156 108.234375 160.03125 112.367188 L 159.40625 112.820312 C 153.152344 117.335938 143.695312 131.601562 143.695312 142.8125 L 143.695312 354.835938 C 143.695312 373.136719 161.628906 373.136719 167.519531 373.136719 L 207.460938 373.136719 C 213.359375 373.136719 231.285156 373.136719 231.285156 354.835938 L 231.285156 142.8125 C 231.296875 131.601562 221.847656 117.335938 215.589844 112.820312 L 214.96875 112.367188 C 209.207031 108.234375 205.058594 105.246094 205.058594 89.292969 C 205.058594 71.871094 205.015625 67.214844 205.015625 67.171875 C 205.007812 66.863281 204.933594 66.578125 204.8125 66.320312 M 227.152344 354.835938 C 227.152344 367.308594 217.203125 368.992188 207.464844 368.992188 L 167.523438 368.992188 C 157.792969 368.992188 147.84375 367.308594 147.84375 354.835938 L 147.84375 142.8125 C 147.84375 133.375 156.332031 120.152344 161.832031 116.175781 L 162.457031 115.730469 C 168.699219 111.242188 174.085938 107.367188 174.085938 89.292969 C 174.085938 87.679688 174.085938 85.460938 174.085938 83.769531 C 174.085938 83.769531 174.085938 83.769531 174.089844 83.769531 C 176.167969 84.09375 179.445312 84.378906 184.800781 84.546875 C 184.984375 84.601562 185.1875 84.632812 185.390625 84.632812 C 186.023438 84.632812 186.746094 84.625 187.460938 84.613281 C 188.25 84.625 188.976562 84.632812 189.609375 84.632812 C 189.8125 84.632812 190.003906 84.597656 190.191406 84.546875 C 195.648438 84.371094 198.910156 84.0625 200.914062 83.722656 C 200.914062 85.417969 200.914062 87.261719 200.914062 89.292969 C 200.914062 107.367188 206.304688 111.242188 212.542969 115.730469 L 213.160156 116.175781 C 218.664062 120.148438 227.152344 133.375 227.152344 142.8125 Z M 227.152344 354.835938 " fill-opacity="1" fill-rule="nonzero"/></g><path fill="#be0157" d="M 186.871094 182.859375 C 182.21875 182.859375 159.398438 182.285156 157.296875 181.605469 C 155.183594 180.917969 150.113281 182.054688 150.113281 186.816406 C 150.113281 191.578125 150.113281 311.964844 150.113281 311.964844 C 150.113281 311.964844 151.171875 317.632812 156.03125 318.308594 C 160.890625 318.992188 182.648438 320.070312 186.875 320.070312 L 188.144531 320.070312 C 192.367188 320.070312 214.125 318.992188 218.984375 318.308594 C 223.847656 317.632812 224.902344 311.964844 224.902344 311.964844 C 224.902344 311.964844 224.902344 191.582031 224.902344 186.816406 C 224.902344 182.058594 219.832031 180.921875 217.71875 181.605469 C 215.609375 182.285156 192.792969 182.859375 188.152344 182.859375 Z M 186.871094 182.859375 " fill-opacity="1" fill-rule="nonzero"/></svg>